{"glyphs":{"0":{"ha":808,"x_min":33,"x_max":775,"o":"m 402 343 q 343 364 368 343 q 319 428 319 385 q 343 492 319 471 q 402 513 368 513 q 461 492 436 513 q 485 428 485 471 q 461 364 485 385 q 402 343 436 343 m 405 -15 q 267 8 333 -15 q 147 82 200 31 q 64 218 94 133 q 33 428 33 303 q 64 637 33 552 q 147 773 94 722 q 267 846 200 824 q 405 869 333 869 q 544 846 478 869 q 663 773 611 824 q 745 637 715 722 q 775 428 775 552 q 745 218 775 303 q 663 82 715 133 q 544 8 611 31 q 405 -15 478 -15 m 405 164 q 458 186 434 164 q 496 266 482 209 q 510 428 510 324 q 496 588 510 531 q 458 667 482 644 q 405 690 434 690 q 351 667 376 690 q 313 588 327 644 q 298 428 298 531 q 313 266 298 324 q 351 186 327 209 q 405 164 376 164 z "},"1":{"ha":676,"x_min":26,"x_max":649,"o":"m 174 0 q 81 24 113 0 q 49 90 49 47 q 174 178 49 178 l 226 178 l 226 619 q 184 607 208 613 q 133 602 160 602 q 85 609 110 602 q 43 636 60 617 q 26 690 26 655 q 43 746 26 726 q 85 775 60 766 q 134 784 110 783 q 205 799 181 786 q 251 826 230 811 q 298 853 272 841 q 366 866 324 866 q 453 826 429 866 q 478 701 478 787 l 478 178 l 524 178 q 649 90 649 178 q 617 24 649 47 q 524 0 585 0 l 174 0 z "},"2":{"ha":772,"x_min":40,"x_max":731,"o":"m 704 596 q 674 480 704 538 q 598 372 644 423 q 503 279 552 320 q 416 211 454 238 q 363 179 377 185 l 613 179 q 700 156 669 179 q 731 90 731 133 q 700 23 731 47 q 613 0 669 0 l 175 0 q 74 30 104 0 q 43 103 43 60 q 68 175 43 148 q 142 238 94 201 q 219 297 178 264 q 302 367 261 331 q 377 443 343 404 q 431 518 410 481 q 451 588 451 555 q 429 663 451 637 q 371 690 408 690 q 314 673 341 690 q 260 634 286 656 q 205 595 233 613 q 146 578 177 578 q 75 606 109 578 q 40 672 40 634 q 112 788 40 733 q 223 845 157 822 q 375 868 290 868 q 614 804 524 868 q 704 596 704 740 z "},"3":{"ha":724,"x_min":33,"x_max":683,"o":"m 33 147 q 63 219 33 188 q 134 250 93 250 q 194 234 165 250 q 247 194 224 217 q 284 172 263 180 q 330 163 304 163 q 389 175 367 163 q 422 207 412 187 q 432 252 432 227 q 416 300 432 281 q 375 332 399 320 q 326 346 351 343 q 255 372 286 351 q 223 435 223 392 q 255 501 223 485 q 326 524 286 518 q 370 539 351 528 q 402 566 390 549 q 414 609 414 584 q 407 651 414 633 q 383 680 400 669 q 334 690 365 690 q 295 684 322 690 q 241 656 268 678 q 189 616 210 630 q 133 603 167 603 q 65 632 92 603 q 38 703 38 662 q 102 805 38 762 q 207 851 146 834 q 334 869 267 869 q 497 845 422 869 q 619 770 572 821 q 665 640 665 720 q 644 550 665 592 q 586 480 622 509 q 505 440 549 451 q 599 399 558 425 q 661 333 639 372 q 683 240 683 294 q 635 101 683 158 q 506 14 586 44 q 333 -15 426 -15 q 199 2 260 -15 q 92 50 138 19 q 47 97 60 72 q 33 147 33 122 z "},"4":{"ha":824,"x_min":40,"x_max":798,"o":"m 554 -13 q 459 17 494 -13 q 425 124 425 48 l 425 191 l 188 191 q 80 220 120 191 q 40 308 40 249 q 49 370 40 334 q 67 438 58 406 l 171 782 q 217 848 185 827 q 289 869 250 869 q 360 844 328 869 q 392 769 392 818 q 391 750 392 760 q 386 728 390 740 l 281 369 l 426 369 l 426 619 q 444 695 426 668 q 490 733 463 722 q 546 744 518 744 q 602 733 574 744 q 647 695 629 722 q 665 619 665 668 l 665 369 l 692 369 q 769 346 741 369 q 798 280 798 323 q 769 214 798 237 q 692 191 741 191 l 665 191 l 665 124 q 632 17 665 48 q 554 -13 599 -13 z "},"5":{"ha":767,"x_min":33,"x_max":734,"o":"m 436 578 q 581 549 513 578 q 692 458 649 521 q 734 290 734 394 q 701 153 734 211 q 612 59 668 96 q 487 3 556 22 q 346 -15 418 -15 q 223 -2 283 -15 q 121 34 163 10 q 57 89 80 57 q 33 156 33 122 q 58 225 33 196 q 133 253 83 253 q 194 241 172 253 q 234 211 216 228 q 279 178 254 193 q 346 164 303 164 q 415 178 385 164 q 461 220 444 193 q 477 284 477 247 q 444 371 477 339 q 356 403 410 403 q 291 391 314 403 q 243 356 269 378 q 207 332 228 342 q 158 321 185 321 q 74 347 101 321 q 47 431 47 372 q 51 473 47 441 q 61 547 55 505 q 75 632 68 589 q 88 708 83 674 q 97 755 94 742 q 141 834 106 809 q 242 860 175 860 l 585 860 q 674 837 644 860 q 703 771 703 814 q 674 705 703 728 q 585 681 645 681 l 309 681 l 287 531 q 350 565 315 553 q 436 578 385 578 z "},"6":{"ha":802,"x_min":33,"x_max":762,"o":"m 490 583 q 687 510 613 583 q 762 291 762 438 q 717 129 762 198 q 591 23 672 60 q 403 -15 510 -15 q 207 30 290 -15 q 78 171 124 75 q 33 422 33 267 q 70 620 33 536 q 169 759 107 705 q 309 841 231 814 q 469 867 387 867 q 590 849 531 867 q 690 798 650 831 q 729 720 729 765 q 708 655 729 679 q 642 630 686 630 q 585 639 607 630 q 547 659 563 647 q 512 680 530 671 q 465 688 494 688 q 389 672 422 688 q 332 621 355 655 q 298 535 310 587 q 297 525 297 530 q 294 515 296 520 q 387 566 335 548 q 490 583 438 583 m 298 276 q 338 186 311 209 q 399 164 364 164 q 478 193 449 164 q 508 291 508 222 q 492 363 508 338 q 451 397 476 388 q 401 407 427 407 q 355 396 379 407 q 315 357 331 385 q 298 276 299 328 z "},"7":{"ha":668,"x_min":26,"x_max":642,"o":"m 26 771 q 57 837 26 814 q 138 860 88 860 l 496 860 q 642 747 642 860 q 629 672 642 703 q 590 598 616 640 q 514 457 552 534 q 451 296 476 380 q 426 126 426 212 q 299 -13 426 -13 q 202 26 236 -13 q 169 140 169 65 q 192 303 169 221 q 251 461 215 386 q 326 593 288 535 q 395 681 365 651 l 138 681 q 57 704 88 681 q 26 771 26 727 z "},"8":{"ha":808,"x_min":40,"x_max":768,"o":"m 406 -15 q 213 18 295 -15 q 86 109 131 50 q 40 247 40 167 q 83 387 40 335 q 188 466 125 439 q 110 538 141 495 q 80 638 80 581 q 123 765 80 713 q 241 842 167 816 q 406 868 315 868 q 570 842 497 868 q 686 765 643 816 q 730 638 730 713 q 700 539 730 581 q 622 466 669 496 q 726 387 684 439 q 768 247 768 335 q 723 109 768 167 q 597 18 678 50 q 406 -15 515 -15 m 285 265 q 323 187 285 210 q 406 164 360 164 q 488 187 451 164 q 524 265 524 210 q 507 324 524 301 q 463 356 490 346 q 406 366 436 366 q 348 356 375 366 q 303 324 320 346 q 285 265 285 301 m 310 618 q 335 565 310 586 q 406 544 360 544 q 474 565 449 544 q 499 618 499 586 q 472 670 499 651 q 406 690 445 690 q 338 670 365 690 q 310 618 310 651 z "},"9":{"ha":788,"x_min":40,"x_max":755,"o":"m 387 869 q 581 831 498 869 q 709 710 663 792 q 755 492 755 627 q 689 219 755 327 q 505 58 624 111 q 224 6 385 6 q 131 33 167 6 q 94 103 94 60 q 129 173 94 147 q 219 198 164 198 q 330 210 283 198 q 410 248 377 222 q 463 316 443 274 q 388 283 428 295 q 305 272 348 272 q 164 306 224 272 q 73 406 105 340 q 40 565 40 471 q 81 726 40 658 q 198 832 121 794 q 387 869 276 869 m 292 564 q 303 493 292 522 q 336 452 315 465 q 387 438 358 438 q 439 450 417 438 q 475 490 461 463 q 493 562 490 517 q 474 641 489 613 q 438 680 460 669 q 387 690 415 690 q 314 659 335 690 q 292 564 292 628 z "},"A":{"ha":821,"x_min":19,"x_max":801,"o":"m 139 -13 q 52 17 85 -13 q 19 101 19 47 q 21 124 19 113 q 26 147 22 135 l 209 719 q 273 822 229 783 q 377 860 317 860 l 444 860 q 548 822 504 860 q 612 719 592 783 l 795 147 q 800 124 799 135 q 801 101 801 113 q 769 17 801 47 q 682 -13 736 -13 q 585 19 616 -13 q 538 117 554 52 l 523 174 l 298 174 l 283 117 q 236 19 267 52 q 139 -13 205 -13 m 346 359 l 475 359 l 419 574 q 414 595 417 584 q 410 615 412 606 q 407 595 409 606 q 401 574 404 584 l 346 359 z "},"Á":{"ha":810,"x_min":19,"x_max":801,"o":"m 139 -13 q 52 17 85 -13 q 19 101 19 47 q 21 124 19 113 q 26 147 22 135 l 209 719 q 273 822 229 783 q 377 860 317 860 l 444 860 q 548 822 504 860 q 612 719 592 783 l 795 147 q 800 124 799 135 q 801 101 801 113 q 769 17 801 47 q 682 -13 736 -13 q 585 19 616 -13 q 538 117 554 52 l 523 174 l 298 174 l 283 117 q 236 19 267 52 q 139 -13 205 -13 m 346 359 l 475 359 l 419 574 q 414 595 417 584 q 410 615 412 606 q 407 595 409 606 q 401 574 404 584 l 346 359 m 392 910 q 358 921 370 910 q 346 950 346 932 q 372 1015 346 978 l 390 1038 q 451 1102 424 1085 q 531 1118 478 1118 l 569 1118 q 614 1103 597 1118 q 630 1067 630 1089 q 597 1009 630 1038 l 559 977 q 477 926 517 941 q 392 910 438 910 z "},"Ă":{"ha":810,"x_min":19,"x_max":801,"o":"m 139 -13 q 52 17 85 -13 q 19 101 19 47 q 21 124 19 113 q 26 147 22 135 l 209 719 q 273 822 229 783 q 377 860 317 860 l 444 860 q 548 822 504 860 q 612 719 592 783 l 795 147 q 800 124 799 135 q 801 101 801 113 q 769 17 801 47 q 682 -13 736 -13 q 585 19 616 -13 q 538 117 554 52 l 523 174 l 298 174 l 283 117 q 236 19 267 52 q 139 -13 205 -13 m 346 359 l 475 359 l 419 574 q 414 595 417 584 q 410 615 412 606 q 407 595 409 606 q 401 574 404 584 l 346 359 m 525 1110 q 577 1093 559 1110 q 596 1049 596 1076 q 586 1009 596 1031 q 555 965 577 987 q 495 927 531 942 q 408 911 459 911 q 331 923 364 911 q 274 954 298 935 q 235 1001 247 976 q 224 1047 224 1026 q 243 1092 224 1074 q 294 1110 262 1110 q 352 1093 335 1110 q 374 1056 369 1076 q 383 1035 376 1044 q 410 1026 390 1026 q 436 1035 430 1026 q 445 1056 443 1044 q 466 1093 449 1076 q 525 1110 483 1110 z "},"Ắ":{"ha":810,"x_min":19,"x_max":801,"o":"m 139 -13 q 52 17 85 -13 q 19 101 19 47 q 21 124 19 113 q 26 147 22 135 l 209 719 q 273 822 229 783 q 377 860 317 860 l 444 860 q 548 822 504 860 q 612 719 592 783 l 795 147 q 800 124 799 135 q 801 101 801 113 q 769 17 801 47 q 682 -13 736 -13 q 585 19 616 -13 q 538 117 554 52 l 523 174 l 298 174 l 283 117 q 236 19 267 52 q 139 -13 205 -13 m 346 359 l 475 359 l 419 574 q 414 595 417 584 q 410 615 412 606 q 407 595 409 606 q 401 574 404 584 l 346 359 m 525 1110 q 577 1093 559 1110 q 596 1049 596 1076 q 586 1009 596 1031 q 555 965 577 987 q 495 927 531 942 q 408 911 459 911 q 331 923 364 911 q 274 954 298 935 q 235 1001 247 976 q 224 1047 224 1026 q 243 1092 224 1074 q 294 1110 262 1110 q 352 1093 335 1110 q 374 1056 369 1076 q 383 1035 376 1044 q 410 1026 390 1026 q 436 1035 430 1026 q 445 1056 443 1044 q 466 1093 449 1076 q 525 1110 483 1110 m 392 1160 q 358 1171 370 1160 q 346 1200 346 1182 q 372 1265 346 1228 l 390 1288 q 451 1352 424 1335 q 531 1368 478 1368 l 569 1368 q 614 1353 597 1368 q 630 1317 630 1339 q 597 1259 630 1288 l 559 1227 q 477 1176 517 1191 q 392 1160 438 1160 z "},"Ặ":{"ha":821,"x_min":19,"x_max":801,"o":"m 139 -13 q 52 17 85 -13 q 19 101 19 47 q 21 124 19 113 q 26 147 22 135 l 209 719 q 273 822 229 783 q 377 860 317 860 l 444 860 q 548 822 504 860 q 612 719 592 783 l 795 147 q 800 124 799 135 q 801 101 801 113 q 769 17 801 47 q 682 -13 736 -13 q 585 19 616 -13 q 538 117 554 52 l 523 174 l 298 174 l 283 117 q 236 19 267 52 q 139 -13 205 -13 m 346 359 l 475 359 l 419 574 q 414 595 417 584 q 410 615 412 606 q 407 595 409 606 q 401 574 404 584 l 346 359 m 410 -298 q 321 -261 358 -298 q 285 -171 285 -224 q 321 -81 285 -117 q 410 -44 358 -44 q 500 -81 463 -44 q 536 -171 536 -117 q 500 -263 536 -228 q 410 -298 463 -298 m 525 1110 q 577 1093 559 1110 q 596 1049 596 1076 q 586 1009 596 1031 q 555 965 577 987 q 495 927 531 942 q 408 911 459 911 q 331 923 364 911 q 274 954 298 935 q 235 1001 247 976 q 224 1047 224 1026 q 243 1092 224 1074 q 294 1110 262 1110 q 352 1093 335 1110 q 374 1056 369 1076 q 383 1035 376 1044 q 410 1026 390 1026 q 436 1035 430 1026 q 445 1056 443 1044 q 466 1093 449 1076 q 525 1110 483 1110 z "},"Ằ":{"ha":810,"x_min":19,"x_max":801,"o":"m 139 -13 q 52 17 85 -13 q 19 101 19 47 q 21 124 19 113 q 26 147 22 135 l 209 719 q 273 822 229 783 q 377 860 317 860 l 444 860 q 548 822 504 860 q 612 719 592 783 l 795 147 q 800 124 799 135 q 801 101 801 113 q 769 17 801 47 q 682 -13 736 -13 q 585 19 616 -13 q 538 117 554 52 l 523 174 l 298 174 l 283 117 q 236 19 267 52 q 139 -13 205 -13 m 346 359 l 475 359 l 419 574 q 414 595 417 584 q 410 615 412 606 q 407 595 409 606 q 401 574 404 584 l 346 359 m 525 1110 q 577 1093 559 1110 q 596 1049 596 1076 q 586 1009 596 1031 q 555 965 577 987 q 495 927 531 942 q 408 911 459 911 q 331 923 364 911 q 274 954 298 935 q 235 1001 247 976 q 224 1047 224 1026 q 243 1092 224 1074 q 294 1110 262 1110 q 352 1093 335 1110 q 374 1056 369 1076 q 383 1035 376 1044 q 410 1026 390 1026 q 436 1035 430 1026 q 445 1056 443 1044 q 466 1093 449 1076 q 525 1110 483 1110 m 453 1153 q 368 1169 408 1153 q 286 1219 328 1184 l 248 1252 q 215 1310 215 1280 q 232 1347 215 1332 q 276 1361 249 1361 l 315 1361 q 394 1345 367 1361 q 456 1281 422 1328 l 473 1257 q 499 1192 499 1220 q 487 1164 499 1175 q 453 1153 475 1153 z "},"Ẳ":{"ha":810,"x_min":19,"x_max":801,"o":"m 139 -13 q 52 17 85 -13 q 19 101 19 47 q 21 124 19 113 q 26 147 22 135 l 209 719 q 273 822 229 783 q 377 860 317 860 l 444 860 q 548 822 504 860 q 612 719 592 783 l 795 147 q 800 124 799 135 q 801 101 801 113 q 769 17 801 47 q 682 -13 736 -13 q 585 19 616 -13 q 538 117 554 52 l 523 174 l 298 174 l 283 117 q 236 19 267 52 q 139 -13 205 -13 m 346 359 l 475 359 l 419 574 q 414 595 417 584 q 410 615 412 606 q 407 595 409 606 q 401 574 404 584 l 346 359 m 525 1110 q 577 1093 559 1110 q 596 1049 596 1076 q 586 1009 596 1031 q 555 965 577 987 q 495 927 531 942 q 408 911 459 911 q 331 923 364 911 q 274 954 298 935 q 235 1001 247 976 q 224 1047 224 1026 q 243 1092 224 1074 q 294 1110 262 1110 q 352 1093 335 1110 q 374 1056 369 1076 q 383 1035 376 1044 q 410 1026 390 1026 q 436 1035 430 1026 q 445 1056 443 1044 q 466 1093 449 1076 q 525 1110 483 1110 m 373 1160 q 328 1176 344 1160 q 313 1216 313 1192 q 327 1258 313 1240 q 373 1276 342 1276 q 427 1285 402 1276 q 451 1314 451 1294 q 428 1339 451 1333 q 380 1344 404 1344 q 337 1343 353 1344 q 304 1335 321 1341 q 288 1332 295 1333 q 273 1331 281 1331 q 242 1341 256 1331 q 229 1372 229 1352 q 273 1435 229 1413 q 388 1458 316 1458 q 485 1445 439 1458 q 561 1401 531 1433 q 591 1313 591 1369 q 556 1224 591 1258 q 469 1175 520 1190 q 373 1160 419 1160 z "},"Ẵ":{"ha":810,"x_min":19,"x_max":801,"o":"m 139 -13 q 52 17 85 -13 q 19 101 19 47 q 21 124 19 113 q 26 147 22 135 l 209 719 q 273 822 229 783 q 377 860 317 860 l 444 860 q 548 822 504 860 q 612 719 592 783 l 795 147 q 800 124 799 135 q 801 101 801 113 q 769 17 801 47 q 682 -13 736 -13 q 585 19 616 -13 q 538 117 554 52 l 523 174 l 298 174 l 283 117 q 236 19 267 52 q 139 -13 205 -13 m 346 359 l 475 359 l 419 574 q 414 595 417 584 q 410 615 412 606 q 407 595 409 606 q 401 574 404 584 l 346 359 m 525 1110 q 577 1093 559 1110 q 596 1049 596 1076 q 586 1009 596 1031 q 555 965 577 987 q 495 927 531 942 q 408 911 459 911 q 331 923 364 911 q 274 954 298 935 q 235 1001 247 976 q 224 1047 224 1026 q 243 1092 224 1074 q 294 1110 262 1110 q 352 1093 335 1110 q 374 1056 369 1076 q 383 1035 376 1044 q 410 1026 390 1026 q 436 1035 430 1026 q 445 1056 443 1044 q 466 1093 449 1076 q 525 1110 483 1110 m 493 1166 q 435 1177 456 1166 q 397 1201 415 1188 q 370 1217 384 1210 q 338 1224 357 1224 q 303 1218 319 1224 q 274 1206 288 1213 q 252 1196 263 1200 q 233 1192 242 1192 q 206 1207 217 1192 q 196 1243 196 1222 q 239 1326 196 1287 q 277 1350 256 1341 q 326 1359 299 1359 q 385 1350 364 1359 q 419 1328 406 1342 q 445 1308 431 1317 q 483 1300 459 1300 q 513 1305 501 1300 q 538 1318 526 1310 q 555 1327 545 1324 q 576 1331 564 1331 q 610 1318 594 1331 q 625 1279 625 1306 q 603 1224 625 1249 q 559 1184 586 1202 q 493 1166 532 1166 z "},"Ǎ":{"ha":810,"x_min":19,"x_max":801,"o":"m 139 -13 q 52 17 85 -13 q 19 101 19 47 q 21 124 19 113 q 26 147 22 135 l 209 719 q 273 822 229 783 q 377 860 317 860 l 444 860 q 548 822 504 860 q 612 719 592 783 l 795 147 q 800 124 799 135 q 801 101 801 113 q 769 17 801 47 q 682 -13 736 -13 q 585 19 616 -13 q 538 117 554 52 l 523 174 l 298 174 l 283 117 q 236 19 267 52 q 139 -13 205 -13 m 346 359 l 475 359 l 419 574 q 414 595 417 584 q 410 615 412 606 q 407 595 409 606 q 401 574 404 584 l 346 359 m 578 1016 l 564 999 q 494 934 526 957 q 410 912 461 912 q 326 934 360 912 q 256 999 293 957 l 242 1016 q 225 1053 225 1035 q 245 1097 225 1080 q 297 1113 265 1113 q 341 1099 323 1113 q 376 1065 360 1085 l 410 1022 l 444 1065 q 478 1099 460 1084 q 524 1113 497 1113 q 575 1097 556 1113 q 595 1053 595 1080 q 592 1035 595 1045 q 578 1016 588 1026 z "},"Â":{"ha":810,"x_min":19,"x_max":801,"o":"m 139 -13 q 52 17 85 -13 q 19 101 19 47 q 21 124 19 113 q 26 147 22 135 l 209 719 q 273 822 229 783 q 377 860 317 860 l 444 860 q 548 822 504 860 q 612 719 592 783 l 795 147 q 800 124 799 135 q 801 101 801 113 q 769 17 801 47 q 682 -13 736 -13 q 585 19 616 -13 q 538 117 554 52 l 523 174 l 298 174 l 283 117 q 236 19 267 52 q 139 -13 205 -13 m 346 359 l 475 359 l 419 574 q 414 595 417 584 q 410 615 412 606 q 407 595 409 606 q 401 574 404 584 l 346 359 m 579 1002 q 596 965 596 983 q 576 922 596 939 q 524 905 556 905 q 479 919 498 905 q 445 952 460 933 l 410 996 l 376 952 q 342 918 360 932 q 297 905 324 905 q 245 922 265 905 q 226 965 226 939 q 230 983 226 973 q 242 1002 233 992 l 257 1019 q 327 1083 294 1061 q 410 1106 360 1106 q 494 1084 462 1106 q 565 1019 527 1062 l 579 1002 z "},"Ấ":{"ha":821,"x_min":19,"x_max":801,"o":"m 139 -13 q 52 17 85 -13 q 19 101 19 47 q 21 124 19 113 q 26 147 22 135 l 209 719 q 273 822 229 783 q 377 860 317 860 l 444 860 q 548 822 504 860 q 612 719 592 783 l 795 147 q 800 124 799 135 q 801 101 801 113 q 769 17 801 47 q 682 -13 736 -13 q 585 19 616 -13 q 538 117 554 52 l 523 174 l 298 174 l 283 117 q 236 19 267 52 q 139 -13 205 -13 m 346 359 l 475 359 l 419 574 q 414 595 417 584 q 410 615 412 606 q 407 595 409 606 q 401 574 404 584 l 346 359 m 579 1035 q 596 997 596 1017 q 576 955 596 972 q 524 938 556 938 q 479 952 498 938 q 445 985 460 967 l 410 1029 l 376 985 q 342 952 360 965 q 297 938 324 938 q 245 955 265 938 q 226 997 226 972 q 242 1035 226 1018 l 257 1052 q 327 1117 294 1094 q 410 1139 360 1139 q 494 1117 462 1139 q 565 1052 527 1094 l 579 1035 m 588 1079 q 557 1087 570 1079 q 543 1118 543 1095 q 563 1181 543 1144 l 577 1207 q 634 1273 606 1259 q 715 1287 662 1287 l 739 1287 q 782 1272 767 1287 q 797 1236 797 1258 q 763 1178 797 1207 l 699 1123 q 639 1087 667 1095 q 588 1079 612 1079 z "},"Ậ":{"ha":821,"x_min":19,"x_max":801,"o":"m 139 -13 q 52 17 85 -13 q 19 101 19 47 q 21 124 19 113 q 26 147 22 135 l 209 719 q 273 822 229 783 q 377 860 317 860 l 444 860 q 548 822 504 860 q 612 719 592 783 l 795 147 q 800 124 799 135 q 801 101 801 113 q 769 17 801 47 q 682 -13 736 -13 q 585 19 616 -13 q 538 117 554 52 l 523 174 l 298 174 l 283 117 q 236 19 267 52 q 139 -13 205 -13 m 346 359 l 475 359 l 419 574 q 414 595 417 584 q 410 615 412 606 q 407 595 409 606 q 401 574 404 584 l 346 359 m 410 -298 q 321 -261 358 -298 q 285 -171 285 -224 q 321 -81 285 -117 q 410 -44 358 -44 q 500 -81 463 -44 q 536 -171 536 -117 q 500 -263 536 -228 q 410 -298 463 -298 m 579 1002 q 596 965 596 983 q 576 922 596 939 q 524 905 556 905 q 479 919 498 905 q 445 952 460 933 l 410 996 l 376 952 q 342 918 360 932 q 297 905 324 905 q 245 922 265 905 q 226 965 226 939 q 230 983 226 973 q 242 1002 233 992 l 257 1019 q 327 1083 294 1061 q 410 1106 360 1106 q 494 1084 462 1106 q 565 1019 527 1062 l 579 1002 z "},"Ầ":{"ha":821,"x_min":19,"x_max":801,"o":"m 139 -13 q 52 17 85 -13 q 19 101 19 47 q 21 124 19 113 q 26 147 22 135 l 209 719 q 273 822 229 783 q 377 860 317 860 l 444 860 q 548 822 504 860 q 612 719 592 783 l 795 147 q 800 124 799 135 q 801 101 801 113 q 769 17 801 47 q 682 -13 736 -13 q 585 19 616 -13 q 538 117 554 52 l 523 174 l 298 174 l 283 117 q 236 19 267 52 q 139 -13 205 -13 m 346 359 l 475 359 l 419 574 q 414 595 417 584 q 410 615 412 606 q 407 595 409 606 q 401 574 404 584 l 346 359 m 579 1035 q 596 997 596 1017 q 576 955 596 972 q 524 938 556 938 q 479 952 498 938 q 445 985 460 967 l 410 1029 l 376 985 q 342 952 360 965 q 297 938 324 938 q 245 955 265 938 q 226 997 226 972 q 242 1035 226 1018 l 257 1052 q 327 1117 294 1094 q 410 1139 360 1139 q 494 1117 462 1139 q 565 1052 527 1094 l 579 1035 m 656 1079 q 604 1087 631 1079 q 544 1123 576 1095 l 481 1178 q 447 1236 447 1207 q 461 1272 447 1258 q 504 1287 476 1287 l 528 1287 q 610 1273 581 1287 q 666 1207 638 1259 l 680 1181 q 700 1118 700 1144 q 687 1087 700 1095 q 656 1079 674 1079 z "},"Ẩ":{"ha":821,"x_min":19,"x_max":801,"o":"m 139 -13 q 52 17 85 -13 q 19 101 19 47 q 21 124 19 113 q 26 147 22 135 l 209 719 q 273 822 229 783 q 377 860 317 860 l 444 860 q 548 822 504 860 q 612 719 592 783 l 795 147 q 800 124 799 135 q 801 101 801 113 q 769 17 801 47 q 682 -13 736 -13 q 585 19 616 -13 q 538 117 554 52 l 523 174 l 298 174 l 283 117 q 236 19 267 52 q 139 -13 205 -13 m 346 359 l 475 359 l 419 574 q 414 595 417 584 q 410 615 412 606 q 407 595 409 606 q 401 574 404 584 l 346 359 m 579 1035 q 596 997 596 1017 q 576 955 596 972 q 524 938 556 938 q 479 952 498 938 q 445 985 460 967 l 410 1029 l 376 985 q 342 952 360 965 q 297 938 324 938 q 245 955 265 938 q 226 997 226 972 q 242 1035 226 1018 l 257 1052 q 327 1117 294 1094 q 410 1139 360 1139 q 494 1117 462 1139 q 565 1052 527 1094 l 579 1035 m 574 1091 q 514 1140 514 1091 q 528 1178 514 1164 q 574 1192 542 1192 q 631 1205 603 1192 q 659 1238 659 1217 q 635 1266 659 1256 q 588 1275 612 1275 q 544 1270 560 1275 q 515 1260 527 1266 q 493 1255 506 1256 q 474 1254 481 1254 q 443 1265 456 1254 q 430 1296 430 1275 q 473 1352 430 1331 q 589 1374 517 1374 q 684 1362 640 1374 q 757 1319 728 1349 q 785 1235 785 1289 q 751 1149 785 1181 q 668 1104 717 1117 q 574 1091 619 1091 z "},"Ẫ":{"ha":810,"x_min":19,"x_max":801,"o":"m 139 -13 q 52 17 85 -13 q 19 101 19 47 q 21 124 19 113 q 26 147 22 135 l 209 719 q 273 822 229 783 q 377 860 317 860 l 444 860 q 548 822 504 860 q 612 719 592 783 l 795 147 q 800 124 799 135 q 801 101 801 113 q 769 17 801 47 q 682 -13 736 -13 q 585 19 616 -13 q 538 117 554 52 l 523 174 l 298 174 l 283 117 q 236 19 267 52 q 139 -13 205 -13 m 346 359 l 475 359 l 419 574 q 414 595 417 584 q 410 615 412 606 q 407 595 409 606 q 401 574 404 584 l 346 359 m 579 1002 q 596 965 596 983 q 576 922 596 939 q 524 905 556 905 q 479 919 498 905 q 445 952 460 933 l 410 996 l 376 952 q 342 918 360 932 q 297 905 324 905 q 245 922 265 905 q 226 965 226 939 q 230 983 226 973 q 242 1002 233 992 l 257 1019 q 327 1083 294 1061 q 410 1106 360 1106 q 494 1084 462 1106 q 565 1019 527 1062 l 579 1002 m 493 1162 q 435 1173 456 1162 q 397 1197 415 1183 q 370 1213 384 1206 q 338 1219 357 1219 q 303 1214 319 1219 q 274 1201 288 1209 q 252 1192 263 1196 q 233 1188 242 1188 q 206 1203 217 1188 q 196 1239 196 1218 q 239 1322 196 1283 q 277 1346 256 1337 q 326 1355 299 1355 q 385 1346 364 1355 q 419 1324 406 1338 q 445 1304 431 1313 q 483 1296 459 1296 q 513 1301 501 1296 q 538 1314 526 1306 q 555 1323 545 1319 q 576 1327 564 1327 q 610 1314 594 1327 q 625 1275 625 1301 q 603 1219 625 1245 q 559 1180 586 1198 q 493 1162 532 1162 z "},"Ȁ":{"ha":810,"x_min":19,"x_max":801,"o":"m 139 -13 q 52 17 85 -13 q 19 101 19 47 q 21 124 19 113 q 26 147 22 135 l 209 719 q 273 822 229 783 q 377 860 317 860 l 444 860 q 548 822 504 860 q 612 719 592 783 l 795 147 q 800 124 799 135 q 801 101 801 113 q 769 17 801 47 q 682 -13 736 -13 q 585 19 616 -13 q 538 117 554 52 l 523 174 l 298 174 l 283 117 q 236 19 267 52 q 139 -13 205 -13 m 346 359 l 475 359 l 419 574 q 414 595 417 584 q 410 615 412 606 q 407 595 409 606 q 401 574 404 584 l 346 359 m 306 911 q 235 926 268 911 q 167 978 203 942 l 135 1010 q 114 1039 120 1024 q 108 1068 108 1054 q 121 1104 108 1090 q 158 1119 135 1119 l 190 1119 q 258 1103 235 1119 q 308 1039 281 1087 l 322 1015 q 345 951 345 976 q 335 922 345 933 q 306 911 325 911 m 551 911 q 480 926 513 911 q 411 978 447 942 l 379 1010 q 352 1068 352 1038 q 366 1104 352 1090 q 403 1119 380 1119 l 435 1119 q 502 1102 479 1119 q 553 1039 524 1086 l 567 1015 q 584 980 579 997 q 589 951 589 964 q 579 922 589 933 q 551 911 569 911 z "},"Ä":{"ha":810,"x_min":19,"x_max":801,"o":"m 139 -13 q 52 17 85 -13 q 19 101 19 47 q 21 124 19 113 q 26 147 22 135 l 209 719 q 273 822 229 783 q 377 860 317 860 l 444 860 q 548 822 504 860 q 612 719 592 783 l 795 147 q 800 124 799 135 q 801 101 801 113 q 769 17 801 47 q 682 -13 736 -13 q 585 19 616 -13 q 538 117 554 52 l 523 174 l 298 174 l 283 117 q 236 19 267 52 q 139 -13 205 -13 m 346 359 l 475 359 l 419 574 q 414 595 417 584 q 410 615 412 606 q 407 595 409 606 q 401 574 404 584 l 346 359 m 257 914 q 168 950 204 914 q 131 1040 131 987 q 168 1131 131 1094 q 257 1168 204 1168 q 346 1131 310 1168 q 383 1040 383 1094 q 346 950 383 987 q 257 914 310 914 m 563 914 q 473 950 510 914 q 437 1040 437 987 q 473 1131 437 1094 q 563 1168 510 1168 q 653 1131 616 1168 q 690 1040 690 1094 q 653 950 690 987 q 563 914 616 914 z "},"Ạ":{"ha":810,"x_min":19,"x_max":801,"o":"m 139 -13 q 52 17 85 -13 q 19 101 19 47 q 21 124 19 113 q 26 147 22 135 l 209 719 q 273 822 229 783 q 377 860 317 860 l 444 860 q 548 822 504 860 q 612 719 592 783 l 795 147 q 800 124 799 135 q 801 101 801 113 q 769 17 801 47 q 682 -13 736 -13 q 585 19 616 -13 q 538 117 554 52 l 523 174 l 298 174 l 283 117 q 236 19 267 52 q 139 -13 205 -13 m 346 359 l 475 359 l 419 574 q 414 595 417 584 q 410 615 412 606 q 407 595 409 606 q 401 574 404 584 l 346 359 m 410 -298 q 321 -261 358 -298 q 285 -171 285 -224 q 321 -81 285 -117 q 410 -44 358 -44 q 500 -81 463 -44 q 536 -171 536 -117 q 500 -263 536 -228 q 410 -298 463 -298 z "},"À":{"ha":810,"x_min":19,"x_max":801,"o":"m 139 -13 q 52 17 85 -13 q 19 101 19 47 q 21 124 19 113 q 26 147 22 135 l 209 719 q 273 822 229 783 q 377 860 317 860 l 444 860 q 548 822 504 860 q 612 719 592 783 l 795 147 q 800 124 799 135 q 801 101 801 113 q 769 17 801 47 q 682 -13 736 -13 q 585 19 616 -13 q 538 117 554 52 l 523 174 l 298 174 l 283 117 q 236 19 267 52 q 139 -13 205 -13 m 346 359 l 475 359 l 419 574 q 414 595 417 584 q 410 615 412 606 q 407 595 409 606 q 401 574 404 584 l 346 359 m 453 903 q 368 919 408 903 q 286 969 328 934 l 248 1002 q 215 1060 215 1030 q 232 1097 215 1082 q 276 1111 249 1111 l 315 1111 q 394 1095 367 1111 q 456 1031 422 1078 l 473 1007 q 499 942 499 970 q 487 914 499 925 q 453 903 475 903 z "},"Ả":{"ha":810,"x_min":19,"x_max":801,"o":"m 139 -13 q 52 17 85 -13 q 19 101 19 47 q 21 124 19 113 q 26 147 22 135 l 209 719 q 273 822 229 783 q 377 860 317 860 l 444 860 q 548 822 504 860 q 612 719 592 783 l 795 147 q 800 124 799 135 q 801 101 801 113 q 769 17 801 47 q 682 -13 736 -13 q 585 19 616 -13 q 538 117 554 52 l 523 174 l 298 174 l 283 117 q 236 19 267 52 q 139 -13 205 -13 m 346 359 l 475 359 l 419 574 q 414 595 417 584 q 410 615 412 606 q 407 595 409 606 q 401 574 404 584 l 346 359 m 373 910 q 328 926 344 910 q 313 966 313 942 q 327 1008 313 990 q 373 1026 342 1026 q 427 1035 402 1026 q 451 1064 451 1044 q 428 1089 451 1083 q 380 1094 404 1094 q 337 1093 353 1094 q 304 1085 321 1091 q 288 1082 295 1083 q 273 1081 281 1081 q 242 1091 256 1081 q 229 1122 229 1102 q 273 1185 229 1163 q 388 1208 316 1208 q 485 1195 439 1208 q 561 1151 531 1183 q 591 1063 591 1119 q 556 974 591 1008 q 469 925 520 940 q 373 910 419 910 z "},"Ȃ":{"ha":810,"x_min":19,"x_max":801,"o":"m 139 -13 q 52 17 85 -13 q 19 101 19 47 q 21 124 19 113 q 26 147 22 135 l 209 719 q 273 822 229 783 q 377 860 317 860 l 444 860 q 548 822 504 860 q 612 719 592 783 l 795 147 q 800 124 799 135 q 801 101 801 113 q 769 17 801 47 q 682 -13 736 -13 q 585 19 616 -13 q 538 117 554 52 l 523 174 l 298 174 l 283 117 q 236 19 267 52 q 139 -13 205 -13 m 346 359 l 475 359 l 419 574 q 414 595 417 584 q 410 615 412 606 q 407 595 409 606 q 401 574 404 584 l 346 359 m 525 905 q 466 922 483 905 q 445 959 449 940 q 436 980 443 970 q 410 989 430 989 q 383 980 390 989 q 374 959 376 970 q 352 922 369 939 q 294 905 335 905 q 243 923 262 905 q 224 968 224 941 q 235 1014 224 989 q 274 1060 247 1038 q 331 1091 298 1079 q 408 1103 364 1103 q 495 1088 459 1103 q 555 1049 531 1072 q 586 1006 577 1028 q 596 965 596 984 q 577 922 596 939 q 525 905 559 905 z "},"Ā":{"ha":810,"x_min":19,"x_max":801,"o":"m 139 -13 q 52 17 85 -13 q 19 101 19 47 q 21 124 19 113 q 26 147 22 135 l 209 719 q 273 822 229 783 q 377 860 317 860 l 444 860 q 548 822 504 860 q 612 719 592 783 l 795 147 q 800 124 799 135 q 801 101 801 113 q 769 17 801 47 q 682 -13 736 -13 q 585 19 616 -13 q 538 117 554 52 l 523 174 l 298 174 l 283 117 q 236 19 267 52 q 139 -13 205 -13 m 346 359 l 475 359 l 419 574 q 414 595 417 584 q 410 615 412 606 q 407 595 409 606 q 401 574 404 584 l 346 359 m 126 988 q 156 1040 126 1020 q 251 1059 185 1059 l 567 1059 q 662 1040 633 1059 q 692 988 692 1020 q 662 935 692 955 q 567 916 633 916 l 251 916 q 156 935 185 916 q 126 988 126 955 z "},"Ą":{"ha":810,"x_min":19,"x_max":875,"o":"m 139 -13 q 52 17 85 -13 q 19 101 19 47 q 21 124 19 113 q 26 147 22 135 l 209 719 q 273 822 229 783 q 377 860 317 860 l 444 860 q 548 822 504 860 q 612 719 592 783 l 795 147 q 800 124 799 135 q 801 101 801 113 q 769 17 801 47 q 682 -13 736 -13 q 585 19 616 -13 q 538 117 554 52 l 523 174 l 298 174 l 283 117 q 236 19 267 52 q 139 -13 205 -13 m 346 359 l 475 359 l 419 574 q 414 595 417 584 q 410 615 412 606 q 407 595 409 606 q 401 574 404 584 l 346 359 m 699 -339 q 594 -326 644 -339 q 515 -283 545 -314 q 484 -197 484 -251 q 498 -124 484 -158 q 534 -64 512 -90 q 581 -22 556 -38 q 629 0 606 -5 l 744 0 q 712 -31 730 -8 q 681 -83 694 -54 q 668 -138 668 -112 q 681 -180 668 -167 q 721 -193 694 -193 q 746 -191 730 -193 q 772 -186 763 -189 q 798 -181 785 -183 q 819 -180 810 -180 q 863 -198 850 -180 q 875 -243 875 -215 q 825 -315 875 -292 q 699 -339 775 -339 z "},"Å":{"ha":810,"x_min":19,"x_max":801,"o":"m 139 -13 q 52 17 85 -13 q 19 101 19 47 q 21 124 19 113 q 26 147 22 135 l 209 719 q 273 822 229 783 q 377 860 317 860 l 444 860 q 548 822 504 860 q 612 719 592 783 l 795 147 q 800 124 799 135 q 801 101 801 113 q 769 17 801 47 q 682 -13 736 -13 q 585 19 616 -13 q 538 117 554 52 l 523 174 l 298 174 l 283 117 q 236 19 267 52 q 139 -13 205 -13 m 346 359 l 475 359 l 419 574 q 414 595 417 584 q 410 615 412 606 q 407 595 409 606 q 401 574 404 584 l 346 359 m 411 903 q 300 947 347 903 q 254 1058 254 991 q 275 1135 254 1101 q 332 1191 297 1170 q 411 1213 368 1213 q 488 1191 453 1213 q 544 1135 523 1170 q 565 1058 565 1101 q 519 947 565 991 q 411 903 473 903 m 411 1019 q 436 1030 426 1019 q 447 1058 447 1041 q 436 1084 447 1073 q 411 1094 426 1094 q 383 1084 394 1094 q 373 1058 373 1073 q 383 1030 373 1041 q 411 1019 394 1019 z "},"Ǻ":{"ha":810,"x_min":19,"x_max":801,"o":"m 139 -13 q 52 17 85 -13 q 19 101 19 47 q 21 124 19 113 q 26 147 22 135 l 209 719 q 273 822 229 783 q 377 860 317 860 l 444 860 q 548 822 504 860 q 612 719 592 783 l 795 147 q 800 124 799 135 q 801 101 801 113 q 769 17 801 47 q 682 -13 736 -13 q 585 19 616 -13 q 538 117 554 52 l 523 174 l 298 174 l 283 117 q 236 19 267 52 q 139 -13 205 -13 m 346 359 l 475 359 l 419 574 q 414 595 417 584 q 410 615 412 606 q 407 595 409 606 q 401 574 404 584 l 346 359 m 411 903 q 300 947 347 903 q 254 1058 254 991 q 275 1135 254 1101 q 332 1191 297 1170 q 411 1213 368 1213 q 488 1191 453 1213 q 544 1135 523 1170 q 565 1058 565 1101 q 519 947 565 991 q 411 903 473 903 m 411 1019 q 436 1030 426 1019 q 447 1058 447 1041 q 436 1084 447 1073 q 411 1094 426 1094 q 383 1084 394 1094 q 373 1058 373 1073 q 383 1030 373 1041 q 411 1019 394 1019 m 392 1266 q 358 1277 370 1266 q 346 1306 346 1288 q 372 1370 346 1333 l 390 1394 q 451 1457 424 1441 q 531 1474 478 1474 l 569 1474 q 614 1459 597 1474 q 630 1423 630 1444 q 597 1365 630 1393 l 559 1333 q 477 1281 517 1297 q 392 1266 438 1266 z "},"Ã":{"ha":810,"x_min":19,"x_max":801,"o":"m 139 -13 q 52 17 85 -13 q 19 101 19 47 q 21 124 19 113 q 26 147 22 135 l 209 719 q 273 822 229 783 q 377 860 317 860 l 444 860 q 548 822 504 860 q 612 719 592 783 l 795 147 q 800 124 799 135 q 801 101 801 113 q 769 17 801 47 q 682 -13 736 -13 q 585 19 616 -13 q 538 117 554 52 l 523 174 l 298 174 l 283 117 q 236 19 267 52 q 139 -13 205 -13 m 346 359 l 475 359 l 419 574 q 414 595 417 584 q 410 615 412 606 q 407 595 409 606 q 401 574 404 584 l 346 359 m 493 916 q 435 927 456 916 q 397 951 415 938 q 370 967 384 960 q 338 974 357 974 q 303 968 319 974 q 274 956 288 963 q 252 946 263 950 q 233 942 242 942 q 206 957 217 942 q 196 993 196 972 q 239 1076 196 1037 q 277 1100 256 1091 q 326 1109 299 1109 q 385 1100 364 1109 q 419 1078 406 1092 q 445 1058 431 1067 q 483 1050 459 1050 q 513 1055 501 1050 q 538 1068 526 1060 q 555 1077 545 1074 q 576 1081 564 1081 q 610 1068 594 1081 q 625 1029 625 1056 q 603 974 625 999 q 559 934 586 952 q 493 916 532 916 z "},"Æ":{"ha":985,"x_min":13,"x_max":945,"o":"m 592 -1 q 447 134 447 -1 l 447 174 l 284 174 l 262 105 q 213 16 242 46 q 119 -13 183 -13 q 71 -6 96 -13 q 30 20 47 2 q 13 71 13 39 q 15 102 13 85 q 24 139 17 119 l 252 745 q 306 831 274 803 q 390 860 338 860 l 833 860 q 919 838 894 860 q 945 777 945 817 q 919 715 945 737 q 833 694 894 694 l 681 694 l 681 505 l 856 505 q 904 480 885 505 q 924 422 924 455 q 904 365 924 390 q 856 340 885 340 l 681 340 l 681 165 l 833 165 q 919 144 894 165 q 945 82 945 122 q 919 20 945 42 q 833 -1 894 -1 l 592 -1 m 344 359 l 447 359 l 447 680 q 445 679 447 680 q 443 676 444 678 l 344 359 z "},"Ǽ":{"ha":974,"x_min":13,"x_max":945,"o":"m 592 -1 q 447 134 447 -1 l 447 174 l 284 174 l 262 105 q 213 16 242 46 q 119 -13 183 -13 q 71 -6 96 -13 q 30 20 47 2 q 13 71 13 39 q 15 102 13 85 q 24 139 17 119 l 252 745 q 306 831 274 803 q 390 860 338 860 l 833 860 q 919 838 894 860 q 945 777 945 817 q 919 715 945 737 q 833 694 894 694 l 681 694 l 681 505 l 856 505 q 904 480 885 505 q 924 422 924 455 q 904 365 924 390 q 856 340 885 340 l 681 340 l 681 165 l 833 165 q 919 144 894 165 q 945 82 945 122 q 919 20 945 42 q 833 -1 894 -1 l 592 -1 m 344 359 l 447 359 l 447 680 q 445 679 447 680 q 443 676 444 678 l 344 359 m 428 910 q 394 921 406 910 q 382 950 382 932 q 408 1015 382 978 l 426 1038 q 487 1102 460 1085 q 567 1118 514 1118 l 605 1118 q 650 1103 633 1118 q 666 1067 666 1089 q 633 1009 666 1038 l 595 977 q 513 926 553 941 q 428 910 474 910 z "},"B":{"ha":828,"x_min":47,"x_max":781,"o":"m 572 457 q 616 450 583 457 q 688 422 649 443 q 753 358 726 401 q 781 245 781 316 q 740 109 781 163 q 628 27 699 54 q 465 0 557 0 l 192 0 q 47 146 47 0 l 47 715 q 192 860 47 860 l 424 860 q 579 841 505 860 q 701 777 653 823 q 748 649 748 732 q 725 546 748 585 q 670 489 702 508 q 611 463 639 469 q 572 457 583 457 m 312 674 l 312 522 l 374 522 q 427 528 401 522 q 471 550 453 533 q 489 600 489 567 q 472 650 489 634 q 429 670 456 665 q 374 674 403 674 l 312 674 m 383 185 q 473 202 434 185 q 513 273 513 219 q 473 342 513 327 q 383 358 434 358 l 312 358 l 312 185 l 383 185 z "},"C":{"ha":817,"x_min":33,"x_max":783,"o":"m 462 -15 q 316 5 391 -15 q 177 73 241 24 q 73 208 113 122 q 33 426 33 294 q 73 646 33 560 q 177 781 113 732 q 316 849 241 829 q 462 868 391 868 q 578 852 522 868 q 682 807 635 837 q 756 737 728 778 q 783 645 783 696 q 750 564 783 595 q 670 533 717 533 q 593 558 615 533 q 558 611 572 583 q 539 646 549 630 q 510 673 528 663 q 462 683 492 683 q 383 659 420 683 q 324 579 347 635 q 301 426 301 523 q 324 274 301 330 q 383 194 347 218 q 462 171 420 171 q 510 181 492 171 q 539 207 528 191 q 558 242 549 224 q 593 295 572 271 q 670 320 615 320 q 750 289 717 320 q 783 208 783 258 q 756 116 783 158 q 681 46 728 75 q 577 1 635 17 q 462 -15 520 -15 z "},"Ć":{"ha":806,"x_min":33,"x_max":783,"o":"m 462 -15 q 316 5 391 -15 q 177 73 241 24 q 73 208 113 122 q 33 426 33 294 q 73 646 33 560 q 177 781 113 732 q 316 849 241 829 q 462 868 391 868 q 578 852 522 868 q 682 807 635 837 q 756 737 728 778 q 783 645 783 696 q 750 564 783 595 q 670 533 717 533 q 593 558 615 533 q 558 611 572 583 q 539 646 549 630 q 510 673 528 663 q 462 683 492 683 q 383 659 420 683 q 324 579 347 635 q 301 426 301 523 q 324 274 301 330 q 383 194 347 218 q 462 171 420 171 q 510 181 492 171 q 539 207 528 191 q 558 242 549 224 q 593 295 572 271 q 670 320 615 320 q 750 289 717 320 q 783 208 783 258 q 756 116 783 158 q 681 46 728 75 q 577 1 635 17 q 462 -15 520 -15 m 444 910 q 409 921 422 910 q 397 950 397 932 q 424 1015 397 978 l 441 1038 q 502 1102 476 1085 q 582 1118 529 1118 l 620 1118 q 665 1103 649 1118 q 681 1067 681 1089 q 649 1009 681 1038 l 610 977 q 528 926 568 941 q 444 910 489 910 z "},"Č":{"ha":806,"x_min":33,"x_max":783,"o":"m 462 -15 q 316 5 391 -15 q 177 73 241 24 q 73 208 113 122 q 33 426 33 294 q 73 646 33 560 q 177 781 113 732 q 316 849 241 829 q 462 868 391 868 q 578 852 522 868 q 682 807 635 837 q 756 737 728 778 q 783 645 783 696 q 750 564 783 595 q 670 533 717 533 q 593 558 615 533 q 558 611 572 583 q 539 646 549 630 q 510 673 528 663 q 462 683 492 683 q 383 659 420 683 q 324 579 347 635 q 301 426 301 523 q 324 274 301 330 q 383 194 347 218 q 462 171 420 171 q 510 181 492 171 q 539 207 528 191 q 558 242 549 224 q 593 295 572 271 q 670 320 615 320 q 750 289 717 320 q 783 208 783 258 q 756 116 783 158 q 681 46 728 75 q 577 1 635 17 q 462 -15 520 -15 m 630 1016 l 615 999 q 545 934 578 957 q 462 912 513 912 q 378 934 411 912 q 308 999 344 957 l 293 1016 q 276 1053 276 1035 q 296 1097 276 1080 q 348 1113 316 1113 q 393 1099 374 1113 q 427 1065 411 1085 l 462 1022 l 496 1065 q 530 1099 511 1084 q 575 1113 549 1113 q 627 1097 607 1113 q 647 1053 647 1080 q 643 1035 647 1045 q 630 1016 640 1026 z "},"Ç":{"ha":806,"x_min":33,"x_max":783,"o":"m 429 -328 q 376 -325 399 -328 q 337 -315 353 -322 q 290 -256 290 -294 q 305 -219 290 -232 q 340 -206 321 -206 q 383 -213 358 -206 q 413 -218 397 -217 q 447 -219 428 -219 q 502 -211 482 -219 q 523 -187 523 -203 q 515 -172 523 -177 q 491 -167 506 -167 q 465 -169 478 -167 q 439 -174 451 -171 q 413 -181 426 -178 q 386 -183 399 -183 q 341 -167 356 -183 q 327 -128 327 -151 q 329 -112 327 -121 q 334 -97 331 -104 l 367 -7 q 246 31 306 3 q 138 109 186 58 q 62 237 90 159 q 33 426 33 315 q 73 646 33 560 q 177 781 113 732 q 316 849 241 829 q 462 868 391 868 q 578 852 522 868 q 682 807 635 837 q 756 737 728 778 q 783 645 783 696 q 750 564 783 595 q 670 533 717 533 q 593 558 615 533 q 558 611 572 583 q 539 646 549 630 q 510 673 528 663 q 462 683 492 683 q 383 659 420 683 q 324 579 347 635 q 301 426 301 523 q 324 274 301 330 q 383 194 347 218 q 462 171 420 171 q 510 181 492 171 q 539 207 528 191 q 558 242 549 224 q 593 295 572 271 q 670 320 615 320 q 750 289 717 320 q 783 208 783 258 q 759 123 783 162 q 695 55 735 84 q 604 9 655 26 q 499 -13 553 -8 l 467 -105 q 511 -83 488 -89 q 563 -76 535 -76 q 626 -87 594 -76 q 680 -122 658 -99 q 701 -183 701 -146 q 663 -264 701 -232 q 562 -312 624 -297 q 429 -328 500 -328 z "},"Ĉ":{"ha":806,"x_min":33,"x_max":783,"o":"m 462 -15 q 316 5 391 -15 q 177 73 241 24 q 73 208 113 122 q 33 426 33 294 q 73 646 33 560 q 177 781 113 732 q 316 849 241 829 q 462 868 391 868 q 578 852 522 868 q 682 807 635 837 q 756 737 728 778 q 783 645 783 696 q 750 564 783 595 q 670 533 717 533 q 593 558 615 533 q 558 611 572 583 q 539 646 549 630 q 510 673 528 663 q 462 683 492 683 q 383 659 420 683 q 324 579 347 635 q 301 426 301 523 q 324 274 301 330 q 383 194 347 218 q 462 171 420 171 q 510 181 492 171 q 539 207 528 191 q 558 242 549 224 q 593 295 572 271 q 670 320 615 320 q 750 289 717 320 q 783 208 783 258 q 756 116 783 158 q 681 46 728 75 q 577 1 635 17 q 462 -15 520 -15 m 631 1002 q 647 965 647 983 q 627 922 647 939 q 576 905 608 905 q 531 919 549 905 q 497 952 512 933 l 462 996 l 428 952 q 393 918 412 932 q 349 905 375 905 q 297 922 317 905 q 277 965 277 939 q 281 983 277 973 q 294 1002 285 992 l 308 1019 q 378 1083 345 1061 q 462 1106 411 1106 q 546 1084 513 1106 q 616 1019 578 1062 l 631 1002 z "},"Ċ":{"ha":806,"x_min":33,"x_max":783,"o":"m 462 -15 q 316 5 391 -15 q 177 73 241 24 q 73 208 113 122 q 33 426 33 294 q 73 646 33 560 q 177 781 113 732 q 316 849 241 829 q 462 868 391 868 q 578 852 522 868 q 682 807 635 837 q 756 737 728 778 q 783 645 783 696 q 750 564 783 595 q 670 533 717 533 q 593 558 615 533 q 558 611 572 583 q 539 646 549 630 q 510 673 528 663 q 462 683 492 683 q 383 659 420 683 q 324 579 347 635 q 301 426 301 523 q 324 274 301 330 q 383 194 347 218 q 462 171 420 171 q 510 181 492 171 q 539 207 528 191 q 558 242 549 224 q 593 295 572 271 q 670 320 615 320 q 750 289 717 320 q 783 208 783 258 q 756 116 783 158 q 681 46 728 75 q 577 1 635 17 q 462 -15 520 -15 m 462 913 q 373 949 409 913 q 336 1040 336 986 q 373 1130 336 1093 q 462 1167 409 1167 q 551 1130 515 1167 q 588 1040 588 1093 q 551 949 588 986 q 462 913 515 913 z "},"D":{"ha":835,"x_min":47,"x_max":802,"o":"m 358 860 q 456 853 399 860 q 573 824 513 847 q 685 756 633 802 q 770 630 738 709 q 802 430 802 551 q 770 230 802 309 q 685 104 738 151 q 573 35 633 58 q 456 7 513 13 q 358 0 399 0 l 192 0 q 47 146 47 0 l 47 715 q 192 860 47 860 l 358 860 m 358 185 q 435 199 402 185 q 490 243 468 213 q 524 319 513 272 q 535 430 535 365 q 524 541 535 495 q 490 617 513 588 q 435 660 468 647 q 358 674 402 674 l 311 674 l 311 185 l 358 185 z "},"Ð":{"ha":835,"x_min":-18,"x_max":802,"o":"m 127 351 q -18 430 -18 351 q 127 509 -18 509 l 339 509 q 485 430 485 509 q 339 351 485 351 l 127 351 m 358 860 q 456 853 399 860 q 573 824 513 847 q 685 756 633 802 q 770 630 738 709 q 802 430 802 551 q 770 230 802 309 q 685 104 738 151 q 573 35 633 58 q 456 7 513 13 q 358 0 399 0 l 192 0 q 47 146 47 0 l 47 715 q 192 860 47 860 l 358 860 m 358 185 q 435 199 402 185 q 490 243 468 213 q 524 319 513 272 q 535 430 535 365 q 524 541 535 495 q 490 617 513 588 q 435 660 468 647 q 358 674 402 674 l 311 674 l 311 185 l 358 185 z "},"Ď":{"ha":824,"x_min":47,"x_max":802,"o":"m 358 860 q 456 853 399 860 q 573 824 513 847 q 685 756 633 802 q 770 630 738 709 q 802 430 802 551 q 770 230 802 309 q 685 104 738 151 q 573 35 633 58 q 456 7 513 13 q 358 0 399 0 l 192 0 q 47 146 47 0 l 47 715 q 192 860 47 860 l 358 860 m 358 185 q 435 199 402 185 q 490 243 468 213 q 524 319 513 272 q 535 430 535 365 q 524 541 535 495 q 490 617 513 588 q 435 660 468 647 q 358 674 402 674 l 311 674 l 311 185 l 358 185 m 566 1016 l 551 999 q 481 934 514 957 q 398 912 449 912 q 314 934 347 912 q 244 999 281 957 l 229 1016 q 213 1053 213 1035 q 232 1097 213 1080 q 284 1113 252 1113 q 329 1099 310 1113 q 363 1065 347 1085 l 398 1022 l 432 1065 q 466 1099 447 1084 q 511 1113 485 1113 q 563 1097 543 1113 q 583 1053 583 1080 q 579 1035 583 1045 q 566 1016 576 1026 z "},"Đ":{"ha":824,"x_min":-18,"x_max":802,"o":"m 127 351 q -18 430 -18 351 q 127 509 -18 509 l 339 509 q 485 430 485 509 q 339 351 485 351 l 127 351 m 358 860 q 456 853 399 860 q 573 824 513 847 q 685 756 633 802 q 770 630 738 709 q 802 430 802 551 q 770 230 802 309 q 685 104 738 151 q 573 35 633 58 q 456 7 513 13 q 358 0 399 0 l 192 0 q 47 146 47 0 l 47 715 q 192 860 47 860 l 358 860 m 358 185 q 435 199 402 185 q 490 243 468 213 q 524 319 513 272 q 535 430 535 365 q 524 541 535 495 q 490 617 513 588 q 435 660 468 647 q 358 674 402 674 l 311 674 l 311 185 l 358 185 z "},"E":{"ha":755,"x_min":54,"x_max":715,"o":"m 715 767 q 576 674 715 674 l 319 674 l 319 521 l 517 521 q 616 497 588 521 q 643 428 643 474 q 616 360 643 383 q 517 336 588 336 l 319 336 l 319 185 l 576 185 q 715 92 715 185 q 576 0 715 0 l 200 0 q 54 146 54 0 l 54 715 q 200 860 54 860 l 576 860 q 715 767 715 860 z "},"É":{"ha":744,"x_min":54,"x_max":715,"o":"m 715 767 q 576 674 715 674 l 319 674 l 319 521 l 517 521 q 616 497 588 521 q 643 428 643 474 q 616 360 643 383 q 517 336 588 336 l 319 336 l 319 185 l 576 185 q 715 92 715 185 q 576 0 715 0 l 200 0 q 54 146 54 0 l 54 715 q 200 860 54 860 l 576 860 q 715 767 715 860 m 366 910 q 332 921 344 910 q 319 950 319 932 q 346 1015 319 978 l 363 1038 q 425 1102 398 1085 q 504 1118 451 1118 l 542 1118 q 587 1103 571 1118 q 603 1067 603 1089 q 571 1009 603 1038 l 533 977 q 451 926 490 941 q 366 910 411 910 z "},"Ĕ":{"ha":744,"x_min":54,"x_max":715,"o":"m 715 767 q 576 674 715 674 l 319 674 l 319 521 l 517 521 q 616 497 588 521 q 643 428 643 474 q 616 360 643 383 q 517 336 588 336 l 319 336 l 319 185 l 576 185 q 715 92 715 185 q 576 0 715 0 l 200 0 q 54 146 54 0 l 54 715 q 200 860 54 860 l 576 860 q 715 767 715 860 m 499 1110 q 551 1093 533 1110 q 569 1049 569 1076 q 560 1009 569 1031 q 528 965 551 987 q 469 927 505 942 q 382 911 433 911 q 305 923 338 911 q 248 954 272 935 q 209 1001 220 976 q 197 1047 197 1026 q 216 1092 197 1074 q 267 1110 235 1110 q 326 1093 309 1110 q 347 1056 343 1076 q 357 1035 350 1044 q 383 1026 363 1026 q 410 1035 403 1026 q 419 1056 417 1044 q 440 1093 422 1076 q 499 1110 457 1110 z "},"Ě":{"ha":744,"x_min":54,"x_max":715,"o":"m 715 767 q 576 674 715 674 l 319 674 l 319 521 l 517 521 q 616 497 588 521 q 643 428 643 474 q 616 360 643 383 q 517 336 588 336 l 319 336 l 319 185 l 576 185 q 715 92 715 185 q 576 0 715 0 l 200 0 q 54 146 54 0 l 54 715 q 200 860 54 860 l 576 860 q 715 767 715 860 m 552 1016 l 538 999 q 467 934 500 957 q 384 912 435 912 q 300 934 333 912 q 230 999 267 957 l 215 1016 q 199 1053 199 1035 q 218 1097 199 1080 q 270 1113 238 1113 q 315 1099 297 1113 q 349 1065 333 1085 l 384 1022 l 418 1065 q 452 1099 433 1084 q 497 1113 471 1113 q 549 1097 529 1113 q 569 1053 569 1080 q 565 1035 569 1045 q 552 1016 562 1026 z "},"Ê":{"ha":744,"x_min":54,"x_max":715,"o":"m 715 767 q 576 674 715 674 l 319 674 l 319 521 l 517 521 q 616 497 588 521 q 643 428 643 474 q 616 360 643 383 q 517 336 588 336 l 319 336 l 319 185 l 576 185 q 715 92 715 185 q 576 0 715 0 l 200 0 q 54 146 54 0 l 54 715 q 200 860 54 860 l 576 860 q 715 767 715 860 m 553 1002 q 569 965 569 983 q 550 922 569 939 q 498 905 530 905 q 453 919 472 905 q 419 952 434 933 l 384 996 l 350 952 q 316 918 334 932 q 271 905 297 905 q 219 922 239 905 q 199 965 199 939 q 203 983 199 973 q 216 1002 207 992 l 231 1019 q 300 1083 267 1061 q 384 1106 333 1106 q 468 1084 435 1106 q 538 1019 501 1062 l 553 1002 z "},"Ế":{"ha":755,"x_min":54,"x_max":770,"o":"m 715 767 q 576 674 715 674 l 319 674 l 319 521 l 517 521 q 616 497 588 521 q 643 428 643 474 q 616 360 643 383 q 517 336 588 336 l 319 336 l 319 185 l 576 185 q 715 92 715 185 q 576 0 715 0 l 200 0 q 54 146 54 0 l 54 715 q 200 860 54 860 l 576 860 q 715 767 715 860 m 553 1035 q 569 997 569 1017 q 550 955 569 972 q 498 938 530 938 q 453 952 472 938 q 419 985 434 967 l 384 1029 l 350 985 q 316 952 334 965 q 271 938 297 938 q 219 955 239 938 q 199 997 199 972 q 216 1035 199 1018 l 231 1052 q 300 1117 267 1094 q 384 1139 333 1139 q 468 1117 435 1139 q 538 1052 501 1094 l 553 1035 m 561 1079 q 530 1087 544 1079 q 517 1118 517 1095 q 537 1181 517 1144 l 551 1207 q 607 1273 579 1259 q 688 1287 635 1287 l 713 1287 q 756 1272 741 1287 q 770 1236 770 1258 q 736 1178 770 1207 l 672 1123 q 613 1087 640 1095 q 561 1079 585 1079 z "},"Ệ":{"ha":755,"x_min":54,"x_max":715,"o":"m 715 767 q 576 674 715 674 l 319 674 l 319 521 l 517 521 q 616 497 588 521 q 643 428 643 474 q 616 360 643 383 q 517 336 588 336 l 319 336 l 319 185 l 576 185 q 715 92 715 185 q 576 0 715 0 l 200 0 q 54 146 54 0 l 54 715 q 200 860 54 860 l 576 860 q 715 767 715 860 m 384 -298 q 295 -261 331 -298 q 258 -171 258 -224 q 295 -81 258 -117 q 384 -44 331 -44 q 473 -81 437 -44 q 510 -171 510 -117 q 473 -263 510 -228 q 384 -298 437 -298 m 553 1002 q 569 965 569 983 q 550 922 569 939 q 498 905 530 905 q 453 919 472 905 q 419 952 434 933 l 384 996 l 350 952 q 316 918 334 932 q 271 905 297 905 q 219 922 239 905 q 199 965 199 939 q 203 983 199 973 q 216 1002 207 992 l 231 1019 q 300 1083 267 1061 q 384 1106 333 1106 q 468 1084 435 1106 q 538 1019 501 1062 l 553 1002 z "},"Ề":{"ha":755,"x_min":54,"x_max":715,"o":"m 715 767 q 576 674 715 674 l 319 674 l 319 521 l 517 521 q 616 497 588 521 q 643 428 643 474 q 616 360 643 383 q 517 336 588 336 l 319 336 l 319 185 l 576 185 q 715 92 715 185 q 576 0 715 0 l 200 0 q 54 146 54 0 l 54 715 q 200 860 54 860 l 576 860 q 715 767 715 860 m 553 1035 q 569 997 569 1017 q 550 955 569 972 q 498 938 530 938 q 453 952 472 938 q 419 985 434 967 l 384 1029 l 350 985 q 316 952 334 965 q 271 938 297 938 q 219 955 239 938 q 199 997 199 972 q 216 1035 199 1018 l 231 1052 q 300 1117 267 1094 q 384 1139 333 1139 q 468 1117 435 1139 q 538 1052 501 1094 l 553 1035 m 629 1079 q 577 1087 605 1079 q 518 1123 550 1095 l 454 1178 q 420 1236 420 1207 q 435 1272 420 1258 q 478 1287 450 1287 l 502 1287 q 583 1273 555 1287 q 640 1207 612 1259 l 653 1181 q 674 1118 674 1144 q 660 1087 674 1095 q 629 1079 647 1079 z "},"Ể":{"ha":755,"x_min":54,"x_max":758,"o":"m 715 767 q 576 674 715 674 l 319 674 l 319 521 l 517 521 q 616 497 588 521 q 643 428 643 474 q 616 360 643 383 q 517 336 588 336 l 319 336 l 319 185 l 576 185 q 715 92 715 185 q 576 0 715 0 l 200 0 q 54 146 54 0 l 54 715 q 200 860 54 860 l 576 860 q 715 767 715 860 m 553 1035 q 569 997 569 1017 q 550 955 569 972 q 498 938 530 938 q 453 952 472 938 q 419 985 434 967 l 384 1029 l 350 985 q 316 952 334 965 q 271 938 297 938 q 219 955 239 938 q 199 997 199 972 q 216 1035 199 1018 l 231 1052 q 300 1117 267 1094 q 384 1139 333 1139 q 468 1117 435 1139 q 538 1052 501 1094 l 553 1035 m 547 1091 q 488 1140 488 1091 q 502 1178 488 1164 q 547 1192 516 1192 q 605 1205 576 1192 q 633 1238 633 1217 q 609 1266 633 1256 q 561 1275 585 1275 q 517 1270 534 1275 q 488 1260 501 1266 q 467 1255 479 1256 q 447 1254 455 1254 q 417 1265 430 1254 q 403 1296 403 1275 q 447 1352 403 1331 q 563 1374 490 1374 q 658 1362 613 1374 q 730 1319 702 1349 q 758 1235 758 1289 q 725 1149 758 1181 q 642 1104 691 1117 q 547 1091 593 1091 z "},"Ễ":{"ha":744,"x_min":54,"x_max":715,"o":"m 715 767 q 576 674 715 674 l 319 674 l 319 521 l 517 521 q 616 497 588 521 q 643 428 643 474 q 616 360 643 383 q 517 336 588 336 l 319 336 l 319 185 l 576 185 q 715 92 715 185 q 576 0 715 0 l 200 0 q 54 146 54 0 l 54 715 q 200 860 54 860 l 576 860 q 715 767 715 860 m 553 1002 q 569 965 569 983 q 550 922 569 939 q 498 905 530 905 q 453 919 472 905 q 419 952 434 933 l 384 996 l 350 952 q 316 918 334 932 q 271 905 297 905 q 219 922 239 905 q 199 965 199 939 q 203 983 199 973 q 216 1002 207 992 l 231 1019 q 300 1083 267 1061 q 384 1106 333 1106 q 468 1084 435 1106 q 538 1019 501 1062 l 553 1002 m 467 1162 q 409 1173 430 1162 q 370 1197 388 1183 q 344 1213 358 1206 q 311 1219 331 1219 q 277 1214 293 1219 q 247 1201 261 1209 q 226 1192 236 1196 q 206 1188 215 1188 q 180 1203 190 1188 q 169 1239 169 1218 q 213 1322 169 1283 q 251 1346 229 1337 q 300 1355 273 1355 q 358 1346 338 1355 q 393 1324 379 1338 q 418 1304 404 1313 q 456 1296 433 1296 q 487 1301 474 1296 q 511 1314 499 1306 q 528 1323 519 1319 q 550 1327 538 1327 q 583 1314 568 1327 q 599 1275 599 1301 q 577 1219 599 1245 q 533 1180 560 1198 q 467 1162 506 1162 z "},"Ȅ":{"ha":744,"x_min":54,"x_max":715,"o":"m 715 767 q 576 674 715 674 l 319 674 l 319 521 l 517 521 q 616 497 588 521 q 643 428 643 474 q 616 360 643 383 q 517 336 588 336 l 319 336 l 319 185 l 576 185 q 715 92 715 185 q 576 0 715 0 l 200 0 q 54 146 54 0 l 54 715 q 200 860 54 860 l 576 860 q 715 767 715 860 m 280 911 q 209 926 242 911 q 141 978 176 942 l 108 1010 q 88 1039 94 1024 q 81 1068 81 1054 q 95 1104 81 1090 q 132 1119 108 1119 l 164 1119 q 231 1103 208 1119 q 282 1039 254 1087 l 296 1015 q 319 951 319 976 q 309 922 319 933 q 280 911 299 911 m 524 911 q 453 926 487 911 q 385 978 420 942 l 353 1010 q 326 1068 326 1038 q 340 1104 326 1090 q 377 1119 353 1119 l 408 1119 q 475 1102 453 1119 q 526 1039 498 1086 l 541 1015 q 558 980 553 997 q 563 951 563 964 q 553 922 563 933 q 524 911 543 911 z "},"Ë":{"ha":744,"x_min":54,"x_max":715,"o":"m 715 767 q 576 674 715 674 l 319 674 l 319 521 l 517 521 q 616 497 588 521 q 643 428 643 474 q 616 360 643 383 q 517 336 588 336 l 319 336 l 319 185 l 576 185 q 715 92 715 185 q 576 0 715 0 l 200 0 q 54 146 54 0 l 54 715 q 200 860 54 860 l 576 860 q 715 767 715 860 m 231 914 q 141 950 178 914 q 105 1040 105 987 q 141 1131 105 1094 q 231 1168 178 1168 q 320 1131 283 1168 q 356 1040 356 1094 q 320 950 356 987 q 231 914 283 914 m 536 914 q 447 950 483 914 q 410 1040 410 987 q 447 1131 410 1094 q 536 1168 483 1168 q 626 1131 590 1168 q 663 1040 663 1094 q 626 950 663 987 q 536 914 590 914 z "},"Ė":{"ha":744,"x_min":54,"x_max":715,"o":"m 715 767 q 576 674 715 674 l 319 674 l 319 521 l 517 521 q 616 497 588 521 q 643 428 643 474 q 616 360 643 383 q 517 336 588 336 l 319 336 l 319 185 l 576 185 q 715 92 715 185 q 576 0 715 0 l 200 0 q 54 146 54 0 l 54 715 q 200 860 54 860 l 576 860 q 715 767 715 860 m 384 913 q 295 949 331 913 q 258 1040 258 986 q 295 1130 258 1093 q 384 1167 331 1167 q 473 1130 437 1167 q 510 1040 510 1093 q 473 949 510 986 q 384 913 437 913 z "},"Ẹ":{"ha":744,"x_min":54,"x_max":715,"o":"m 715 767 q 576 674 715 674 l 319 674 l 319 521 l 517 521 q 616 497 588 521 q 643 428 643 474 q 616 360 643 383 q 517 336 588 336 l 319 336 l 319 185 l 576 185 q 715 92 715 185 q 576 0 715 0 l 200 0 q 54 146 54 0 l 54 715 q 200 860 54 860 l 576 860 q 715 767 715 860 m 384 -298 q 295 -261 331 -298 q 258 -171 258 -224 q 295 -81 258 -117 q 384 -44 331 -44 q 473 -81 437 -44 q 510 -171 510 -117 q 473 -263 510 -228 q 384 -298 437 -298 z "},"È":{"ha":744,"x_min":54,"x_max":715,"o":"m 715 767 q 576 674 715 674 l 319 674 l 319 521 l 517 521 q 616 497 588 521 q 643 428 643 474 q 616 360 643 383 q 517 336 588 336 l 319 336 l 319 185 l 576 185 q 715 92 715 185 q 576 0 715 0 l 200 0 q 54 146 54 0 l 54 715 q 200 860 54 860 l 576 860 q 715 767 715 860 m 426 903 q 342 919 382 903 q 260 969 302 934 l 222 1002 q 189 1060 189 1030 q 206 1097 189 1082 q 250 1111 222 1111 l 288 1111 q 368 1095 341 1111 q 429 1031 395 1078 l 447 1007 q 473 942 473 970 q 461 914 473 925 q 426 903 449 903 z "},"Ẻ":{"ha":744,"x_min":54,"x_max":715,"o":"m 715 767 q 576 674 715 674 l 319 674 l 319 521 l 517 521 q 616 497 588 521 q 643 428 643 474 q 616 360 643 383 q 517 336 588 336 l 319 336 l 319 185 l 576 185 q 715 92 715 185 q 576 0 715 0 l 200 0 q 54 146 54 0 l 54 715 q 200 860 54 860 l 576 860 q 715 767 715 860 m 347 910 q 302 926 317 910 q 287 966 287 942 q 301 1008 287 990 q 347 1026 315 1026 q 400 1035 376 1026 q 425 1064 425 1044 q 401 1089 425 1083 q 353 1094 378 1094 q 310 1093 326 1094 q 278 1085 294 1091 q 261 1082 269 1083 q 247 1081 254 1081 q 216 1091 229 1081 q 203 1122 203 1102 q 246 1185 203 1163 q 362 1208 290 1208 q 459 1195 413 1208 q 535 1151 505 1183 q 565 1063 565 1119 q 529 974 565 1008 q 443 925 494 940 q 347 910 392 910 z "},"Ȇ":{"ha":744,"x_min":54,"x_max":715,"o":"m 715 767 q 576 674 715 674 l 319 674 l 319 521 l 517 521 q 616 497 588 521 q 643 428 643 474 q 616 360 643 383 q 517 336 588 336 l 319 336 l 319 185 l 576 185 q 715 92 715 185 q 576 0 715 0 l 200 0 q 54 146 54 0 l 54 715 q 200 860 54 860 l 576 860 q 715 767 715 860 m 499 905 q 440 922 457 905 q 419 959 422 940 q 410 980 417 970 q 383 989 403 989 q 357 980 363 989 q 347 959 350 970 q 326 922 343 939 q 267 905 309 905 q 216 923 235 905 q 197 968 197 941 q 209 1014 197 989 q 248 1060 220 1038 q 305 1091 272 1079 q 382 1103 338 1103 q 469 1088 433 1103 q 528 1049 505 1072 q 560 1006 551 1028 q 569 965 569 984 q 551 922 569 939 q 499 905 533 905 z "},"Ē":{"ha":744,"x_min":54,"x_max":715,"o":"m 715 767 q 576 674 715 674 l 319 674 l 319 521 l 517 521 q 616 497 588 521 q 643 428 643 474 q 616 360 643 383 q 517 336 588 336 l 319 336 l 319 185 l 576 185 q 715 92 715 185 q 576 0 715 0 l 200 0 q 54 146 54 0 l 54 715 q 200 860 54 860 l 576 860 q 715 767 715 860 m 100 988 q 130 1040 100 1020 q 225 1059 159 1059 l 540 1059 q 636 1040 606 1059 q 665 988 665 1020 q 636 935 665 955 q 540 916 606 916 l 225 916 q 130 935 159 916 q 100 988 100 955 z "},"Ę":{"ha":744,"x_min":54,"x_max":715,"o":"m 715 767 q 576 674 715 674 l 319 674 l 319 521 l 517 521 q 616 497 588 521 q 643 428 643 474 q 616 360 643 383 q 517 336 588 336 l 319 336 l 319 185 l 576 185 q 715 92 715 185 q 576 0 715 0 l 200 0 q 54 146 54 0 l 54 715 q 200 860 54 860 l 576 860 q 715 767 715 860 m 531 -339 q 426 -326 476 -339 q 347 -283 377 -314 q 316 -197 316 -251 q 330 -124 316 -158 q 366 -64 344 -90 q 413 -22 388 -38 q 461 0 438 -5 l 576 0 q 544 -31 562 -8 q 513 -83 526 -54 q 500 -138 500 -112 q 513 -180 500 -167 q 553 -193 526 -193 q 578 -191 562 -193 q 603 -186 594 -189 q 630 -181 617 -183 q 651 -180 642 -180 q 694 -198 682 -180 q 707 -243 707 -215 q 657 -315 707 -292 q 531 -339 607 -339 z "},"Ẽ":{"ha":744,"x_min":54,"x_max":715,"o":"m 715 767 q 576 674 715 674 l 319 674 l 319 521 l 517 521 q 616 497 588 521 q 643 428 643 474 q 616 360 643 383 q 517 336 588 336 l 319 336 l 319 185 l 576 185 q 715 92 715 185 q 576 0 715 0 l 200 0 q 54 146 54 0 l 54 715 q 200 860 54 860 l 576 860 q 715 767 715 860 m 467 916 q 409 927 430 916 q 370 951 388 938 q 344 967 358 960 q 311 974 331 974 q 277 968 293 974 q 247 956 261 963 q 226 946 236 950 q 206 942 215 942 q 180 957 190 942 q 169 993 169 972 q 213 1076 169 1037 q 251 1100 229 1091 q 300 1109 273 1109 q 358 1100 338 1109 q 393 1078 379 1092 q 418 1058 404 1067 q 456 1050 433 1050 q 487 1055 474 1050 q 511 1068 499 1060 q 528 1077 519 1074 q 550 1081 538 1081 q 583 1068 568 1081 q 599 1029 599 1056 q 577 974 599 999 q 533 934 560 952 q 467 916 506 916 z "},"Ə":{"ha":767,"x_min":33,"x_max":734,"o":"m 381 -15 q 203 26 282 -15 q 79 153 125 67 q 33 373 33 239 q 166 494 33 494 l 492 494 l 492 360 l 249 360 l 275 394 q 299 226 275 281 q 373 170 322 170 q 432 195 408 170 q 469 278 456 221 q 483 428 483 335 q 469 577 483 524 q 429 651 456 631 q 363 672 403 672 q 319 665 339 672 q 284 644 300 657 q 251 617 267 632 q 206 585 232 599 q 138 570 179 570 q 72 592 96 570 q 49 666 49 613 q 61 722 49 699 q 102 770 74 744 q 166 814 128 794 q 256 846 203 834 q 377 858 308 858 q 555 816 474 858 q 685 680 636 774 q 734 428 734 585 q 707 231 734 315 q 633 93 681 147 q 520 12 585 39 q 381 -15 456 -15 z "},"F":{"ha":717,"x_min":54,"x_max":676,"o":"m 676 767 q 641 698 676 722 q 544 674 606 674 l 319 674 l 319 450 l 499 450 q 618 357 618 450 q 499 265 618 265 l 319 265 l 319 132 q 186 -13 319 -13 q 54 132 54 -13 l 54 715 q 199 860 54 860 l 544 860 q 641 836 606 860 q 676 767 676 813 z "},"G":{"ha":869,"x_min":33,"x_max":835,"o":"m 449 -15 q 291 9 366 -15 q 158 86 216 33 q 67 222 100 138 q 33 427 33 306 q 69 631 33 547 q 167 768 106 715 q 306 844 228 820 q 467 868 384 868 q 608 850 542 868 q 726 788 674 831 q 773 734 758 763 q 788 677 788 705 q 753 602 788 632 q 676 572 719 572 q 619 585 646 572 q 573 618 592 599 q 528 658 556 637 q 469 680 501 680 q 386 656 426 680 q 323 577 347 632 q 298 427 298 522 q 321 272 298 326 q 383 195 344 217 q 466 174 421 174 q 527 191 503 174 q 564 238 551 209 q 576 298 576 266 l 533 298 q 452 319 483 298 q 421 386 421 340 q 450 453 421 433 q 531 474 480 474 l 703 474 q 805 440 774 474 q 835 342 835 406 q 785 149 835 228 q 647 27 734 69 q 449 -15 559 -15 z "},"Ğ":{"ha":858,"x_min":33,"x_max":835,"o":"m 449 -15 q 291 9 366 -15 q 158 86 216 33 q 67 222 100 138 q 33 427 33 306 q 69 631 33 547 q 167 768 106 715 q 306 844 228 820 q 467 868 384 868 q 608 850 542 868 q 726 788 674 831 q 773 734 758 763 q 788 677 788 705 q 753 602 788 632 q 676 572 719 572 q 619 585 646 572 q 573 618 592 599 q 528 658 556 637 q 469 680 501 680 q 386 656 426 680 q 323 577 347 632 q 298 427 298 522 q 321 272 298 326 q 383 195 344 217 q 466 174 421 174 q 527 191 503 174 q 564 238 551 209 q 576 298 576 266 l 533 298 q 452 319 483 298 q 421 386 421 340 q 450 453 421 433 q 531 474 480 474 l 703 474 q 805 440 774 474 q 835 342 835 406 q 785 149 835 228 q 647 27 734 69 q 449 -15 559 -15 m 576 1142 q 628 1125 610 1142 q 647 1081 647 1108 q 637 1041 647 1063 q 606 998 628 1019 q 546 959 582 975 q 459 944 510 944 q 382 956 415 944 q 325 987 349 968 q 286 1034 297 1009 q 274 1079 274 1058 q 293 1124 274 1106 q 344 1142 313 1142 q 403 1125 386 1142 q 424 1088 420 1108 q 434 1068 427 1077 q 460 1058 440 1058 q 487 1068 481 1058 q 496 1088 494 1077 q 517 1125 499 1108 q 576 1142 534 1142 z "},"Ǧ":{"ha":858,"x_min":33,"x_max":835,"o":"m 449 -15 q 291 9 366 -15 q 158 86 216 33 q 67 222 100 138 q 33 427 33 306 q 69 631 33 547 q 167 768 106 715 q 306 844 228 820 q 467 868 384 868 q 608 850 542 868 q 726 788 674 831 q 773 734 758 763 q 788 677 788 705 q 753 602 788 632 q 676 572 719 572 q 619 585 646 572 q 573 618 592 599 q 528 658 556 637 q 469 680 501 680 q 386 656 426 680 q 323 577 347 632 q 298 427 298 522 q 321 272 298 326 q 383 195 344 217 q 466 174 421 174 q 527 191 503 174 q 564 238 551 209 q 576 298 576 266 l 533 298 q 452 319 483 298 q 421 386 421 340 q 450 453 421 433 q 531 474 480 474 l 703 474 q 805 440 774 474 q 835 342 835 406 q 785 149 835 228 q 647 27 734 69 q 449 -15 559 -15 m 629 1016 l 615 999 q 544 934 577 957 q 461 912 512 912 q 377 934 410 912 q 307 999 344 957 l 292 1016 q 276 1053 276 1035 q 295 1097 276 1080 q 347 1113 315 1113 q 392 1099 374 1113 q 426 1065 410 1085 l 461 1022 l 495 1065 q 529 1099 510 1084 q 574 1113 548 1113 q 626 1097 606 1113 q 646 1053 646 1080 q 642 1035 646 1045 q 629 1016 639 1026 z "},"Ĝ":{"ha":858,"x_min":33,"x_max":835,"o":"m 449 -15 q 291 9 366 -15 q 158 86 216 33 q 67 222 100 138 q 33 427 33 306 q 69 631 33 547 q 167 768 106 715 q 306 844 228 820 q 467 868 384 868 q 608 850 542 868 q 726 788 674 831 q 773 734 758 763 q 788 677 788 705 q 753 602 788 632 q 676 572 719 572 q 619 585 646 572 q 573 618 592 599 q 528 658 556 637 q 469 680 501 680 q 386 656 426 680 q 323 577 347 632 q 298 427 298 522 q 321 272 298 326 q 383 195 344 217 q 466 174 421 174 q 527 191 503 174 q 564 238 551 209 q 576 298 576 266 l 533 298 q 452 319 483 298 q 421 386 421 340 q 450 453 421 433 q 531 474 480 474 l 703 474 q 805 440 774 474 q 835 342 835 406 q 785 149 835 228 q 647 27 734 69 q 449 -15 559 -15 m 630 1002 q 647 965 647 983 q 627 922 647 939 q 575 905 607 905 q 530 919 549 905 q 496 952 511 933 l 461 996 l 427 952 q 393 918 411 932 q 348 905 374 905 q 296 922 316 905 q 276 965 276 939 q 280 983 276 973 q 293 1002 284 992 l 308 1019 q 377 1083 344 1061 q 461 1106 410 1106 q 545 1084 513 1106 q 615 1019 578 1062 l 630 1002 z "},"Ģ":{"ha":858,"x_min":33,"x_max":835,"o":"m 449 -15 q 291 9 366 -15 q 158 86 216 33 q 67 222 100 138 q 33 427 33 306 q 69 631 33 547 q 167 768 106 715 q 306 844 228 820 q 467 868 384 868 q 608 850 542 868 q 726 788 674 831 q 773 734 758 763 q 788 677 788 705 q 753 602 788 632 q 676 572 719 572 q 619 585 646 572 q 573 618 592 599 q 528 658 556 637 q 469 680 501 680 q 386 656 426 680 q 323 577 347 632 q 298 427 298 522 q 321 272 298 326 q 383 195 344 217 q 466 174 421 174 q 527 191 503 174 q 564 238 551 209 q 576 298 576 266 l 533 298 q 452 319 483 298 q 421 386 421 340 q 450 453 421 433 q 531 474 480 474 l 703 474 q 805 440 774 474 q 835 342 835 406 q 785 149 835 228 q 647 27 734 69 q 449 -15 559 -15 m 470 -58 q 531 -82 505 -58 q 556 -144 556 -106 q 541 -228 556 -174 q 478 -330 526 -283 q 447 -355 462 -347 q 422 -362 432 -362 q 410 -358 414 -362 q 406 -349 406 -353 q 416 -327 406 -341 q 445 -294 426 -314 q 468 -261 459 -278 q 483 -227 478 -244 q 476 -227 480 -227 q 470 -227 473 -227 q 410 -203 434 -227 q 385 -142 385 -178 q 410 -82 385 -107 q 470 -58 434 -58 z "},"Ġ":{"ha":858,"x_min":33,"x_max":835,"o":"m 449 -15 q 291 9 366 -15 q 158 86 216 33 q 67 222 100 138 q 33 427 33 306 q 69 631 33 547 q 167 768 106 715 q 306 844 228 820 q 467 868 384 868 q 608 850 542 868 q 726 788 674 831 q 773 734 758 763 q 788 677 788 705 q 753 602 788 632 q 676 572 719 572 q 619 585 646 572 q 573 618 592 599 q 528 658 556 637 q 469 680 501 680 q 386 656 426 680 q 323 577 347 632 q 298 427 298 522 q 321 272 298 326 q 383 195 344 217 q 466 174 421 174 q 527 191 503 174 q 564 238 551 209 q 576 298 576 266 l 533 298 q 452 319 483 298 q 421 386 421 340 q 450 453 421 433 q 531 474 480 474 l 703 474 q 805 440 774 474 q 835 342 835 406 q 785 149 835 228 q 647 27 734 69 q 449 -15 559 -15 m 461 934 q 372 971 408 934 q 335 1061 335 1008 q 372 1151 335 1115 q 461 1188 408 1188 q 550 1151 514 1188 q 587 1061 587 1115 q 550 971 587 1008 q 461 934 514 934 z "},"H":{"ha":840,"x_min":54,"x_max":786,"o":"m 522 721 q 654 867 522 867 q 786 721 786 867 l 786 132 q 654 -13 786 -13 q 522 132 522 -13 l 522 340 l 319 340 l 319 132 q 187 -13 319 -13 q 54 132 54 -13 l 54 721 q 88 829 54 792 q 187 867 122 867 q 319 721 319 867 l 319 525 l 522 525 l 522 721 z "},"Ħ":{"ha":840,"x_min":-15,"x_max":856,"o":"m -15 683 q 13 742 -15 722 q 111 762 40 762 l 731 762 q 828 742 801 762 q 856 683 856 722 q 828 625 856 645 q 731 604 801 604 l 111 604 q 13 625 40 604 q -15 683 -15 645 m 522 721 q 654 867 522 867 q 786 721 786 867 l 786 132 q 654 -13 786 -13 q 522 132 522 -13 l 522 340 l 319 340 l 319 132 q 187 -13 319 -13 q 54 132 54 -13 l 54 721 q 88 829 54 792 q 187 867 122 867 q 319 721 319 867 l 319 525 l 522 525 l 522 721 z "},"Ĥ":{"ha":829,"x_min":54,"x_max":786,"o":"m 522 721 q 654 867 522 867 q 786 721 786 867 l 786 132 q 654 -13 786 -13 q 522 132 522 -13 l 522 340 l 319 340 l 319 132 q 187 -13 319 -13 q 54 132 54 -13 l 54 721 q 88 829 54 792 q 187 867 122 867 q 319 721 319 867 l 319 525 l 522 525 l 522 721 m 595 1002 q 612 965 612 983 q 592 922 612 939 q 540 905 572 905 q 495 919 514 905 q 461 952 476 933 l 426 996 l 392 952 q 358 918 376 932 q 313 905 340 905 q 261 922 281 905 q 242 965 242 939 q 245 983 242 973 q 258 1002 249 992 l 273 1019 q 343 1083 310 1061 q 426 1106 376 1106 q 510 1084 478 1106 q 581 1019 543 1062 l 595 1002 z "},"I":{"ha":710,"x_min":40,"x_max":669,"o":"m 158 0 q 72 24 103 0 q 40 92 40 48 q 72 161 40 138 q 158 185 103 185 l 229 185 l 229 674 l 158 674 q 72 698 103 674 q 40 767 40 722 q 72 836 40 813 q 158 860 103 860 l 551 860 q 638 836 607 860 q 669 767 669 813 q 638 698 669 722 q 551 674 607 674 l 481 674 l 481 185 l 551 185 q 638 161 607 185 q 669 92 669 138 q 638 24 669 48 q 551 0 607 0 l 158 0 z "},"Í":{"ha":699,"x_min":40,"x_max":669,"o":"m 158 0 q 72 24 103 0 q 40 92 40 48 q 72 161 40 138 q 158 185 103 185 l 229 185 l 229 674 l 158 674 q 72 698 103 674 q 40 767 40 722 q 72 836 40 813 q 158 860 103 860 l 551 860 q 638 836 607 860 q 669 767 669 813 q 638 698 669 722 q 551 674 607 674 l 481 674 l 481 185 l 551 185 q 638 161 607 185 q 669 92 669 138 q 638 24 669 48 q 551 0 607 0 l 158 0 m 339 910 q 305 921 317 910 q 292 950 292 932 q 319 1015 292 978 l 336 1038 q 398 1102 371 1085 q 477 1118 424 1118 l 515 1118 q 560 1103 544 1118 q 576 1067 576 1089 q 544 1009 576 1038 l 506 977 q 424 926 463 941 q 339 910 384 910 z "},"Ĭ":{"ha":699,"x_min":40,"x_max":669,"o":"m 158 0 q 72 24 103 0 q 40 92 40 48 q 72 161 40 138 q 158 185 103 185 l 229 185 l 229 674 l 158 674 q 72 698 103 674 q 40 767 40 722 q 72 836 40 813 q 158 860 103 860 l 551 860 q 638 836 607 860 q 669 767 669 813 q 638 698 669 722 q 551 674 607 674 l 481 674 l 481 185 l 551 185 q 638 161 607 185 q 669 92 669 138 q 638 24 669 48 q 551 0 607 0 l 158 0 m 472 1110 q 524 1093 506 1110 q 542 1049 542 1076 q 533 1009 542 1031 q 501 965 524 987 q 442 927 478 942 q 355 911 406 911 q 277 923 310 911 q 221 954 244 935 q 182 1001 193 976 q 170 1047 170 1026 q 189 1092 170 1074 q 240 1110 208 1110 q 299 1093 282 1110 q 320 1056 316 1076 q 330 1035 323 1044 q 356 1026 336 1026 q 383 1035 376 1026 q 392 1056 390 1044 q 413 1093 395 1076 q 472 1110 430 1110 z "},"Ǐ":{"ha":699,"x_min":40,"x_max":669,"o":"m 158 0 q 72 24 103 0 q 40 92 40 48 q 72 161 40 138 q 158 185 103 185 l 229 185 l 229 674 l 158 674 q 72 698 103 674 q 40 767 40 722 q 72 836 40 813 q 158 860 103 860 l 551 860 q 638 836 607 860 q 669 767 669 813 q 638 698 669 722 q 551 674 607 674 l 481 674 l 481 185 l 551 185 q 638 161 607 185 q 669 92 669 138 q 638 24 669 48 q 551 0 607 0 l 158 0 m 525 1016 l 510 999 q 440 934 473 957 q 357 912 408 912 q 273 934 306 912 q 203 999 240 957 l 188 1016 q 172 1053 172 1035 q 191 1097 172 1080 q 243 1113 211 1113 q 288 1099 269 1113 q 322 1065 306 1085 l 357 1022 l 391 1065 q 425 1099 406 1084 q 470 1113 444 1113 q 522 1097 502 1113 q 542 1053 542 1080 q 538 1035 542 1045 q 525 1016 535 1026 z "},"Î":{"ha":699,"x_min":40,"x_max":669,"o":"m 158 0 q 72 24 103 0 q 40 92 40 48 q 72 161 40 138 q 158 185 103 185 l 229 185 l 229 674 l 158 674 q 72 698 103 674 q 40 767 40 722 q 72 836 40 813 q 158 860 103 860 l 551 860 q 638 836 607 860 q 669 767 669 813 q 638 698 669 722 q 551 674 607 674 l 481 674 l 481 185 l 551 185 q 638 161 607 185 q 669 92 669 138 q 638 24 669 48 q 551 0 607 0 l 158 0 m 526 1002 q 542 965 542 983 q 523 922 542 939 q 471 905 503 905 q 426 919 444 905 q 392 952 407 933 l 357 996 l 323 952 q 289 918 307 932 q 244 905 270 905 q 192 922 212 905 q 172 965 172 939 q 176 983 172 973 q 189 1002 180 992 l 203 1019 q 273 1083 240 1061 q 357 1106 306 1106 q 441 1084 408 1106 q 511 1019 474 1062 l 526 1002 z "},"Ȉ":{"ha":699,"x_min":40,"x_max":669,"o":"m 158 0 q 72 24 103 0 q 40 92 40 48 q 72 161 40 138 q 158 185 103 185 l 229 185 l 229 674 l 158 674 q 72 698 103 674 q 40 767 40 722 q 72 836 40 813 q 158 860 103 860 l 551 860 q 638 836 607 860 q 669 767 669 813 q 638 698 669 722 q 551 674 607 674 l 481 674 l 481 185 l 551 185 q 638 161 607 185 q 669 92 669 138 q 638 24 669 48 q 551 0 607 0 l 158 0 m 253 911 q 182 926 215 911 q 114 978 149 942 l 81 1010 q 60 1039 67 1024 q 54 1068 54 1054 q 68 1104 54 1090 q 105 1119 81 1119 l 137 1119 q 204 1103 181 1119 q 255 1039 227 1087 l 269 1015 q 292 951 292 976 q 282 922 292 933 q 253 911 272 911 m 497 911 q 426 926 460 911 q 358 978 393 942 l 326 1010 q 299 1068 299 1038 q 313 1104 299 1090 q 350 1119 326 1119 l 381 1119 q 448 1102 426 1119 q 499 1039 471 1086 l 514 1015 q 531 980 526 997 q 535 951 535 964 q 526 922 535 933 q 497 911 516 911 z "},"Ï":{"ha":699,"x_min":40,"x_max":669,"o":"m 158 0 q 72 24 103 0 q 40 92 40 48 q 72 161 40 138 q 158 185 103 185 l 229 185 l 229 674 l 158 674 q 72 698 103 674 q 40 767 40 722 q 72 836 40 813 q 158 860 103 860 l 551 860 q 638 836 607 860 q 669 767 669 813 q 638 698 669 722 q 551 674 607 674 l 481 674 l 481 185 l 551 185 q 638 161 607 185 q 669 92 669 138 q 638 24 669 48 q 551 0 607 0 l 158 0 m 203 914 q 114 950 151 914 q 78 1040 78 987 q 114 1131 78 1094 q 203 1168 151 1168 q 293 1131 256 1168 q 329 1040 329 1094 q 293 950 329 987 q 203 914 256 914 m 509 914 q 420 950 456 914 q 383 1040 383 987 q 420 1131 383 1094 q 509 1168 456 1168 q 599 1131 563 1168 q 636 1040 636 1094 q 599 950 636 987 q 509 914 563 914 z "},"İ":{"ha":699,"x_min":40,"x_max":669,"o":"m 158 0 q 72 24 103 0 q 40 92 40 48 q 72 161 40 138 q 158 185 103 185 l 229 185 l 229 674 l 158 674 q 72 698 103 674 q 40 767 40 722 q 72 836 40 813 q 158 860 103 860 l 551 860 q 638 836 607 860 q 669 767 669 813 q 638 698 669 722 q 551 674 607 674 l 481 674 l 481 185 l 551 185 q 638 161 607 185 q 669 92 669 138 q 638 24 669 48 q 551 0 607 0 l 158 0 m 357 913 q 268 949 304 913 q 231 1040 231 986 q 268 1130 231 1093 q 357 1167 304 1167 q 446 1130 410 1167 q 483 1040 483 1093 q 446 949 483 986 q 357 913 410 913 z "},"Ị":{"ha":699,"x_min":40,"x_max":669,"o":"m 158 0 q 72 24 103 0 q 40 92 40 48 q 72 161 40 138 q 158 185 103 185 l 229 185 l 229 674 l 158 674 q 72 698 103 674 q 40 767 40 722 q 72 836 40 813 q 158 860 103 860 l 551 860 q 638 836 607 860 q 669 767 669 813 q 638 698 669 722 q 551 674 607 674 l 481 674 l 481 185 l 551 185 q 638 161 607 185 q 669 92 669 138 q 638 24 669 48 q 551 0 607 0 l 158 0 m 357 -298 q 268 -261 304 -298 q 231 -171 231 -224 q 268 -81 231 -117 q 357 -44 304 -44 q 446 -81 410 -44 q 483 -171 483 -117 q 446 -263 483 -228 q 357 -298 410 -298 z "},"Ì":{"ha":699,"x_min":40,"x_max":669,"o":"m 158 0 q 72 24 103 0 q 40 92 40 48 q 72 161 40 138 q 158 185 103 185 l 229 185 l 229 674 l 158 674 q 72 698 103 674 q 40 767 40 722 q 72 836 40 813 q 158 860 103 860 l 551 860 q 638 836 607 860 q 669 767 669 813 q 638 698 669 722 q 551 674 607 674 l 481 674 l 481 185 l 551 185 q 638 161 607 185 q 669 92 669 138 q 638 24 669 48 q 551 0 607 0 l 158 0 m 399 903 q 315 919 355 903 q 233 969 275 934 l 194 1002 q 162 1060 162 1030 q 178 1097 162 1082 q 223 1111 195 1111 l 261 1111 q 341 1095 314 1111 q 402 1031 368 1078 l 419 1007 q 446 942 446 970 q 434 914 446 925 q 399 903 422 903 z "},"Ỉ":{"ha":699,"x_min":40,"x_max":669,"o":"m 158 0 q 72 24 103 0 q 40 92 40 48 q 72 161 40 138 q 158 185 103 185 l 229 185 l 229 674 l 158 674 q 72 698 103 674 q 40 767 40 722 q 72 836 40 813 q 158 860 103 860 l 551 860 q 638 836 607 860 q 669 767 669 813 q 638 698 669 722 q 551 674 607 674 l 481 674 l 481 185 l 551 185 q 638 161 607 185 q 669 92 669 138 q 638 24 669 48 q 551 0 607 0 l 158 0 m 319 910 q 275 926 290 910 q 260 966 260 942 q 274 1008 260 990 q 319 1026 288 1026 q 373 1035 349 1026 q 398 1064 398 1044 q 374 1089 398 1083 q 326 1094 351 1094 q 283 1093 299 1094 q 251 1085 267 1091 q 234 1082 242 1083 q 219 1081 227 1081 q 189 1091 202 1081 q 176 1122 176 1102 q 219 1185 176 1163 q 335 1208 263 1208 q 432 1195 385 1208 q 508 1151 478 1183 q 538 1063 538 1119 q 502 974 538 1008 q 416 925 467 940 q 319 910 365 910 z "},"Ȋ":{"ha":699,"x_min":40,"x_max":669,"o":"m 158 0 q 72 24 103 0 q 40 92 40 48 q 72 161 40 138 q 158 185 103 185 l 229 185 l 229 674 l 158 674 q 72 698 103 674 q 40 767 40 722 q 72 836 40 813 q 158 860 103 860 l 551 860 q 638 836 607 860 q 669 767 669 813 q 638 698 669 722 q 551 674 607 674 l 481 674 l 481 185 l 551 185 q 638 161 607 185 q 669 92 669 138 q 638 24 669 48 q 551 0 607 0 l 158 0 m 472 905 q 413 922 430 905 q 392 959 395 940 q 383 980 390 970 q 356 989 376 989 q 330 980 336 989 q 320 959 323 970 q 299 922 316 939 q 240 905 282 905 q 189 923 208 905 q 170 968 170 941 q 182 1014 170 989 q 221 1060 193 1038 q 277 1091 244 1079 q 355 1103 310 1103 q 442 1088 406 1103 q 501 1049 478 1072 q 533 1006 524 1028 q 542 965 542 984 q 524 922 542 939 q 472 905 506 905 z "},"Ī":{"ha":699,"x_min":40,"x_max":669,"o":"m 158 0 q 72 24 103 0 q 40 92 40 48 q 72 161 40 138 q 158 185 103 185 l 229 185 l 229 674 l 158 674 q 72 698 103 674 q 40 767 40 722 q 72 836 40 813 q 158 860 103 860 l 551 860 q 638 836 607 860 q 669 767 669 813 q 638 698 669 722 q 551 674 607 674 l 481 674 l 481 185 l 551 185 q 638 161 607 185 q 669 92 669 138 q 638 24 669 48 q 551 0 607 0 l 158 0 m 73 988 q 102 1040 73 1020 q 198 1059 132 1059 l 513 1059 q 609 1040 579 1059 q 638 988 638 1020 q 609 935 638 955 q 513 916 579 916 l 198 916 q 102 935 132 916 q 73 988 73 955 z "},"Į":{"ha":710,"x_min":40,"x_max":670,"o":"m 158 0 q 72 24 103 0 q 40 92 40 48 q 72 161 40 138 q 158 185 103 185 l 229 185 l 229 674 l 158 674 q 72 698 103 674 q 40 767 40 722 q 72 836 40 813 q 158 860 103 860 l 551 860 q 638 836 607 860 q 669 767 669 813 q 638 698 669 722 q 551 674 607 674 l 481 674 l 481 185 l 551 185 q 638 161 607 185 q 669 92 669 138 q 638 24 669 48 q 551 0 607 0 l 158 0 m 494 -339 q 390 -326 439 -339 q 310 -283 340 -314 q 279 -197 279 -251 q 293 -124 279 -158 q 329 -64 307 -90 q 376 -22 351 -38 q 424 0 401 -5 l 539 0 q 507 -31 525 -8 q 476 -83 490 -54 q 463 -138 463 -112 q 476 -180 463 -167 q 516 -193 490 -193 q 541 -191 525 -193 q 567 -186 558 -189 q 593 -181 581 -183 q 615 -180 605 -180 q 658 -198 645 -180 q 670 -243 670 -215 q 620 -315 670 -292 q 494 -339 570 -339 z "},"Ĩ":{"ha":710,"x_min":40,"x_max":669,"o":"m 158 0 q 72 24 103 0 q 40 92 40 48 q 72 161 40 138 q 158 185 103 185 l 229 185 l 229 674 l 158 674 q 72 698 103 674 q 40 767 40 722 q 72 836 40 813 q 158 860 103 860 l 551 860 q 638 836 607 860 q 669 767 669 813 q 638 698 669 722 q 551 674 607 674 l 481 674 l 481 185 l 551 185 q 638 161 607 185 q 669 92 669 138 q 638 24 669 48 q 551 0 607 0 l 158 0 m 440 916 q 382 927 403 916 q 343 951 361 938 q 317 967 331 960 q 284 974 303 974 q 250 968 266 974 q 220 956 234 963 q 199 946 209 950 q 179 942 188 942 q 153 957 163 942 q 142 993 142 972 q 185 1076 142 1037 q 224 1100 202 1091 q 273 1109 246 1109 q 331 1100 310 1109 q 366 1078 352 1092 q 391 1058 377 1067 q 429 1050 406 1050 q 460 1055 447 1050 q 484 1068 472 1060 q 501 1077 492 1074 q 523 1081 510 1081 q 556 1068 541 1081 q 572 1029 572 1056 q 550 974 572 999 q 506 934 533 952 q 440 916 478 916 z "},"J":{"ha":742,"x_min":26,"x_max":694,"o":"m 356 -15 q 194 14 269 -15 q 73 101 119 42 q 26 250 26 160 q 60 340 26 303 q 147 376 94 376 q 244 342 213 376 q 292 242 275 308 q 308 200 300 215 q 328 177 316 184 q 362 171 341 171 q 397 187 381 171 q 421 246 412 203 q 430 369 430 289 l 430 715 q 562 860 430 860 q 694 715 694 860 l 694 352 q 649 129 694 208 q 526 17 603 49 q 356 -15 449 -15 z "},"Ĵ":{"ha":742,"x_min":26,"x_max":747,"o":"m 356 -15 q 194 14 269 -15 q 73 101 119 42 q 26 250 26 160 q 60 340 26 303 q 147 376 94 376 q 244 342 213 376 q 292 242 275 308 q 308 200 300 215 q 328 177 316 184 q 362 171 341 171 q 397 187 381 171 q 421 246 412 203 q 430 369 430 289 l 430 715 q 562 860 430 860 q 694 715 694 860 l 694 352 q 649 129 694 208 q 526 17 603 49 q 356 -15 449 -15 m 731 1002 q 747 965 747 983 q 727 922 747 939 q 676 905 708 905 q 631 919 649 905 q 597 952 612 933 l 562 996 l 528 952 q 493 918 512 932 q 449 905 475 905 q 397 922 417 905 q 377 965 377 939 q 381 983 377 973 q 394 1002 385 992 l 408 1019 q 478 1083 445 1061 q 562 1106 511 1106 q 646 1084 613 1106 q 716 1019 678 1062 l 731 1002 z "},"K":{"ha":805,"x_min":54,"x_max":772,"o":"m 186 -13 q 54 132 54 -13 l 54 721 q 88 829 54 792 q 186 867 122 867 q 319 721 319 867 l 319 524 l 497 764 q 569 839 533 812 q 663 867 606 867 q 745 841 718 867 q 772 772 772 816 q 763 726 772 746 q 736 684 754 706 l 605 523 q 553 463 574 485 q 524 435 533 441 q 553 404 533 428 q 610 335 574 381 l 735 176 q 762 131 755 151 q 769 83 769 110 q 738 13 769 40 q 652 -13 706 -13 q 563 10 596 -13 q 497 82 531 33 l 319 335 l 319 132 q 186 -13 319 -13 z "},"Ķ":{"ha":805,"x_min":54,"x_max":772,"o":"m 186 -13 q 54 132 54 -13 l 54 721 q 88 829 54 792 q 186 867 122 867 q 319 721 319 867 l 319 524 l 497 764 q 569 839 533 812 q 663 867 606 867 q 745 841 718 867 q 772 772 772 816 q 763 726 772 746 q 736 684 754 706 l 605 523 q 553 463 574 485 q 524 435 533 441 q 553 404 533 428 q 610 335 574 381 l 735 176 q 762 131 755 151 q 769 83 769 110 q 738 13 769 40 q 652 -13 706 -13 q 563 10 596 -13 q 497 82 531 33 l 319 335 l 319 132 q 186 -13 319 -13 m 388 -43 q 449 -67 423 -43 q 474 -129 474 -91 q 459 -214 474 -160 q 397 -315 444 -268 q 365 -340 380 -333 q 340 -348 350 -348 q 328 -343 332 -348 q 324 -334 324 -339 q 334 -313 324 -326 q 363 -280 344 -299 q 386 -247 377 -264 q 401 -212 396 -230 q 394 -212 398 -212 q 388 -212 391 -212 q 328 -188 352 -212 q 303 -128 303 -164 q 328 -68 303 -92 q 388 -43 352 -43 z "},"L":{"ha":662,"x_min":47,"x_max":635,"o":"m 312 185 l 503 185 q 600 161 564 185 q 635 92 635 138 q 600 24 635 48 q 503 0 564 0 l 193 0 q 47 146 47 0 l 47 721 q 180 867 47 867 q 312 721 312 867 l 312 185 z "},"Ĺ":{"ha":662,"x_min":47,"x_max":635,"o":"m 312 185 l 503 185 q 600 161 564 185 q 635 92 635 138 q 600 24 635 48 q 503 0 564 0 l 193 0 q 47 146 47 0 l 47 721 q 180 867 47 867 q 312 721 312 867 l 312 185 m 95 944 q 64 952 78 944 q 51 983 51 960 q 71 1047 51 1009 l 85 1072 q 141 1138 113 1124 q 222 1152 169 1152 l 247 1152 q 290 1138 275 1152 q 304 1101 304 1123 q 270 1043 304 1072 l 206 988 q 147 952 174 960 q 95 944 119 944 z "},"Ľ":{"ha":662,"x_min":47,"x_max":635,"o":"m 312 185 l 503 185 q 600 161 564 185 q 635 92 635 138 q 600 24 635 48 q 503 0 564 0 l 193 0 q 47 146 47 0 l 47 721 q 180 867 47 867 q 312 721 312 867 l 312 185 m 485 576 q 429 609 446 576 q 412 688 412 642 q 412 704 412 696 q 414 725 413 713 q 417 756 415 737 q 423 802 419 774 q 524 934 439 934 q 594 908 567 934 q 622 836 622 881 q 620 813 622 824 q 615 787 619 801 q 605 750 611 772 q 587 694 598 728 q 485 576 549 576 z "},"Ļ":{"ha":662,"x_min":47,"x_max":635,"o":"m 312 185 l 503 185 q 600 161 564 185 q 635 92 635 138 q 600 24 635 48 q 503 0 564 0 l 193 0 q 47 146 47 0 l 47 721 q 180 867 47 867 q 312 721 312 867 l 312 185 m 363 -43 q 423 -67 397 -43 q 449 -129 449 -91 q 433 -214 449 -160 q 371 -315 418 -268 q 339 -340 354 -333 q 314 -348 324 -348 q 302 -343 306 -348 q 298 -334 298 -339 q 308 -313 298 -326 q 338 -280 319 -299 q 361 -247 351 -264 q 375 -212 370 -230 q 369 -212 372 -212 q 363 -212 365 -212 q 302 -188 326 -212 q 278 -128 278 -164 q 302 -68 278 -92 q 363 -43 326 -43 z "},"Ŀ":{"ha":871,"x_min":47,"x_max":881,"o":"m 756 339 q 666 376 703 339 q 630 465 630 413 q 666 556 630 519 q 756 592 703 592 q 845 556 808 592 q 881 465 881 519 q 845 376 881 413 q 756 339 808 339 m 312 185 l 503 185 q 600 161 564 185 q 635 92 635 138 q 600 24 635 48 q 503 0 564 0 l 193 0 q 47 146 47 0 l 47 721 q 180 867 47 867 q 312 721 312 867 l 312 185 z "},"Ł":{"ha":871,"x_min":47,"x_max":635,"o":"m 162 219 q 99 247 124 219 q 74 307 74 274 q 153 421 74 365 l 403 599 q 508 641 463 641 q 570 613 545 641 q 596 552 596 585 q 517 439 596 495 l 267 261 q 162 219 208 219 m 312 185 l 503 185 q 600 161 564 185 q 635 92 635 138 q 600 24 635 48 q 503 0 564 0 l 193 0 q 47 146 47 0 l 47 721 q 180 867 47 867 q 312 721 312 867 l 312 185 z "},"M":{"ha":1001,"x_min":54,"x_max":947,"o":"m 183 -7 q 90 26 126 -7 q 54 120 54 59 q 54 173 54 138 q 54 255 54 208 q 54 352 54 301 q 54 457 54 404 q 54 556 54 509 q 54 640 54 603 q 54 698 54 677 q 80 798 54 759 q 145 855 105 836 q 232 873 186 873 l 240 873 q 359 824 308 873 q 428 709 410 776 l 501 444 l 575 709 q 645 826 594 778 q 763 873 695 873 l 770 873 q 857 855 816 873 q 922 798 897 836 q 947 698 947 759 q 947 640 947 677 q 947 556 947 603 q 947 457 947 509 q 947 352 947 404 q 947 255 947 301 q 947 173 947 208 q 947 120 947 138 q 915 26 947 59 q 824 -7 882 -7 q 694 138 694 -7 l 694 460 l 617 222 q 572 125 595 157 q 501 92 549 92 q 431 125 453 92 q 385 222 408 157 l 306 464 l 306 138 q 277 30 306 67 q 183 -7 248 -7 z "},"N":{"ha":842,"x_min":54,"x_max":788,"o":"m 170 0 q 54 146 54 0 l 54 701 q 106 816 54 772 q 228 860 157 860 l 234 860 q 349 824 300 860 q 421 724 398 788 l 551 368 l 551 715 q 670 860 551 860 q 756 823 724 860 q 788 715 788 785 l 788 146 q 744 37 788 74 q 630 0 701 0 l 628 0 q 514 33 563 0 q 441 128 466 66 l 285 514 l 285 146 q 170 0 285 0 z "},"Ń":{"ha":842,"x_min":54,"x_max":788,"o":"m 170 0 q 54 146 54 0 l 54 701 q 106 816 54 772 q 228 860 157 860 l 234 860 q 349 824 300 860 q 421 724 398 788 l 551 368 l 551 715 q 670 860 551 860 q 756 823 724 860 q 788 715 788 785 l 788 146 q 744 37 788 74 q 630 0 701 0 l 628 0 q 514 33 563 0 q 441 128 466 66 l 285 514 l 285 146 q 170 0 285 0 m 330 944 q 299 952 313 944 q 285 983 285 960 q 306 1047 285 1009 l 319 1072 q 376 1138 348 1124 q 457 1152 404 1152 l 481 1152 q 524 1138 510 1152 q 539 1101 539 1123 q 505 1043 539 1072 l 441 988 q 382 952 409 960 q 330 944 354 944 z "},"Ň":{"ha":842,"x_min":54,"x_max":788,"o":"m 170 0 q 54 146 54 0 l 54 701 q 106 816 54 772 q 228 860 157 860 l 234 860 q 349 824 300 860 q 421 724 398 788 l 551 368 l 551 715 q 670 860 551 860 q 756 823 724 860 q 788 715 788 785 l 788 146 q 744 37 788 74 q 630 0 701 0 l 628 0 q 514 33 563 0 q 441 128 466 66 l 285 514 l 285 146 q 170 0 285 0 m 583 1042 l 569 1025 q 499 960 531 983 q 415 938 466 938 q 331 961 364 938 q 261 1025 298 983 l 247 1042 q 230 1080 230 1059 q 250 1122 230 1106 q 301 1139 269 1139 q 346 1125 328 1139 q 381 1092 365 1112 l 415 1048 l 449 1092 q 483 1125 465 1110 q 528 1139 502 1139 q 580 1122 560 1139 q 600 1080 600 1106 q 583 1042 600 1060 z "},"Ņ":{"ha":842,"x_min":54,"x_max":788,"o":"m 170 0 q 54 146 54 0 l 54 701 q 106 816 54 772 q 228 860 157 860 l 234 860 q 349 824 300 860 q 421 724 398 788 l 551 368 l 551 715 q 670 860 551 860 q 756 823 724 860 q 788 715 788 785 l 788 146 q 744 37 788 74 q 630 0 701 0 l 628 0 q 514 33 563 0 q 441 128 466 66 l 285 514 l 285 146 q 170 0 285 0 m 416 -43 q 476 -67 451 -43 q 502 -129 502 -91 q 487 -214 502 -160 q 424 -315 472 -268 q 393 -340 408 -333 q 367 -348 378 -348 q 356 -343 360 -348 q 351 -334 351 -339 q 362 -313 351 -326 q 391 -280 372 -299 q 414 -247 405 -264 q 428 -212 424 -230 q 422 -212 426 -212 q 416 -212 419 -212 q 356 -188 380 -212 q 331 -128 331 -164 q 356 -68 331 -92 q 416 -43 380 -43 z "},"Ñ":{"ha":842,"x_min":54,"x_max":788,"o":"m 170 0 q 54 146 54 0 l 54 701 q 106 816 54 772 q 228 860 157 860 l 234 860 q 349 824 300 860 q 421 724 398 788 l 551 368 l 551 715 q 670 860 551 860 q 756 823 724 860 q 788 715 788 785 l 788 146 q 744 37 788 74 q 630 0 701 0 l 628 0 q 514 33 563 0 q 441 128 466 66 l 285 514 l 285 146 q 170 0 285 0 m 497 927 q 440 938 460 927 q 401 961 419 948 q 375 977 388 971 q 342 984 361 984 q 308 979 324 984 q 278 967 292 974 q 237 953 253 953 q 210 968 221 953 q 200 1003 200 983 q 243 1087 200 1048 q 282 1111 260 1102 q 331 1120 303 1120 q 389 1111 368 1120 q 424 1089 410 1103 q 449 1069 435 1078 q 487 1061 463 1061 q 517 1066 505 1061 q 542 1079 530 1070 q 559 1088 549 1084 q 581 1092 568 1092 q 614 1079 599 1092 q 629 1040 629 1066 q 608 984 629 1010 q 563 945 590 963 q 497 927 536 927 z "},"Ŋ":{"ha":815,"x_min":54,"x_max":760,"o":"m 513 722 q 545 831 513 793 q 637 868 577 868 q 728 831 697 868 q 760 722 760 793 l 760 -17 q 719 -156 760 -103 q 611 -231 678 -208 q 467 -254 544 -254 q 404 -250 434 -254 q 351 -237 374 -247 q 309 -205 325 -226 q 293 -149 293 -183 q 315 -81 293 -109 q 377 -52 337 -52 q 413 -54 394 -52 q 435 -56 424 -55 q 458 -57 446 -57 q 510 -48 490 -57 q 540 -26 531 -40 q 550 0 550 -13 l 301 410 l 301 146 q 178 0 301 0 q 54 146 54 0 l 54 722 q 95 831 54 793 q 195 868 136 868 l 199 868 q 291 843 260 868 q 351 764 322 817 l 513 458 l 513 722 z "},"O":{"ha":869,"x_min":33,"x_max":836,"o":"m 435 -15 q 291 8 362 -15 q 161 82 219 31 q 68 218 103 133 q 33 427 33 303 q 68 635 33 551 q 161 771 103 720 q 291 845 219 822 q 435 868 362 868 q 580 845 508 868 q 709 771 651 822 q 801 635 767 720 q 836 427 836 551 q 801 218 836 303 q 709 82 767 133 q 580 8 651 31 q 435 -15 508 -15 m 435 171 q 509 200 479 171 q 553 287 538 230 q 568 427 568 344 q 553 566 568 509 q 509 653 538 623 q 435 683 479 683 q 361 653 391 683 q 316 566 331 623 q 301 427 301 509 q 316 287 301 344 q 361 200 331 230 q 435 171 391 171 z "},"Ó":{"ha":869,"x_min":33,"x_max":836,"o":"m 435 -15 q 291 8 362 -15 q 161 82 219 31 q 68 218 103 133 q 33 427 33 303 q 68 635 33 551 q 161 771 103 720 q 291 845 219 822 q 435 868 362 868 q 580 845 508 868 q 709 771 651 822 q 801 635 767 720 q 836 427 836 551 q 801 218 836 303 q 709 82 767 133 q 580 8 651 31 q 435 -15 508 -15 m 435 171 q 509 200 479 171 q 553 287 538 230 q 568 427 568 344 q 553 566 568 509 q 509 653 538 623 q 435 683 479 683 q 361 653 391 683 q 316 566 331 623 q 301 427 301 509 q 316 287 301 344 q 361 200 331 230 q 435 171 391 171 m 417 919 q 383 930 395 919 q 371 958 371 940 q 397 1023 371 986 l 415 1047 q 476 1110 449 1094 q 556 1126 503 1126 l 594 1126 q 639 1112 622 1126 q 655 1076 655 1097 q 622 1017 655 1046 l 584 985 q 502 934 542 949 q 417 919 463 919 z "},"Ŏ":{"ha":869,"x_min":33,"x_max":836,"o":"m 435 -15 q 291 8 362 -15 q 161 82 219 31 q 68 218 103 133 q 33 427 33 303 q 68 635 33 551 q 161 771 103 720 q 291 845 219 822 q 435 868 362 868 q 580 845 508 868 q 709 771 651 822 q 801 635 767 720 q 836 427 836 551 q 801 218 836 303 q 709 82 767 133 q 580 8 651 31 q 435 -15 508 -15 m 435 171 q 509 200 479 171 q 553 287 538 230 q 568 427 568 344 q 553 566 568 509 q 509 653 538 623 q 435 683 479 683 q 361 653 391 683 q 316 566 331 623 q 301 427 301 509 q 316 287 301 344 q 361 200 331 230 q 435 171 391 171 m 550 1118 q 602 1101 584 1118 q 621 1057 621 1084 q 611 1017 621 1039 q 580 974 602 995 q 520 935 556 951 q 433 919 484 919 q 356 932 389 919 q 299 963 323 944 q 260 1009 272 985 q 249 1055 249 1034 q 268 1100 249 1082 q 319 1118 287 1118 q 377 1101 360 1118 q 399 1064 394 1084 q 408 1043 401 1053 q 435 1034 415 1034 q 461 1043 455 1034 q 470 1064 468 1053 q 491 1101 474 1084 q 550 1118 508 1118 z "},"Ǒ":{"ha":869,"x_min":33,"x_max":836,"o":"m 435 -15 q 291 8 362 -15 q 161 82 219 31 q 68 218 103 133 q 33 427 33 303 q 68 635 33 551 q 161 771 103 720 q 291 845 219 822 q 435 868 362 868 q 580 845 508 868 q 709 771 651 822 q 801 635 767 720 q 836 427 836 551 q 801 218 836 303 q 709 82 767 133 q 580 8 651 31 q 435 -15 508 -15 m 435 171 q 509 200 479 171 q 553 287 538 230 q 568 427 568 344 q 553 566 568 509 q 509 653 538 623 q 435 683 479 683 q 361 653 391 683 q 316 566 331 623 q 301 427 301 509 q 316 287 301 344 q 361 200 331 230 q 435 171 391 171 m 603 1024 l 589 1008 q 519 943 551 965 q 435 920 486 920 q 351 943 385 920 q 281 1008 318 965 l 267 1024 q 250 1062 250 1043 q 270 1105 250 1088 q 322 1122 290 1122 q 366 1108 348 1122 q 401 1074 385 1094 l 435 1030 l 469 1074 q 503 1107 485 1092 q 549 1122 522 1122 q 600 1105 581 1122 q 620 1062 620 1088 q 617 1044 620 1053 q 603 1024 613 1034 z "},"Ô":{"ha":869,"x_min":33,"x_max":836,"o":"m 435 -15 q 291 8 362 -15 q 161 82 219 31 q 68 218 103 133 q 33 427 33 303 q 68 635 33 551 q 161 771 103 720 q 291 845 219 822 q 435 868 362 868 q 580 845 508 868 q 709 771 651 822 q 801 635 767 720 q 836 427 836 551 q 801 218 836 303 q 709 82 767 133 q 580 8 651 31 q 435 -15 508 -15 m 435 171 q 509 200 479 171 q 553 287 538 230 q 568 427 568 344 q 553 566 568 509 q 509 653 538 623 q 435 683 479 683 q 361 653 391 683 q 316 566 331 623 q 301 427 301 509 q 316 287 301 344 q 361 200 331 230 q 435 171 391 171 m 604 1010 q 621 973 621 992 q 601 930 621 947 q 549 913 581 913 q 504 927 523 913 q 470 960 485 942 l 435 1004 l 401 960 q 367 927 385 940 q 322 913 349 913 q 270 930 290 913 q 251 973 251 947 q 255 991 251 981 q 267 1010 258 1001 l 282 1027 q 352 1092 319 1069 q 435 1114 385 1114 q 519 1092 487 1114 q 590 1027 552 1070 l 604 1010 z "},"Ố":{"ha":869,"x_min":33,"x_max":836,"o":"m 435 -15 q 291 8 362 -15 q 161 82 219 31 q 68 218 103 133 q 33 427 33 303 q 68 635 33 551 q 161 771 103 720 q 291 845 219 822 q 435 868 362 868 q 580 845 508 868 q 709 771 651 822 q 801 635 767 720 q 836 427 836 551 q 801 218 836 303 q 709 82 767 133 q 580 8 651 31 q 435 -15 508 -15 m 435 171 q 509 200 479 171 q 553 287 538 230 q 568 427 568 344 q 553 566 568 509 q 509 653 538 623 q 435 683 479 683 q 361 653 391 683 q 316 566 331 623 q 301 427 301 509 q 316 287 301 344 q 361 200 331 230 q 435 171 391 171 m 604 1044 q 621 1006 621 1025 q 601 963 621 980 q 549 947 581 947 q 504 961 523 947 q 470 994 485 975 l 435 1038 l 401 994 q 367 960 385 974 q 322 947 349 947 q 270 963 290 947 q 251 1006 251 980 q 267 1044 251 1026 l 282 1060 q 352 1125 319 1103 q 435 1147 385 1147 q 519 1125 487 1147 q 590 1060 552 1103 l 604 1044 m 613 1088 q 582 1095 595 1088 q 568 1126 568 1103 q 588 1190 568 1152 l 602 1215 q 659 1281 631 1267 q 740 1295 687 1295 l 764 1295 q 807 1281 792 1295 q 822 1244 822 1266 q 788 1186 822 1215 l 724 1131 q 664 1095 692 1103 q 613 1088 637 1088 z "},"Ộ":{"ha":869,"x_min":33,"x_max":836,"o":"m 435 -15 q 291 8 362 -15 q 161 82 219 31 q 68 218 103 133 q 33 427 33 303 q 68 635 33 551 q 161 771 103 720 q 291 845 219 822 q 435 868 362 868 q 580 845 508 868 q 709 771 651 822 q 801 635 767 720 q 836 427 836 551 q 801 218 836 303 q 709 82 767 133 q 580 8 651 31 q 435 -15 508 -15 m 435 171 q 509 200 479 171 q 553 287 538 230 q 568 427 568 344 q 553 566 568 509 q 509 653 538 623 q 435 683 479 683 q 361 653 391 683 q 316 566 331 623 q 301 427 301 509 q 316 287 301 344 q 361 200 331 230 q 435 171 391 171 m 428 -298 q 339 -261 375 -298 q 302 -171 302 -224 q 339 -81 302 -117 q 428 -44 375 -44 q 517 -81 481 -44 q 553 -171 553 -117 q 517 -263 553 -228 q 428 -298 481 -298 m 604 1010 q 621 973 621 992 q 601 930 621 947 q 549 913 581 913 q 504 927 523 913 q 470 960 485 942 l 435 1004 l 401 960 q 367 927 385 940 q 322 913 349 913 q 270 930 290 913 q 251 973 251 947 q 255 991 251 981 q 267 1010 258 1001 l 282 1027 q 352 1092 319 1069 q 435 1114 385 1114 q 519 1092 487 1114 q 590 1027 552 1070 l 604 1010 z "},"Ồ":{"ha":869,"x_min":33,"x_max":836,"o":"m 435 -15 q 291 8 362 -15 q 161 82 219 31 q 68 218 103 133 q 33 427 33 303 q 68 635 33 551 q 161 771 103 720 q 291 845 219 822 q 435 868 362 868 q 580 845 508 868 q 709 771 651 822 q 801 635 767 720 q 836 427 836 551 q 801 218 836 303 q 709 82 767 133 q 580 8 651 31 q 435 -15 508 -15 m 435 171 q 509 200 479 171 q 553 287 538 230 q 568 427 568 344 q 553 566 568 509 q 509 653 538 623 q 435 683 479 683 q 361 653 391 683 q 316 566 331 623 q 301 427 301 509 q 316 287 301 344 q 361 200 331 230 q 435 171 391 171 m 604 1044 q 621 1006 621 1025 q 601 963 621 980 q 549 947 581 947 q 504 961 523 947 q 470 994 485 975 l 435 1038 l 401 994 q 367 960 385 974 q 322 947 349 947 q 270 963 290 947 q 251 1006 251 980 q 267 1044 251 1026 l 282 1060 q 352 1125 319 1103 q 435 1147 385 1147 q 519 1125 487 1147 q 590 1060 552 1103 l 604 1044 m 681 1088 q 629 1095 656 1088 q 569 1131 601 1103 l 506 1186 q 472 1244 472 1215 q 486 1281 472 1266 q 529 1295 501 1295 l 553 1295 q 635 1281 606 1295 q 691 1215 663 1267 l 705 1190 q 725 1126 725 1152 q 712 1095 725 1103 q 681 1088 699 1088 z "},"Ổ":{"ha":869,"x_min":33,"x_max":836,"o":"m 435 -15 q 291 8 362 -15 q 161 82 219 31 q 68 218 103 133 q 33 427 33 303 q 68 635 33 551 q 161 771 103 720 q 291 845 219 822 q 435 868 362 868 q 580 845 508 868 q 709 771 651 822 q 801 635 767 720 q 836 427 836 551 q 801 218 836 303 q 709 82 767 133 q 580 8 651 31 q 435 -15 508 -15 m 435 171 q 509 200 479 171 q 553 287 538 230 q 568 427 568 344 q 553 566 568 509 q 509 653 538 623 q 435 683 479 683 q 361 653 391 683 q 316 566 331 623 q 301 427 301 509 q 316 287 301 344 q 361 200 331 230 q 435 171 391 171 m 604 1044 q 621 1006 621 1025 q 601 963 621 980 q 549 947 581 947 q 504 961 523 947 q 470 994 485 975 l 435 1038 l 401 994 q 367 960 385 974 q 322 947 349 947 q 270 963 290 947 q 251 1006 251 980 q 267 1044 251 1026 l 282 1060 q 352 1125 319 1103 q 435 1147 385 1147 q 519 1125 487 1147 q 590 1060 552 1103 l 604 1044 m 599 1099 q 539 1148 539 1099 q 553 1186 539 1172 q 599 1201 567 1201 q 656 1213 628 1201 q 684 1246 684 1226 q 660 1274 684 1265 q 613 1283 637 1283 q 569 1279 585 1283 q 540 1269 552 1274 q 518 1264 531 1265 q 499 1263 506 1263 q 468 1273 481 1263 q 455 1304 455 1283 q 498 1361 455 1339 q 614 1383 542 1383 q 709 1370 665 1383 q 782 1327 753 1358 q 810 1244 810 1297 q 776 1157 810 1189 q 693 1113 742 1126 q 599 1099 644 1099 z "},"Ỗ":{"ha":869,"x_min":33,"x_max":836,"o":"m 435 -15 q 291 8 362 -15 q 161 82 219 31 q 68 218 103 133 q 33 427 33 303 q 68 635 33 551 q 161 771 103 720 q 291 845 219 822 q 435 868 362 868 q 580 845 508 868 q 709 771 651 822 q 801 635 767 720 q 836 427 836 551 q 801 218 836 303 q 709 82 767 133 q 580 8 651 31 q 435 -15 508 -15 m 435 171 q 509 200 479 171 q 553 287 538 230 q 568 427 568 344 q 553 566 568 509 q 509 653 538 623 q 435 683 479 683 q 361 653 391 683 q 316 566 331 623 q 301 427 301 509 q 316 287 301 344 q 361 200 331 230 q 435 171 391 171 m 604 1010 q 621 973 621 992 q 601 930 621 947 q 549 913 581 913 q 504 927 523 913 q 470 960 485 942 l 435 1004 l 401 960 q 367 927 385 940 q 322 913 349 913 q 270 930 290 913 q 251 973 251 947 q 255 991 251 981 q 267 1010 258 1001 l 282 1027 q 352 1092 319 1069 q 435 1114 385 1114 q 519 1092 487 1114 q 590 1027 552 1070 l 604 1010 m 518 1170 q 460 1181 481 1170 q 422 1205 440 1192 q 395 1221 409 1215 q 363 1228 382 1228 q 328 1223 344 1228 q 299 1210 313 1217 q 277 1200 288 1204 q 258 1197 267 1197 q 231 1211 242 1197 q 221 1247 221 1226 q 264 1331 221 1291 q 302 1354 281 1345 q 351 1363 324 1363 q 410 1355 389 1363 q 444 1332 431 1346 q 470 1313 456 1321 q 508 1304 484 1304 q 538 1309 526 1304 q 563 1322 551 1314 q 580 1332 570 1328 q 601 1335 589 1335 q 635 1323 619 1335 q 650 1283 650 1310 q 628 1228 650 1253 q 584 1188 611 1206 q 518 1170 557 1170 z "},"Ȍ":{"ha":869,"x_min":33,"x_max":836,"o":"m 435 -15 q 291 8 362 -15 q 161 82 219 31 q 68 218 103 133 q 33 427 33 303 q 68 635 33 551 q 161 771 103 720 q 291 845 219 822 q 435 868 362 868 q 580 845 508 868 q 709 771 651 822 q 801 635 767 720 q 836 427 836 551 q 801 218 836 303 q 709 82 767 133 q 580 8 651 31 q 435 -15 508 -15 m 435 171 q 509 200 479 171 q 553 287 538 230 q 568 427 568 344 q 553 566 568 509 q 509 653 538 623 q 435 683 479 683 q 361 653 391 683 q 316 566 331 623 q 301 427 301 509 q 316 287 301 344 q 361 200 331 230 q 435 171 391 171 m 331 919 q 260 935 293 919 q 192 986 228 950 l 160 1018 q 139 1048 145 1033 q 133 1076 133 1063 q 146 1113 133 1098 q 183 1127 160 1127 l 215 1127 q 283 1111 260 1127 q 333 1047 306 1095 l 347 1024 q 370 959 370 984 q 360 930 370 941 q 331 919 350 919 m 576 919 q 505 935 538 919 q 436 986 472 950 l 404 1018 q 377 1076 377 1046 q 391 1113 377 1098 q 428 1127 405 1127 l 460 1127 q 527 1111 504 1127 q 578 1047 549 1094 l 592 1024 q 609 989 604 1005 q 614 959 614 972 q 604 930 614 941 q 576 919 594 919 z "},"Ö":{"ha":869,"x_min":33,"x_max":836,"o":"m 435 -15 q 291 8 362 -15 q 161 82 219 31 q 68 218 103 133 q 33 427 33 303 q 68 635 33 551 q 161 771 103 720 q 291 845 219 822 q 435 868 362 868 q 580 845 508 868 q 709 771 651 822 q 801 635 767 720 q 836 427 836 551 q 801 218 836 303 q 709 82 767 133 q 580 8 651 31 q 435 -15 508 -15 m 435 171 q 509 200 479 171 q 553 287 538 230 q 568 427 568 344 q 553 566 568 509 q 509 653 538 623 q 435 683 479 683 q 361 653 391 683 q 316 566 331 623 q 301 427 301 509 q 316 287 301 344 q 361 200 331 230 q 435 171 391 171 m 282 922 q 193 959 229 922 q 156 1048 156 995 q 193 1140 156 1103 q 282 1176 229 1176 q 371 1140 335 1176 q 408 1048 408 1103 q 371 959 408 995 q 282 922 335 922 m 588 922 q 498 959 535 922 q 462 1048 462 995 q 498 1140 462 1103 q 588 1176 535 1176 q 678 1140 641 1176 q 715 1048 715 1103 q 678 959 715 995 q 588 922 641 922 z "},"Ȫ":{"ha":869,"x_min":33,"x_max":836,"o":"m 435 -15 q 291 8 362 -15 q 161 82 219 31 q 68 218 103 133 q 33 427 33 303 q 68 635 33 551 q 161 771 103 720 q 291 845 219 822 q 435 868 362 868 q 580 845 508 868 q 709 771 651 822 q 801 635 767 720 q 836 427 836 551 q 801 218 836 303 q 709 82 767 133 q 580 8 651 31 q 435 -15 508 -15 m 435 171 q 509 200 479 171 q 553 287 538 230 q 568 427 568 344 q 553 566 568 509 q 509 653 538 623 q 435 683 479 683 q 361 653 391 683 q 316 566 331 623 q 301 427 301 509 q 316 287 301 344 q 361 200 331 230 q 435 171 391 171 m 282 922 q 193 959 229 922 q 156 1048 156 995 q 193 1140 156 1103 q 282 1176 229 1176 q 371 1140 335 1176 q 408 1048 408 1103 q 371 959 408 995 q 282 922 335 922 m 588 922 q 498 959 535 922 q 462 1048 462 995 q 498 1140 462 1103 q 588 1176 535 1176 q 678 1140 641 1176 q 715 1048 715 1103 q 678 959 715 995 q 588 922 641 922 m 151 1303 q 181 1355 151 1335 q 276 1374 210 1374 l 592 1374 q 687 1355 658 1374 q 717 1303 717 1335 q 687 1251 717 1270 q 592 1231 658 1231 l 276 1231 q 181 1251 210 1231 q 151 1303 151 1270 z "},"Ȱ":{"ha":869,"x_min":33,"x_max":836,"o":"m 435 -15 q 291 8 362 -15 q 161 82 219 31 q 68 218 103 133 q 33 427 33 303 q 68 635 33 551 q 161 771 103 720 q 291 845 219 822 q 435 868 362 868 q 580 845 508 868 q 709 771 651 822 q 801 635 767 720 q 836 427 836 551 q 801 218 836 303 q 709 82 767 133 q 580 8 651 31 q 435 -15 508 -15 m 435 171 q 509 200 479 171 q 553 287 538 230 q 568 427 568 344 q 553 566 568 509 q 509 653 538 623 q 435 683 479 683 q 361 653 391 683 q 316 566 331 623 q 301 427 301 509 q 316 287 301 344 q 361 200 331 230 q 435 171 391 171 m 435 921 q 346 958 383 921 q 310 1048 310 994 q 346 1138 310 1101 q 435 1175 383 1175 q 525 1138 488 1175 q 561 1048 561 1101 q 525 958 561 994 q 435 921 488 921 m 151 1303 q 181 1355 151 1335 q 276 1374 210 1374 l 592 1374 q 687 1355 658 1374 q 717 1303 717 1335 q 687 1251 717 1270 q 592 1231 658 1231 l 276 1231 q 181 1251 210 1231 q 151 1303 151 1270 z "},"Ọ":{"ha":869,"x_min":33,"x_max":836,"o":"m 435 -15 q 291 8 362 -15 q 161 82 219 31 q 68 218 103 133 q 33 427 33 303 q 68 635 33 551 q 161 771 103 720 q 291 845 219 822 q 435 868 362 868 q 580 845 508 868 q 709 771 651 822 q 801 635 767 720 q 836 427 836 551 q 801 218 836 303 q 709 82 767 133 q 580 8 651 31 q 435 -15 508 -15 m 435 171 q 509 200 479 171 q 553 287 538 230 q 568 427 568 344 q 553 566 568 509 q 509 653 538 623 q 435 683 479 683 q 361 653 391 683 q 316 566 331 623 q 301 427 301 509 q 316 287 301 344 q 361 200 331 230 q 435 171 391 171 m 428 -298 q 339 -261 375 -298 q 302 -171 302 -224 q 339 -81 302 -117 q 428 -44 375 -44 q 517 -81 481 -44 q 553 -171 553 -117 q 517 -263 553 -228 q 428 -298 481 -298 z "},"Ò":{"ha":869,"x_min":33,"x_max":836,"o":"m 435 -15 q 291 8 362 -15 q 161 82 219 31 q 68 218 103 133 q 33 427 33 303 q 68 635 33 551 q 161 771 103 720 q 291 845 219 822 q 435 868 362 868 q 580 845 508 868 q 709 771 651 822 q 801 635 767 720 q 836 427 836 551 q 801 218 836 303 q 709 82 767 133 q 580 8 651 31 q 435 -15 508 -15 m 435 171 q 509 200 479 171 q 553 287 538 230 q 568 427 568 344 q 553 566 568 509 q 509 653 538 623 q 435 683 479 683 q 361 653 391 683 q 316 566 331 623 q 301 427 301 509 q 316 287 301 344 q 361 200 331 230 q 435 171 391 171 m 478 912 q 393 927 433 912 q 311 978 353 942 l 273 1010 q 240 1069 240 1038 q 257 1105 240 1090 q 301 1119 274 1119 l 340 1119 q 419 1103 392 1119 q 481 1040 447 1087 l 498 1015 q 524 951 524 978 q 512 923 524 933 q 478 912 500 912 z "},"Ỏ":{"ha":869,"x_min":33,"x_max":836,"o":"m 435 -15 q 291 8 362 -15 q 161 82 219 31 q 68 218 103 133 q 33 427 33 303 q 68 635 33 551 q 161 771 103 720 q 291 845 219 822 q 435 868 362 868 q 580 845 508 868 q 709 771 651 822 q 801 635 767 720 q 836 427 836 551 q 801 218 836 303 q 709 82 767 133 q 580 8 651 31 q 435 -15 508 -15 m 435 171 q 509 200 479 171 q 553 287 538 230 q 568 427 568 344 q 553 566 568 509 q 509 653 538 623 q 435 683 479 683 q 361 653 391 683 q 316 566 331 623 q 301 427 301 509 q 316 287 301 344 q 361 200 331 230 q 435 171 391 171 m 398 919 q 353 935 369 919 q 338 974 338 951 q 352 1017 338 999 q 398 1035 367 1035 q 452 1043 427 1035 q 476 1072 476 1052 q 453 1097 476 1092 q 405 1103 429 1103 q 362 1101 378 1103 q 329 1094 346 1099 q 313 1090 320 1091 q 298 1089 306 1089 q 267 1100 281 1089 q 254 1131 254 1110 q 298 1194 254 1171 q 413 1217 341 1217 q 510 1204 464 1217 q 586 1159 556 1191 q 616 1071 616 1128 q 581 982 616 1016 q 494 934 545 949 q 398 919 444 919 z "},"Ơ":{"ha":871,"x_min":34,"x_max":921,"o":"m 436 -15 q 291 8 363 -15 q 162 82 220 31 q 69 218 103 133 q 34 427 34 303 q 69 635 34 551 q 162 771 103 720 q 291 845 220 822 q 436 868 363 868 q 541 857 488 868 q 640 820 593 845 q 684 840 667 826 q 713 880 701 855 q 731 942 724 905 q 761 1007 738 981 q 826 1033 783 1033 q 897 1012 872 1033 q 921 935 921 990 q 900 842 921 888 q 843 763 880 797 q 758 715 807 729 q 816 593 795 665 q 837 427 837 522 q 802 218 837 303 q 709 82 767 133 q 580 8 651 31 q 436 -15 509 -15 m 302 427 q 317 287 302 344 q 362 200 332 230 q 436 171 392 171 q 494 188 469 171 q 535 237 519 204 q 560 317 552 269 q 569 427 569 365 q 560 536 569 489 q 535 616 552 583 q 494 666 519 649 q 436 683 469 683 q 362 653 392 683 q 317 566 332 623 q 302 427 302 509 z "},"Ớ":{"ha":871,"x_min":34,"x_max":921,"o":"m 436 -15 q 291 8 363 -15 q 162 82 220 31 q 69 218 103 133 q 34 427 34 303 q 69 635 34 551 q 162 771 103 720 q 291 845 220 822 q 436 868 363 868 q 541 857 488 868 q 640 820 593 845 q 684 840 667 826 q 713 880 701 855 q 731 942 724 905 q 761 1007 738 981 q 826 1033 783 1033 q 897 1012 872 1033 q 921 935 921 990 q 900 842 921 888 q 843 763 880 797 q 758 715 807 729 q 816 593 795 665 q 837 427 837 522 q 802 218 837 303 q 709 82 767 133 q 580 8 651 31 q 436 -15 509 -15 m 302 427 q 317 287 302 344 q 362 200 332 230 q 436 171 392 171 q 494 188 469 171 q 535 237 519 204 q 560 317 552 269 q 569 427 569 365 q 560 536 569 489 q 535 616 552 583 q 494 666 519 649 q 436 683 469 683 q 362 653 392 683 q 317 566 332 623 q 302 427 302 509 m 418 919 q 384 930 396 919 q 372 958 372 940 q 398 1023 372 986 l 415 1047 q 477 1110 450 1094 q 556 1126 503 1126 l 594 1126 q 639 1112 623 1126 q 656 1076 656 1097 q 623 1017 656 1046 l 585 985 q 503 934 542 949 q 418 919 463 919 z "},"Ợ":{"ha":871,"x_min":34,"x_max":921,"o":"m 436 -15 q 291 8 363 -15 q 162 82 220 31 q 69 218 103 133 q 34 427 34 303 q 69 635 34 551 q 162 771 103 720 q 291 845 220 822 q 436 868 363 868 q 541 857 488 868 q 640 820 593 845 q 684 840 667 826 q 713 880 701 855 q 731 942 724 905 q 761 1007 738 981 q 826 1033 783 1033 q 897 1012 872 1033 q 921 935 921 990 q 900 842 921 888 q 843 763 880 797 q 758 715 807 729 q 816 593 795 665 q 837 427 837 522 q 802 218 837 303 q 709 82 767 133 q 580 8 651 31 q 436 -15 509 -15 m 302 427 q 317 287 302 344 q 362 200 332 230 q 436 171 392 171 q 494 188 469 171 q 535 237 519 204 q 560 317 552 269 q 569 427 569 365 q 560 536 569 489 q 535 616 552 583 q 494 666 519 649 q 436 683 469 683 q 362 653 392 683 q 317 566 332 623 q 302 427 302 509 m 428 -298 q 339 -261 376 -298 q 303 -171 303 -224 q 339 -81 303 -117 q 428 -44 376 -44 q 518 -81 481 -44 q 554 -171 554 -117 q 518 -263 554 -228 q 428 -298 481 -298 z "},"Ờ":{"ha":871,"x_min":34,"x_max":921,"o":"m 436 -15 q 291 8 363 -15 q 162 82 220 31 q 69 218 103 133 q 34 427 34 303 q 69 635 34 551 q 162 771 103 720 q 291 845 220 822 q 436 868 363 868 q 541 857 488 868 q 640 820 593 845 q 684 840 667 826 q 713 880 701 855 q 731 942 724 905 q 761 1007 738 981 q 826 1033 783 1033 q 897 1012 872 1033 q 921 935 921 990 q 900 842 921 888 q 843 763 880 797 q 758 715 807 729 q 816 593 795 665 q 837 427 837 522 q 802 218 837 303 q 709 82 767 133 q 580 8 651 31 q 436 -15 509 -15 m 302 427 q 317 287 302 344 q 362 200 332 230 q 436 171 392 171 q 494 188 469 171 q 535 237 519 204 q 560 317 552 269 q 569 427 569 365 q 560 536 569 489 q 535 616 552 583 q 494 666 519 649 q 436 683 469 683 q 362 653 392 683 q 317 566 332 623 q 302 427 302 509 m 478 912 q 394 927 434 912 q 312 978 354 942 l 274 1010 q 241 1069 241 1038 q 258 1105 241 1090 q 302 1119 274 1119 l 340 1119 q 420 1103 393 1119 q 481 1040 447 1087 l 499 1015 q 525 951 525 978 q 513 923 525 933 q 478 912 501 912 z "},"Ở":{"ha":871,"x_min":34,"x_max":921,"o":"m 436 -15 q 291 8 363 -15 q 162 82 220 31 q 69 218 103 133 q 34 427 34 303 q 69 635 34 551 q 162 771 103 720 q 291 845 220 822 q 436 868 363 868 q 541 857 488 868 q 640 820 593 845 q 684 840 667 826 q 713 880 701 855 q 731 942 724 905 q 761 1007 738 981 q 826 1033 783 1033 q 897 1012 872 1033 q 921 935 921 990 q 900 842 921 888 q 843 763 880 797 q 758 715 807 729 q 816 593 795 665 q 837 427 837 522 q 802 218 837 303 q 709 82 767 133 q 580 8 651 31 q 436 -15 509 -15 m 302 427 q 317 287 302 344 q 362 200 332 230 q 436 171 392 171 q 494 188 469 171 q 535 237 519 204 q 560 317 552 269 q 569 427 569 365 q 560 536 569 489 q 535 616 552 583 q 494 666 519 649 q 436 683 469 683 q 362 653 392 683 q 317 566 332 623 q 302 427 302 509 m 399 919 q 354 935 369 919 q 339 974 339 951 q 353 1017 339 999 q 399 1035 367 1035 q 452 1043 428 1035 q 477 1072 477 1052 q 453 1097 477 1092 q 406 1103 430 1103 q 363 1101 378 1103 q 330 1094 347 1099 q 314 1090 321 1091 q 299 1089 306 1089 q 268 1100 281 1089 q 255 1131 255 1110 q 298 1194 255 1171 q 414 1217 342 1217 q 511 1204 465 1217 q 587 1159 557 1191 q 617 1071 617 1128 q 581 982 617 1016 q 495 934 546 949 q 399 919 444 919 z "},"Ỡ":{"ha":871,"x_min":34,"x_max":921,"o":"m 436 -15 q 291 8 363 -15 q 162 82 220 31 q 69 218 103 133 q 34 427 34 303 q 69 635 34 551 q 162 771 103 720 q 291 845 220 822 q 436 868 363 868 q 541 857 488 868 q 640 820 593 845 q 684 840 667 826 q 713 880 701 855 q 731 942 724 905 q 761 1007 738 981 q 826 1033 783 1033 q 897 1012 872 1033 q 921 935 921 990 q 900 842 921 888 q 843 763 880 797 q 758 715 807 729 q 816 593 795 665 q 837 427 837 522 q 802 218 837 303 q 709 82 767 133 q 580 8 651 31 q 436 -15 509 -15 m 302 427 q 317 287 302 344 q 362 200 332 230 q 436 171 392 171 q 494 188 469 171 q 535 237 519 204 q 560 317 552 269 q 569 427 569 365 q 560 536 569 489 q 535 616 552 583 q 494 666 519 649 q 436 683 469 683 q 362 653 392 683 q 317 566 332 623 q 302 427 302 509 m 519 924 q 461 935 482 924 q 422 959 440 946 q 396 975 410 969 q 363 982 383 982 q 329 977 345 982 q 299 964 313 972 q 278 955 288 958 q 258 951 267 951 q 232 966 242 951 q 222 1001 222 981 q 265 1085 222 1045 q 303 1108 281 1099 q 352 1117 325 1117 q 410 1109 390 1117 q 445 1086 431 1100 q 470 1067 456 1075 q 508 1058 485 1058 q 539 1063 526 1058 q 563 1076 551 1068 q 580 1086 571 1082 q 602 1090 590 1090 q 635 1077 620 1090 q 651 1038 651 1064 q 629 982 651 1008 q 585 942 612 960 q 519 924 558 924 z "},"Ő":{"ha":869,"x_min":33,"x_max":836,"o":"m 435 -15 q 291 8 362 -15 q 161 82 219 31 q 68 218 103 133 q 33 427 33 303 q 68 635 33 551 q 161 771 103 720 q 291 845 219 822 q 435 868 362 868 q 580 845 508 868 q 709 771 651 822 q 801 635 767 720 q 836 427 836 551 q 801 218 836 303 q 709 82 767 133 q 580 8 651 31 q 435 -15 508 -15 m 435 171 q 509 200 479 171 q 553 287 538 230 q 568 427 568 344 q 553 566 568 509 q 509 653 538 623 q 435 683 479 683 q 361 653 391 683 q 316 566 331 623 q 301 427 301 509 q 316 287 301 344 q 361 200 331 230 q 435 171 391 171 m 458 1013 l 477 1049 q 521 1113 501 1097 q 578 1129 540 1129 l 626 1129 q 656 1118 645 1129 q 666 1091 666 1108 q 640 1033 666 1064 l 599 988 q 546 937 567 953 q 492 922 525 922 q 459 933 473 922 q 444 967 444 945 q 458 1013 444 986 m 233 1013 l 253 1049 q 297 1113 277 1097 q 354 1129 316 1129 l 401 1129 q 431 1118 421 1129 q 442 1091 442 1108 q 415 1033 442 1064 l 374 988 q 322 937 343 953 q 268 922 301 922 q 234 933 249 922 q 220 967 220 945 q 233 1013 220 986 z "},"Ȏ":{"ha":869,"x_min":33,"x_max":836,"o":"m 435 -15 q 291 8 362 -15 q 161 82 219 31 q 68 218 103 133 q 33 427 33 303 q 68 635 33 551 q 161 771 103 720 q 291 845 219 822 q 435 868 362 868 q 580 845 508 868 q 709 771 651 822 q 801 635 767 720 q 836 427 836 551 q 801 218 836 303 q 709 82 767 133 q 580 8 651 31 q 435 -15 508 -15 m 435 171 q 509 200 479 171 q 553 287 538 230 q 568 427 568 344 q 553 566 568 509 q 509 653 538 623 q 435 683 479 683 q 361 653 391 683 q 316 566 331 623 q 301 427 301 509 q 316 287 301 344 q 361 200 331 230 q 435 171 391 171 m 550 913 q 491 931 508 913 q 470 967 474 948 q 461 988 468 978 q 435 997 455 997 q 408 988 415 997 q 399 967 401 978 q 377 930 394 947 q 319 913 360 913 q 268 931 287 913 q 249 976 249 949 q 260 1022 249 997 q 299 1069 272 1047 q 356 1100 323 1088 q 433 1112 389 1112 q 520 1096 484 1112 q 580 1057 556 1081 q 611 1014 602 1036 q 621 974 621 992 q 602 930 621 947 q 550 913 584 913 z "},"Ō":{"ha":869,"x_min":33,"x_max":836,"o":"m 435 -15 q 291 8 362 -15 q 161 82 219 31 q 68 218 103 133 q 33 427 33 303 q 68 635 33 551 q 161 771 103 720 q 291 845 219 822 q 435 868 362 868 q 580 845 508 868 q 709 771 651 822 q 801 635 767 720 q 836 427 836 551 q 801 218 836 303 q 709 82 767 133 q 580 8 651 31 q 435 -15 508 -15 m 435 171 q 509 200 479 171 q 553 287 538 230 q 568 427 568 344 q 553 566 568 509 q 509 653 538 623 q 435 683 479 683 q 361 653 391 683 q 316 566 331 623 q 301 427 301 509 q 316 287 301 344 q 361 200 331 230 q 435 171 391 171 m 151 996 q 181 1048 151 1028 q 276 1067 210 1067 l 592 1067 q 687 1048 658 1067 q 717 996 717 1028 q 687 944 717 963 q 592 924 658 924 l 276 924 q 181 944 210 924 q 151 996 151 963 z "},"Ǫ":{"ha":869,"x_min":33,"x_max":836,"o":"m 435 -15 q 291 8 362 -15 q 161 82 219 31 q 68 218 103 133 q 33 427 33 303 q 68 635 33 551 q 161 771 103 720 q 291 845 219 822 q 435 868 362 868 q 580 845 508 868 q 709 771 651 822 q 801 635 767 720 q 836 427 836 551 q 801 218 836 303 q 709 82 767 133 q 580 8 651 31 q 435 -15 508 -15 m 435 171 q 509 200 479 171 q 553 287 538 230 q 568 427 568 344 q 553 566 568 509 q 509 653 538 623 q 435 683 479 683 q 361 653 391 683 q 316 566 331 623 q 301 427 301 509 q 316 287 301 344 q 361 200 331 230 q 435 171 391 171 m 625 -286 q 521 -274 570 -286 q 441 -230 472 -261 q 410 -144 410 -199 q 424 -71 410 -105 q 460 -11 438 -37 q 508 31 483 15 q 556 53 533 48 l 670 53 q 639 22 656 44 q 608 -30 621 -1 q 594 -85 594 -59 q 608 -127 594 -114 q 647 -140 621 -140 q 673 -138 656 -140 q 698 -133 689 -136 q 724 -128 712 -130 q 746 -127 736 -127 q 789 -145 776 -127 q 801 -190 801 -162 q 751 -262 801 -239 q 625 -286 701 -286 z "},"Ø":{"ha":869,"x_min":33,"x_max":836,"o":"m 726 924 q 771 909 751 924 q 790 863 790 894 q 783 824 790 846 q 757 776 775 803 l 269 37 q 213 -35 237 -12 q 156 -57 189 -57 q 109 -40 130 -57 q 88 10 88 -23 q 95 50 88 28 q 119 97 102 71 l 603 829 q 660 901 636 879 q 726 924 684 924 m 435 -15 q 291 8 362 -15 q 161 82 219 31 q 68 218 103 133 q 33 427 33 303 q 68 635 33 551 q 161 771 103 720 q 291 845 219 822 q 435 868 362 868 q 580 845 508 868 q 709 771 651 822 q 801 635 767 720 q 836 427 836 551 q 801 218 836 303 q 709 82 767 133 q 580 8 651 31 q 435 -15 508 -15 m 435 171 q 509 200 479 171 q 553 287 538 230 q 568 427 568 344 q 553 566 568 509 q 509 653 538 623 q 435 683 479 683 q 361 653 391 683 q 316 566 331 623 q 301 427 301 509 q 316 287 301 344 q 361 200 331 230 q 435 171 391 171 z "},"Ǿ":{"ha":869,"x_min":33,"x_max":836,"o":"m 726 924 q 771 909 751 924 q 790 863 790 894 q 783 824 790 846 q 757 776 775 803 l 269 37 q 213 -35 237 -12 q 156 -57 189 -57 q 109 -40 130 -57 q 88 10 88 -23 q 95 50 88 28 q 119 97 102 71 l 603 829 q 660 901 636 879 q 726 924 684 924 m 435 -15 q 291 8 362 -15 q 161 82 219 31 q 68 218 103 133 q 33 427 33 303 q 68 635 33 551 q 161 771 103 720 q 291 845 219 822 q 435 868 362 868 q 580 845 508 868 q 709 771 651 822 q 801 635 767 720 q 836 427 836 551 q 801 218 836 303 q 709 82 767 133 q 580 8 651 31 q 435 -15 508 -15 m 435 171 q 509 200 479 171 q 553 287 538 230 q 568 427 568 344 q 553 566 568 509 q 509 653 538 623 q 435 683 479 683 q 361 653 391 683 q 316 566 331 623 q 301 427 301 509 q 316 287 301 344 q 361 200 331 230 q 435 171 391 171 m 417 910 q 383 921 395 910 q 371 950 371 932 q 397 1015 371 978 l 415 1038 q 476 1102 449 1085 q 556 1118 503 1118 l 594 1118 q 639 1103 622 1118 q 655 1067 655 1089 q 622 1009 655 1038 l 584 977 q 502 926 542 941 q 417 910 463 910 z "},"Õ":{"ha":869,"x_min":33,"x_max":836,"o":"m 435 -15 q 291 8 362 -15 q 161 82 219 31 q 68 218 103 133 q 33 427 33 303 q 68 635 33 551 q 161 771 103 720 q 291 845 219 822 q 435 868 362 868 q 580 845 508 868 q 709 771 651 822 q 801 635 767 720 q 836 427 836 551 q 801 218 836 303 q 709 82 767 133 q 580 8 651 31 q 435 -15 508 -15 m 435 171 q 509 200 479 171 q 553 287 538 230 q 568 427 568 344 q 553 566 568 509 q 509 653 538 623 q 435 683 479 683 q 361 653 391 683 q 316 566 331 623 q 301 427 301 509 q 316 287 301 344 q 361 200 331 230 q 435 171 391 171 m 518 935 q 460 946 481 935 q 422 969 440 956 q 395 986 409 979 q 363 992 382 992 q 328 987 344 992 q 299 975 313 982 q 258 962 274 962 q 231 976 242 962 q 221 1012 221 991 q 264 1095 221 1056 q 302 1119 281 1110 q 351 1128 324 1128 q 410 1120 389 1128 q 444 1097 431 1111 q 470 1078 456 1086 q 508 1069 484 1069 q 538 1074 526 1069 q 563 1088 551 1078 q 580 1097 570 1092 q 601 1101 589 1101 q 635 1088 619 1101 q 650 1048 650 1074 q 628 992 650 1018 q 584 953 611 971 q 518 935 557 935 z "},"Ȭ":{"ha":869,"x_min":33,"x_max":836,"o":"m 435 -15 q 291 8 362 -15 q 161 82 219 31 q 68 218 103 133 q 33 427 33 303 q 68 635 33 551 q 161 771 103 720 q 291 845 219 822 q 435 868 362 868 q 580 845 508 868 q 709 771 651 822 q 801 635 767 720 q 836 427 836 551 q 801 218 836 303 q 709 82 767 133 q 580 8 651 31 q 435 -15 508 -15 m 435 171 q 509 200 479 171 q 553 287 538 230 q 568 427 568 344 q 553 566 568 509 q 509 653 538 623 q 435 683 479 683 q 361 653 391 683 q 316 566 331 623 q 301 427 301 509 q 316 287 301 344 q 361 200 331 230 q 435 171 391 171 m 518 924 q 460 935 481 924 q 422 959 440 946 q 395 975 409 969 q 363 982 382 982 q 328 977 344 982 q 299 964 313 972 q 277 955 288 958 q 258 951 267 951 q 231 966 242 951 q 221 1001 221 981 q 264 1085 221 1045 q 302 1108 281 1099 q 351 1117 324 1117 q 410 1109 389 1117 q 444 1086 431 1100 q 470 1067 456 1075 q 508 1058 484 1058 q 538 1063 526 1058 q 563 1076 551 1068 q 580 1086 570 1082 q 601 1090 589 1090 q 635 1077 619 1090 q 650 1038 650 1064 q 628 982 650 1008 q 584 942 611 960 q 518 924 557 924 m 151 1245 q 181 1297 151 1278 q 276 1317 210 1317 l 592 1317 q 687 1297 658 1317 q 717 1245 717 1278 q 687 1193 717 1213 q 592 1174 658 1174 l 276 1174 q 181 1193 210 1174 q 151 1245 151 1213 z "},"Œ":{"ha":1200,"x_min":33,"x_max":1160,"o":"m 1160 767 q 1124 698 1160 722 q 1028 674 1089 674 l 817 674 l 817 515 l 1017 515 q 1113 491 1077 515 q 1148 422 1148 467 q 1113 353 1148 377 q 1017 329 1077 329 l 817 329 l 817 185 l 1028 185 q 1124 161 1089 185 q 1160 92 1160 138 q 1124 24 1160 48 q 1028 0 1089 0 l 719 0 q 672 4 693 0 q 635 19 651 8 l 621 28 q 532 -5 579 6 q 435 -15 485 -15 q 291 8 362 -15 q 161 82 219 31 q 68 218 103 133 q 33 427 33 303 q 68 635 33 551 q 161 771 103 720 q 291 845 219 822 q 435 868 362 868 q 530 859 483 868 q 617 828 576 849 l 627 836 q 667 854 644 848 q 719 860 690 860 l 1028 860 q 1124 836 1089 860 q 1160 767 1160 813 m 301 427 q 316 287 301 344 q 361 200 331 230 q 435 171 391 171 q 509 200 479 171 q 553 287 538 230 q 568 427 568 344 q 553 566 568 509 q 509 653 538 623 q 435 683 479 683 q 361 653 391 683 q 316 566 331 623 q 301 427 301 509 z "},"P":{"ha":776,"x_min":54,"x_max":742,"o":"m 319 674 l 319 478 l 374 478 q 416 482 397 478 q 449 497 435 486 q 470 527 463 507 q 478 578 478 547 q 470 628 478 609 q 449 657 463 647 q 416 671 435 667 q 374 674 397 674 l 319 674 m 417 292 l 319 292 l 319 146 q 187 0 319 0 q 54 146 54 0 l 54 715 q 200 860 54 860 l 417 860 q 490 855 448 860 q 576 835 532 850 q 658 789 620 819 q 719 707 696 758 q 742 578 742 656 q 719 449 742 501 q 658 366 696 397 q 576 319 620 335 q 490 298 532 303 q 417 292 448 292 z "},"Þ":{"ha":771,"x_min":47,"x_max":738,"o":"m 395 686 q 473 682 428 686 q 564 665 517 678 q 649 622 610 651 q 713 543 689 593 q 738 415 738 492 q 713 286 738 337 q 649 207 689 236 q 564 164 610 178 q 473 147 517 151 q 395 144 428 144 l 308 144 l 308 111 q 274 22 308 56 q 178 -13 240 -13 q 47 132 47 -13 l 47 721 q 178 867 47 867 q 308 721 308 867 l 308 686 l 395 686 m 348 322 q 399 325 375 322 q 442 336 424 327 q 472 363 461 344 q 483 415 483 382 q 472 464 483 445 q 442 491 461 482 q 399 504 424 501 q 348 507 375 507 l 308 507 l 308 322 l 348 322 z "},"Q":{"ha":869,"x_min":33,"x_max":836,"o":"m 697 -215 q 591 -185 647 -215 q 492 -109 535 -155 q 435 -15 449 -62 q 290 8 362 -15 q 161 82 219 31 q 68 218 103 133 q 33 427 33 303 q 68 635 33 551 q 161 771 103 720 q 291 845 219 822 q 435 868 362 868 q 580 845 508 868 q 709 771 651 822 q 801 635 767 720 q 836 427 836 551 q 809 239 836 318 q 734 109 781 160 q 628 28 688 57 q 654 4 640 15 q 686 -16 669 -8 q 721 -30 703 -24 q 776 -61 753 -40 q 798 -127 798 -83 q 769 -191 798 -167 q 697 -215 741 -215 m 301 427 q 316 287 301 344 q 361 200 331 230 q 435 171 391 171 q 509 200 479 171 q 553 287 538 230 q 568 427 568 344 q 553 566 568 509 q 509 653 538 623 q 435 683 479 683 q 361 653 391 683 q 316 566 331 623 q 301 427 301 509 z "},"R":{"ha":812,"x_min":54,"x_max":772,"o":"m 319 674 l 319 500 l 402 500 q 480 522 456 500 q 505 588 505 543 q 482 653 505 632 q 405 674 458 674 l 319 674 m 54 132 l 54 715 q 199 860 54 860 l 455 860 q 550 852 497 860 q 654 820 603 845 q 737 743 704 794 q 769 602 769 691 q 739 467 769 521 q 663 381 708 413 l 753 161 q 767 123 762 142 q 772 88 772 104 q 741 15 772 42 q 651 -13 710 -13 q 550 21 580 -13 q 497 117 519 55 l 424 315 l 319 315 l 319 132 q 186 -13 319 -13 q 54 132 54 -13 z "},"Ŕ":{"ha":812,"x_min":54,"x_max":772,"o":"m 319 674 l 319 500 l 402 500 q 480 522 456 500 q 505 588 505 543 q 482 653 505 632 q 405 674 458 674 l 319 674 m 54 132 l 54 715 q 199 860 54 860 l 455 860 q 550 852 497 860 q 654 820 603 845 q 737 743 704 794 q 769 602 769 691 q 739 467 769 521 q 663 381 708 413 l 753 161 q 767 123 762 142 q 772 88 772 104 q 741 15 772 42 q 651 -13 710 -13 q 550 21 580 -13 q 497 117 519 55 l 424 315 l 319 315 l 319 132 q 186 -13 319 -13 q 54 132 54 -13 m 384 910 q 350 921 362 910 q 338 950 338 932 q 364 1015 338 978 l 381 1038 q 443 1102 416 1085 q 522 1118 469 1118 l 560 1118 q 605 1103 589 1118 q 622 1067 622 1089 q 589 1009 622 1038 l 551 977 q 469 926 508 941 q 384 910 429 910 z "},"Ř":{"ha":812,"x_min":54,"x_max":772,"o":"m 319 674 l 319 500 l 402 500 q 480 522 456 500 q 505 588 505 543 q 482 653 505 632 q 405 674 458 674 l 319 674 m 54 132 l 54 715 q 199 860 54 860 l 455 860 q 550 852 497 860 q 654 820 603 845 q 737 743 704 794 q 769 602 769 691 q 739 467 769 521 q 663 381 708 413 l 753 161 q 767 123 762 142 q 772 88 772 104 q 741 15 772 42 q 651 -13 710 -13 q 550 21 580 -13 q 497 117 519 55 l 424 315 l 319 315 l 319 132 q 186 -13 319 -13 q 54 132 54 -13 m 570 1016 l 556 999 q 485 934 518 957 q 402 912 453 912 q 318 934 351 912 q 248 999 285 957 l 233 1016 q 217 1053 217 1035 q 236 1097 217 1080 q 288 1113 256 1113 q 333 1099 315 1113 q 367 1065 351 1085 l 402 1022 l 436 1065 q 470 1099 451 1084 q 515 1113 489 1113 q 567 1097 547 1113 q 587 1053 587 1080 q 583 1035 587 1045 q 570 1016 580 1026 z "},"Ŗ":{"ha":812,"x_min":54,"x_max":772,"o":"m 319 674 l 319 500 l 402 500 q 480 522 456 500 q 505 588 505 543 q 482 653 505 632 q 405 674 458 674 l 319 674 m 54 132 l 54 715 q 199 860 54 860 l 455 860 q 550 852 497 860 q 654 820 603 845 q 737 743 704 794 q 769 602 769 691 q 739 467 769 521 q 663 381 708 413 l 753 161 q 767 123 762 142 q 772 88 772 104 q 741 15 772 42 q 651 -13 710 -13 q 550 21 580 -13 q 497 117 519 55 l 424 315 l 319 315 l 319 132 q 186 -13 319 -13 q 54 132 54 -13 m 413 -43 q 474 -67 448 -43 q 499 -129 499 -91 q 484 -214 499 -160 q 422 -315 469 -268 q 390 -340 405 -333 q 365 -348 375 -348 q 353 -343 357 -348 q 349 -334 349 -339 q 359 -313 349 -326 q 388 -280 369 -299 q 411 -247 402 -264 q 426 -212 421 -230 q 419 -212 423 -212 q 413 -212 416 -212 q 353 -188 377 -212 q 328 -128 328 -164 q 353 -68 328 -92 q 413 -43 377 -43 z "},"Ȑ":{"ha":812,"x_min":54,"x_max":772,"o":"m 319 674 l 319 500 l 402 500 q 480 522 456 500 q 505 588 505 543 q 482 653 505 632 q 405 674 458 674 l 319 674 m 54 132 l 54 715 q 199 860 54 860 l 455 860 q 550 852 497 860 q 654 820 603 845 q 737 743 704 794 q 769 602 769 691 q 739 467 769 521 q 663 381 708 413 l 753 161 q 767 123 762 142 q 772 88 772 104 q 741 15 772 42 q 651 -13 710 -13 q 550 21 580 -13 q 497 117 519 55 l 424 315 l 319 315 l 319 132 q 186 -13 319 -13 q 54 132 54 -13 m 298 911 q 227 926 260 911 q 159 978 194 942 l 126 1010 q 106 1039 112 1024 q 99 1068 99 1054 q 113 1104 99 1090 q 150 1119 126 1119 l 182 1119 q 249 1103 226 1119 q 300 1039 272 1087 l 314 1015 q 337 951 337 976 q 327 922 337 933 q 298 911 317 911 m 542 911 q 472 926 505 911 q 403 978 438 942 l 371 1010 q 344 1068 344 1038 q 358 1104 344 1090 q 395 1119 372 1119 l 426 1119 q 493 1102 471 1119 q 544 1039 516 1086 l 559 1015 q 576 980 571 997 q 581 951 581 964 q 571 922 581 933 q 542 911 561 911 z "},"Ȓ":{"ha":812,"x_min":54,"x_max":772,"o":"m 319 674 l 319 500 l 402 500 q 480 522 456 500 q 505 588 505 543 q 482 653 505 632 q 405 674 458 674 l 319 674 m 54 132 l 54 715 q 199 860 54 860 l 455 860 q 550 852 497 860 q 654 820 603 845 q 737 743 704 794 q 769 602 769 691 q 739 467 769 521 q 663 381 708 413 l 753 161 q 767 123 762 142 q 772 88 772 104 q 741 15 772 42 q 651 -13 710 -13 q 550 21 580 -13 q 497 117 519 55 l 424 315 l 319 315 l 319 132 q 186 -13 319 -13 q 54 132 54 -13 m 517 905 q 458 922 475 905 q 437 959 440 940 q 428 980 435 970 q 401 989 422 989 q 375 980 381 989 q 365 959 368 970 q 344 922 361 939 q 285 905 327 905 q 234 923 253 905 q 215 968 215 941 q 227 1014 215 989 q 266 1060 238 1038 q 323 1091 290 1079 q 400 1103 356 1103 q 487 1088 451 1103 q 547 1049 523 1072 q 578 1006 569 1028 q 588 965 588 984 q 569 922 588 939 q 517 905 551 905 z "},"S":{"ha":829,"x_min":33,"x_max":796,"o":"m 411 -15 q 235 7 313 -15 q 109 64 158 28 q 33 199 33 119 q 58 267 33 233 q 138 301 83 301 q 217 281 185 301 q 276 237 249 262 q 335 191 303 212 q 417 171 367 171 q 475 180 450 171 q 514 204 500 188 q 528 242 528 220 q 489 294 528 278 q 366 328 449 310 q 124 441 197 365 q 51 619 51 517 q 99 751 51 695 q 232 838 147 807 q 426 868 317 868 q 570 851 499 868 q 692 800 642 834 q 745 746 725 777 q 766 676 766 715 q 738 602 766 629 q 663 575 709 575 q 584 598 616 575 q 531 640 551 621 q 484 670 513 658 q 413 683 456 683 q 361 675 382 683 q 330 654 340 667 q 319 623 319 640 q 359 573 319 595 q 483 531 398 551 q 642 478 572 510 q 754 393 713 446 q 796 260 796 341 q 748 115 796 177 q 614 19 700 53 q 411 -15 527 -15 z "},"Ś":{"ha":829,"x_min":33,"x_max":796,"o":"m 411 -15 q 235 7 313 -15 q 109 64 158 28 q 33 199 33 119 q 58 267 33 233 q 138 301 83 301 q 217 281 185 301 q 276 237 249 262 q 335 191 303 212 q 417 171 367 171 q 475 180 450 171 q 514 204 500 188 q 528 242 528 220 q 489 294 528 278 q 366 328 449 310 q 124 441 197 365 q 51 619 51 517 q 99 751 51 695 q 232 838 147 807 q 426 868 317 868 q 570 851 499 868 q 692 800 642 834 q 745 746 725 777 q 766 676 766 715 q 738 602 766 629 q 663 575 709 575 q 584 598 616 575 q 531 640 551 621 q 484 670 513 658 q 413 683 456 683 q 361 675 382 683 q 330 654 340 667 q 319 623 319 640 q 359 573 319 595 q 483 531 398 551 q 642 478 572 510 q 754 393 713 446 q 796 260 796 341 q 748 115 796 177 q 614 19 700 53 q 411 -15 527 -15 m 397 910 q 363 921 375 910 q 351 950 351 932 q 377 1015 351 978 l 394 1038 q 456 1102 429 1085 q 535 1118 483 1118 l 574 1118 q 618 1103 602 1118 q 635 1067 635 1089 q 602 1009 635 1038 l 564 977 q 482 926 522 941 q 397 910 442 910 z "},"Š":{"ha":829,"x_min":33,"x_max":796,"o":"m 411 -15 q 235 7 313 -15 q 109 64 158 28 q 33 199 33 119 q 58 267 33 233 q 138 301 83 301 q 217 281 185 301 q 276 237 249 262 q 335 191 303 212 q 417 171 367 171 q 475 180 450 171 q 514 204 500 188 q 528 242 528 220 q 489 294 528 278 q 366 328 449 310 q 124 441 197 365 q 51 619 51 517 q 99 751 51 695 q 232 838 147 807 q 426 868 317 868 q 570 851 499 868 q 692 800 642 834 q 745 746 725 777 q 766 676 766 715 q 738 602 766 629 q 663 575 709 575 q 584 598 616 575 q 531 640 551 621 q 484 670 513 658 q 413 683 456 683 q 361 675 382 683 q 330 654 340 667 q 319 623 319 640 q 359 573 319 595 q 483 531 398 551 q 642 478 572 510 q 754 393 713 446 q 796 260 796 341 q 748 115 796 177 q 614 19 700 53 q 411 -15 527 -15 m 583 1016 l 569 999 q 499 934 531 957 q 415 912 466 912 q 331 934 365 912 q 261 999 298 957 l 247 1016 q 230 1053 230 1035 q 250 1097 230 1080 q 301 1113 269 1113 q 346 1099 328 1113 q 381 1065 365 1085 l 415 1022 l 449 1065 q 483 1099 465 1084 q 528 1113 502 1113 q 580 1097 560 1113 q 600 1053 600 1080 q 597 1035 600 1045 q 583 1016 593 1026 z "},"Ş":{"ha":829,"x_min":33,"x_max":796,"o":"m 390 -330 q 337 -326 360 -330 q 298 -316 314 -323 q 251 -258 251 -295 q 266 -220 251 -233 q 301 -208 282 -208 q 344 -215 319 -208 q 374 -219 358 -218 q 408 -220 389 -220 q 464 -212 443 -220 q 484 -189 484 -204 q 476 -173 484 -178 q 452 -168 467 -168 q 426 -170 439 -168 q 400 -176 413 -172 q 374 -182 387 -180 q 347 -185 360 -185 q 302 -168 317 -185 q 288 -130 288 -152 q 290 -114 288 -122 q 295 -98 292 -106 l 328 -10 q 203 16 258 -3 q 109 64 148 35 q 33 199 33 119 q 58 267 33 233 q 138 301 83 301 q 217 281 185 301 q 276 237 249 262 q 335 191 303 212 q 417 171 367 171 q 475 180 450 171 q 514 204 500 188 q 528 242 528 220 q 489 294 528 278 q 366 328 449 310 q 124 441 197 365 q 51 619 51 517 q 99 751 51 695 q 232 838 147 807 q 426 868 317 868 q 570 851 499 868 q 692 800 642 834 q 745 746 725 777 q 766 676 766 715 q 738 602 766 629 q 663 575 709 575 q 584 598 616 575 q 531 640 551 621 q 484 670 513 658 q 413 683 456 683 q 361 675 382 683 q 330 654 340 667 q 319 623 319 640 q 359 573 319 595 q 483 531 398 551 q 642 478 572 510 q 754 393 713 446 q 796 260 796 341 q 755 124 796 183 q 638 30 713 65 q 461 -13 563 -6 l 428 -106 q 473 -84 449 -90 q 524 -78 497 -78 q 588 -89 556 -78 q 641 -124 619 -100 q 663 -185 663 -147 q 624 -266 663 -233 q 523 -314 585 -298 q 390 -330 461 -330 z "},"Ŝ":{"ha":829,"x_min":33,"x_max":796,"o":"m 411 -15 q 235 7 313 -15 q 109 64 158 28 q 33 199 33 119 q 58 267 33 233 q 138 301 83 301 q 217 281 185 301 q 276 237 249 262 q 335 191 303 212 q 417 171 367 171 q 475 180 450 171 q 514 204 500 188 q 528 242 528 220 q 489 294 528 278 q 366 328 449 310 q 124 441 197 365 q 51 619 51 517 q 99 751 51 695 q 232 838 147 807 q 426 868 317 868 q 570 851 499 868 q 692 800 642 834 q 745 746 725 777 q 766 676 766 715 q 738 602 766 629 q 663 575 709 575 q 584 598 616 575 q 531 640 551 621 q 484 670 513 658 q 413 683 456 683 q 361 675 382 683 q 330 654 340 667 q 319 623 319 640 q 359 573 319 595 q 483 531 398 551 q 642 478 572 510 q 754 393 713 446 q 796 260 796 341 q 748 115 796 177 q 614 19 700 53 q 411 -15 527 -15 m 584 1002 q 601 965 601 983 q 581 922 601 939 q 529 905 561 905 q 484 919 503 905 q 450 952 465 933 l 415 996 l 381 952 q 347 918 365 932 q 302 905 328 905 q 250 922 270 905 q 231 965 231 939 q 234 983 231 973 q 247 1002 238 992 l 262 1019 q 332 1083 299 1061 q 415 1106 365 1106 q 499 1084 467 1106 q 569 1019 532 1062 l 584 1002 z "},"Ș":{"ha":829,"x_min":33,"x_max":796,"o":"m 411 -15 q 235 7 313 -15 q 109 64 158 28 q 33 199 33 119 q 58 267 33 233 q 138 301 83 301 q 217 281 185 301 q 276 237 249 262 q 335 191 303 212 q 417 171 367 171 q 475 180 450 171 q 514 204 500 188 q 528 242 528 220 q 489 294 528 278 q 366 328 449 310 q 124 441 197 365 q 51 619 51 517 q 99 751 51 695 q 232 838 147 807 q 426 868 317 868 q 570 851 499 868 q 692 800 642 834 q 745 746 725 777 q 766 676 766 715 q 738 602 766 629 q 663 575 709 575 q 584 598 616 575 q 531 640 551 621 q 484 670 513 658 q 413 683 456 683 q 361 675 382 683 q 330 654 340 667 q 319 623 319 640 q 359 573 319 595 q 483 531 398 551 q 642 478 572 510 q 754 393 713 446 q 796 260 796 341 q 748 115 796 177 q 614 19 700 53 q 411 -15 527 -15 m 459 -44 q 519 -68 494 -44 q 545 -131 545 -92 q 530 -215 545 -161 q 467 -317 515 -269 q 436 -342 451 -334 q 410 -349 421 -349 q 399 -345 403 -349 q 394 -335 394 -340 q 405 -314 394 -328 q 434 -281 415 -301 q 457 -248 448 -265 q 472 -214 467 -231 q 465 -214 469 -214 q 459 -214 462 -214 q 399 -190 423 -214 q 374 -129 374 -165 q 399 -69 374 -94 q 459 -44 423 -44 z "},"ẞ":{"ha":865,"x_min":47,"x_max":832,"o":"m 642 469 q 657 446 642 456 q 701 419 672 435 q 747 390 724 406 q 789 352 770 374 q 820 299 808 330 q 832 224 832 267 q 785 88 832 140 q 663 10 738 35 q 501 -15 588 -15 q 416 -3 454 -15 q 356 33 378 8 q 334 99 334 58 q 349 156 334 137 q 384 182 364 175 q 419 188 403 188 q 457 185 440 188 q 478 183 467 184 q 501 183 490 183 q 560 187 538 183 q 592 201 582 191 q 601 226 601 210 q 581 262 601 244 q 533 295 560 280 q 490 319 507 310 q 424 367 458 336 q 390 446 390 399 q 408 523 390 497 q 450 572 426 549 q 475 598 462 583 q 497 626 488 612 q 506 651 506 640 q 498 671 506 665 q 467 677 490 677 l 399 677 q 342 667 366 677 q 307 633 319 658 q 294 562 294 608 l 294 146 q 171 0 294 0 q 47 146 47 0 l 47 576 q 73 720 47 665 q 141 806 99 776 q 234 848 183 837 q 335 860 285 860 l 650 860 q 749 820 717 860 q 780 723 780 780 q 768 657 780 687 q 736 602 756 628 q 696 553 717 577 q 658 506 674 528 q 642 469 642 483 z "},"T":{"ha":785,"x_min":19,"x_max":765,"o":"m 633 860 q 765 767 765 860 q 729 698 765 722 q 641 674 693 674 l 524 674 l 524 132 q 392 -13 524 -13 q 260 132 260 -13 l 260 674 l 158 674 q 56 698 93 674 q 19 767 19 722 q 56 836 19 813 q 158 860 93 860 l 633 860 z "},"Ŧ":{"ha":785,"x_min":19,"x_max":765,"o":"m 144 463 q 176 522 144 501 q 290 542 209 542 l 487 542 q 600 522 568 542 q 633 463 633 501 q 600 404 633 424 q 487 383 568 383 l 290 383 q 176 404 209 383 q 144 463 144 424 m 633 860 q 765 767 765 860 q 729 698 765 722 q 641 674 693 674 l 524 674 l 524 132 q 392 -13 524 -13 q 260 132 260 -13 l 260 674 l 158 674 q 56 698 93 674 q 19 767 19 722 q 56 836 19 813 q 158 860 93 860 l 633 860 z "},"Ť":{"ha":785,"x_min":19,"x_max":765,"o":"m 633 860 q 765 767 765 860 q 729 698 765 722 q 641 674 693 674 l 524 674 l 524 132 q 392 -13 524 -13 q 260 132 260 -13 l 260 674 l 158 674 q 56 698 93 674 q 19 767 19 722 q 56 836 19 813 q 158 860 93 860 l 633 860 m 562 1016 l 547 999 q 477 934 510 957 q 394 912 444 912 q 310 934 343 912 q 240 999 276 957 l 225 1016 q 208 1053 208 1035 q 228 1097 208 1080 q 280 1113 248 1113 q 325 1099 306 1113 q 359 1065 343 1085 l 394 1022 l 428 1065 q 462 1099 443 1084 q 507 1113 481 1113 q 559 1097 539 1113 q 578 1053 578 1080 q 575 1035 578 1045 q 562 1016 572 1026 z "},"Ţ":{"ha":785,"x_min":19,"x_max":765,"o":"m 633 860 q 765 767 765 860 q 729 698 765 722 q 641 674 693 674 l 524 674 l 524 132 q 392 -13 524 -13 q 260 132 260 -13 l 260 674 l 158 674 q 56 698 93 674 q 19 767 19 722 q 56 836 19 813 q 158 860 93 860 l 633 860 m 388 -318 q 335 -315 358 -318 q 296 -304 312 -311 q 249 -246 249 -283 q 264 -209 249 -222 q 299 -196 280 -196 q 342 -203 317 -196 q 372 -207 356 -206 q 406 -208 387 -208 q 461 -200 441 -208 q 482 -177 482 -192 q 474 -161 482 -167 q 450 -156 465 -156 q 424 -158 437 -156 q 398 -164 410 -160 q 372 -170 385 -168 q 345 -173 358 -173 q 300 -157 315 -173 q 286 -118 286 -140 q 288 -102 286 -110 q 293 -86 290 -94 l 334 23 q 413 72 353 72 q 449 61 433 72 q 466 19 466 49 l 426 -94 q 470 -72 447 -78 q 522 -66 494 -66 q 585 -77 553 -66 q 639 -112 617 -88 q 660 -173 660 -135 q 622 -254 660 -222 q 521 -302 583 -286 q 388 -318 459 -318 z "},"Ț":{"ha":785,"x_min":19,"x_max":765,"o":"m 633 860 q 765 767 765 860 q 729 698 765 722 q 641 674 693 674 l 524 674 l 524 132 q 392 -13 524 -13 q 260 132 260 -13 l 260 674 l 158 674 q 56 698 93 674 q 19 767 19 722 q 56 836 19 813 q 158 860 93 860 l 633 860 m 457 -33 q 517 -57 492 -33 q 543 -119 543 -81 q 528 -203 543 -149 q 465 -305 513 -258 q 434 -330 449 -322 q 408 -337 419 -337 q 397 -333 401 -337 q 392 -324 392 -328 q 403 -302 392 -316 q 432 -269 413 -289 q 455 -236 446 -253 q 469 -202 465 -219 q 463 -202 467 -202 q 457 -202 460 -202 q 397 -178 421 -202 q 372 -117 372 -153 q 397 -57 372 -82 q 457 -33 421 -33 z "},"U":{"ha":856,"x_min":54,"x_max":801,"o":"m 428 -15 q 241 22 326 -15 q 105 139 156 58 q 54 353 54 219 l 54 715 q 186 860 54 860 q 319 715 319 860 l 319 367 q 346 224 319 277 q 428 171 373 171 q 510 224 484 171 q 537 367 537 277 l 537 715 q 669 860 537 860 q 801 715 801 860 l 801 353 q 751 139 801 219 q 616 22 701 58 q 428 -15 532 -15 z "},"Ú":{"ha":856,"x_min":54,"x_max":801,"o":"m 428 -15 q 241 22 326 -15 q 105 139 156 58 q 54 353 54 219 l 54 715 q 186 860 54 860 q 319 715 319 860 l 319 367 q 346 224 319 277 q 428 171 373 171 q 510 224 484 171 q 537 367 537 277 l 537 715 q 669 860 537 860 q 801 715 801 860 l 801 353 q 751 139 801 219 q 616 22 701 58 q 428 -15 532 -15 m 409 910 q 375 921 387 910 q 363 950 363 932 q 389 1015 363 978 l 406 1038 q 468 1102 441 1085 q 547 1118 494 1118 l 585 1118 q 630 1103 614 1118 q 647 1067 647 1089 q 614 1009 647 1038 l 576 977 q 494 926 533 941 q 409 910 454 910 z "},"Ŭ":{"ha":856,"x_min":54,"x_max":801,"o":"m 428 -15 q 241 22 326 -15 q 105 139 156 58 q 54 353 54 219 l 54 715 q 186 860 54 860 q 319 715 319 860 l 319 367 q 346 224 319 277 q 428 171 373 171 q 510 224 484 171 q 537 367 537 277 l 537 715 q 669 860 537 860 q 801 715 801 860 l 801 353 q 751 139 801 219 q 616 22 701 58 q 428 -15 532 -15 m 542 1110 q 594 1093 576 1110 q 613 1049 613 1076 q 603 1009 613 1031 q 572 965 594 987 q 512 927 548 942 q 425 911 476 911 q 348 923 381 911 q 291 954 315 935 q 252 1001 263 976 q 240 1047 240 1026 q 259 1092 240 1074 q 310 1110 278 1110 q 369 1093 352 1110 q 390 1056 386 1076 q 400 1035 393 1044 q 426 1026 406 1026 q 453 1035 447 1026 q 462 1056 460 1044 q 483 1093 465 1076 q 542 1110 500 1110 z "},"Ǔ":{"ha":856,"x_min":54,"x_max":801,"o":"m 428 -15 q 241 22 326 -15 q 105 139 156 58 q 54 353 54 219 l 54 715 q 186 860 54 860 q 319 715 319 860 l 319 367 q 346 224 319 277 q 428 171 373 171 q 510 224 484 171 q 537 367 537 277 l 537 715 q 669 860 537 860 q 801 715 801 860 l 801 353 q 751 139 801 219 q 616 22 701 58 q 428 -15 532 -15 m 595 1016 l 581 999 q 510 934 543 957 q 427 912 478 912 q 343 934 376 912 q 273 999 310 957 l 258 1016 q 242 1053 242 1035 q 261 1097 242 1080 q 313 1113 281 1113 q 358 1099 340 1113 q 392 1065 376 1085 l 427 1022 l 461 1065 q 495 1099 476 1084 q 540 1113 514 1113 q 592 1097 572 1113 q 612 1053 612 1080 q 608 1035 612 1045 q 595 1016 605 1026 z "},"Û":{"ha":856,"x_min":54,"x_max":801,"o":"m 428 -15 q 241 22 326 -15 q 105 139 156 58 q 54 353 54 219 l 54 715 q 186 860 54 860 q 319 715 319 860 l 319 367 q 346 224 319 277 q 428 171 373 171 q 510 224 484 171 q 537 367 537 277 l 537 715 q 669 860 537 860 q 801 715 801 860 l 801 353 q 751 139 801 219 q 616 22 701 58 q 428 -15 532 -15 m 596 1002 q 613 965 613 983 q 593 922 613 939 q 541 905 573 905 q 496 919 515 905 q 462 952 477 933 l 427 996 l 393 952 q 359 918 377 932 q 314 905 340 905 q 262 922 282 905 q 242 965 242 939 q 246 983 242 973 q 259 1002 250 992 l 274 1019 q 343 1083 310 1061 q 427 1106 376 1106 q 511 1084 478 1106 q 581 1019 544 1062 l 596 1002 z "},"Ȕ":{"ha":856,"x_min":54,"x_max":801,"o":"m 428 -15 q 241 22 326 -15 q 105 139 156 58 q 54 353 54 219 l 54 715 q 186 860 54 860 q 319 715 319 860 l 319 367 q 346 224 319 277 q 428 171 373 171 q 510 224 484 171 q 537 367 537 277 l 537 715 q 669 860 537 860 q 801 715 801 860 l 801 353 q 751 139 801 219 q 616 22 701 58 q 428 -15 532 -15 m 323 911 q 252 926 285 911 q 184 978 219 942 l 151 1010 q 131 1039 137 1024 q 124 1068 124 1054 q 138 1104 124 1090 q 175 1119 151 1119 l 207 1119 q 274 1103 251 1119 q 325 1039 297 1087 l 339 1015 q 362 951 362 976 q 352 922 362 933 q 323 911 342 911 m 567 911 q 497 926 530 911 q 428 978 463 942 l 396 1010 q 369 1068 369 1038 q 383 1104 369 1090 q 420 1119 397 1119 l 451 1119 q 518 1102 496 1119 q 569 1039 541 1086 l 584 1015 q 601 980 596 997 q 606 951 606 964 q 596 922 606 933 q 567 911 586 911 z "},"Ü":{"ha":856,"x_min":54,"x_max":801,"o":"m 428 -15 q 241 22 326 -15 q 105 139 156 58 q 54 353 54 219 l 54 715 q 186 860 54 860 q 319 715 319 860 l 319 367 q 346 224 319 277 q 428 171 373 171 q 510 224 484 171 q 537 367 537 277 l 537 715 q 669 860 537 860 q 801 715 801 860 l 801 353 q 751 139 801 219 q 616 22 701 58 q 428 -15 532 -15 m 274 914 q 184 950 221 914 q 148 1040 148 987 q 184 1131 148 1094 q 274 1168 221 1168 q 363 1131 326 1168 q 399 1040 399 1094 q 363 950 399 987 q 274 914 326 914 m 579 914 q 490 950 526 914 q 453 1040 453 987 q 490 1131 453 1094 q 579 1168 526 1168 q 669 1131 633 1168 q 706 1040 706 1094 q 669 950 706 987 q 579 914 633 914 z "},"Ǘ":{"ha":856,"x_min":54,"x_max":801,"o":"m 428 -15 q 241 22 326 -15 q 105 139 156 58 q 54 353 54 219 l 54 715 q 186 860 54 860 q 319 715 319 860 l 319 367 q 346 224 319 277 q 428 171 373 171 q 510 224 484 171 q 537 367 537 277 l 537 715 q 669 860 537 860 q 801 715 801 860 l 801 353 q 751 139 801 219 q 616 22 701 58 q 428 -15 532 -15 m 274 914 q 184 950 221 914 q 148 1040 148 987 q 184 1131 148 1094 q 274 1168 221 1168 q 363 1131 326 1168 q 399 1040 399 1094 q 363 950 399 987 q 274 914 326 914 m 579 914 q 490 950 526 914 q 453 1040 453 987 q 490 1131 453 1094 q 579 1168 526 1168 q 669 1131 633 1168 q 706 1040 706 1094 q 669 950 706 987 q 579 914 633 914 m 409 1217 q 375 1228 387 1217 q 363 1257 363 1239 q 389 1322 363 1285 l 406 1345 q 468 1409 441 1392 q 547 1425 494 1425 l 585 1425 q 630 1410 614 1425 q 647 1374 647 1396 q 614 1316 647 1344 l 576 1284 q 494 1233 533 1248 q 409 1217 454 1217 z "},"Ǚ":{"ha":856,"x_min":54,"x_max":801,"o":"m 428 -15 q 241 22 326 -15 q 105 139 156 58 q 54 353 54 219 l 54 715 q 186 860 54 860 q 319 715 319 860 l 319 367 q 346 224 319 277 q 428 171 373 171 q 510 224 484 171 q 537 367 537 277 l 537 715 q 669 860 537 860 q 801 715 801 860 l 801 353 q 751 139 801 219 q 616 22 701 58 q 428 -15 532 -15 m 274 914 q 184 950 221 914 q 148 1040 148 987 q 184 1131 148 1094 q 274 1168 221 1168 q 363 1131 326 1168 q 399 1040 399 1094 q 363 950 399 987 q 274 914 326 914 m 579 914 q 490 950 526 914 q 453 1040 453 987 q 490 1131 453 1094 q 579 1168 526 1168 q 669 1131 633 1168 q 706 1040 706 1094 q 669 950 706 987 q 579 914 633 914 m 595 1323 l 581 1306 q 510 1241 543 1264 q 427 1219 478 1219 q 343 1241 376 1219 q 273 1306 310 1264 l 258 1323 q 242 1360 242 1342 q 261 1403 242 1387 q 313 1420 281 1420 q 358 1406 340 1420 q 392 1372 376 1392 l 427 1328 l 461 1372 q 495 1406 476 1391 q 540 1420 514 1420 q 592 1403 572 1420 q 612 1360 612 1387 q 608 1342 612 1352 q 595 1323 605 1333 z "},"Ǜ":{"ha":856,"x_min":54,"x_max":801,"o":"m 428 -15 q 241 22 326 -15 q 105 139 156 58 q 54 353 54 219 l 54 715 q 186 860 54 860 q 319 715 319 860 l 319 367 q 346 224 319 277 q 428 171 373 171 q 510 224 484 171 q 537 367 537 277 l 537 715 q 669 860 537 860 q 801 715 801 860 l 801 353 q 751 139 801 219 q 616 22 701 58 q 428 -15 532 -15 m 274 914 q 184 950 221 914 q 148 1040 148 987 q 184 1131 148 1094 q 274 1168 221 1168 q 363 1131 326 1168 q 399 1040 399 1094 q 363 950 399 987 q 274 914 326 914 m 579 914 q 490 950 526 914 q 453 1040 453 987 q 490 1131 453 1094 q 579 1168 526 1168 q 669 1131 633 1168 q 706 1040 706 1094 q 669 950 706 987 q 579 914 633 914 m 469 1210 q 385 1226 425 1210 q 303 1276 345 1241 l 265 1309 q 232 1367 232 1337 q 249 1403 232 1389 q 293 1418 265 1418 l 331 1418 q 411 1402 384 1418 q 472 1338 438 1385 l 490 1314 q 516 1249 516 1277 q 504 1221 516 1232 q 469 1210 492 1210 z "},"Ǖ":{"ha":856,"x_min":54,"x_max":801,"o":"m 428 -15 q 241 22 326 -15 q 105 139 156 58 q 54 353 54 219 l 54 715 q 186 860 54 860 q 319 715 319 860 l 319 367 q 346 224 319 277 q 428 171 373 171 q 510 224 484 171 q 537 367 537 277 l 537 715 q 669 860 537 860 q 801 715 801 860 l 801 353 q 751 139 801 219 q 616 22 701 58 q 428 -15 532 -15 m 274 914 q 184 950 221 914 q 148 1040 148 987 q 184 1131 148 1094 q 274 1168 221 1168 q 363 1131 326 1168 q 399 1040 399 1094 q 363 950 399 987 q 274 914 326 914 m 579 914 q 490 950 526 914 q 453 1040 453 987 q 490 1131 453 1094 q 579 1168 526 1168 q 669 1131 633 1168 q 706 1040 706 1094 q 669 950 706 987 q 579 914 633 914 m 143 1294 q 173 1347 143 1327 q 268 1366 202 1366 l 583 1366 q 679 1347 649 1366 q 708 1294 708 1327 q 679 1242 708 1262 q 583 1223 649 1223 l 268 1223 q 173 1242 202 1223 q 143 1294 143 1262 z "},"Ụ":{"ha":856,"x_min":54,"x_max":801,"o":"m 428 -15 q 241 22 326 -15 q 105 139 156 58 q 54 353 54 219 l 54 715 q 186 860 54 860 q 319 715 319 860 l 319 367 q 346 224 319 277 q 428 171 373 171 q 510 224 484 171 q 537 367 537 277 l 537 715 q 669 860 537 860 q 801 715 801 860 l 801 353 q 751 139 801 219 q 616 22 701 58 q 428 -15 532 -15 m 427 -298 q 338 -261 374 -298 q 301 -171 301 -224 q 338 -81 301 -117 q 427 -44 374 -44 q 516 -81 480 -44 q 553 -171 553 -117 q 516 -263 553 -228 q 427 -298 480 -298 z "},"Ù":{"ha":856,"x_min":54,"x_max":801,"o":"m 428 -15 q 241 22 326 -15 q 105 139 156 58 q 54 353 54 219 l 54 715 q 186 860 54 860 q 319 715 319 860 l 319 367 q 346 224 319 277 q 428 171 373 171 q 510 224 484 171 q 537 367 537 277 l 537 715 q 669 860 537 860 q 801 715 801 860 l 801 353 q 751 139 801 219 q 616 22 701 58 q 428 -15 532 -15 m 469 903 q 385 919 425 903 q 303 969 345 934 l 265 1002 q 232 1060 232 1030 q 249 1097 232 1082 q 293 1111 265 1111 l 331 1111 q 411 1095 384 1111 q 472 1031 438 1078 l 490 1007 q 516 942 516 970 q 504 914 516 925 q 469 903 492 903 z "},"Ủ":{"ha":856,"x_min":54,"x_max":801,"o":"m 428 -15 q 241 22 326 -15 q 105 139 156 58 q 54 353 54 219 l 54 715 q 186 860 54 860 q 319 715 319 860 l 319 367 q 346 224 319 277 q 428 171 373 171 q 510 224 484 171 q 537 367 537 277 l 537 715 q 669 860 537 860 q 801 715 801 860 l 801 353 q 751 139 801 219 q 616 22 701 58 q 428 -15 532 -15 m 390 910 q 345 926 360 910 q 330 966 330 942 q 344 1008 330 990 q 390 1026 358 1026 q 443 1035 419 1026 q 468 1064 468 1044 q 444 1089 468 1083 q 397 1094 421 1094 q 353 1093 369 1094 q 321 1085 338 1091 q 305 1082 312 1083 q 290 1081 297 1081 q 259 1091 272 1081 q 246 1122 246 1102 q 289 1185 246 1163 q 405 1208 333 1208 q 502 1195 456 1208 q 578 1151 548 1183 q 608 1063 608 1119 q 572 974 608 1008 q 486 925 537 940 q 390 910 435 910 z "},"Ư":{"ha":937,"x_min":54,"x_max":1001,"o":"m 428 -15 q 241 18 326 -15 q 105 128 156 51 q 54 339 54 206 l 54 715 q 187 860 54 860 q 319 715 319 860 l 319 353 q 346 217 319 263 q 428 171 374 171 q 511 217 484 171 q 538 353 538 263 l 538 715 q 669 860 538 860 q 743 870 715 860 q 785 909 770 881 q 810 985 801 936 q 841 1050 818 1024 q 906 1076 863 1076 q 976 1055 952 1076 q 1001 978 1001 1033 q 980 870 1001 922 q 917 784 959 817 q 813 751 876 751 l 802 751 l 802 339 q 752 128 802 206 q 617 18 701 51 q 428 -15 532 -15 z "},"Ứ":{"ha":937,"x_min":54,"x_max":1001,"o":"m 428 -15 q 241 18 326 -15 q 105 128 156 51 q 54 339 54 206 l 54 715 q 187 860 54 860 q 319 715 319 860 l 319 353 q 346 217 319 263 q 428 171 374 171 q 511 217 484 171 q 538 353 538 263 l 538 715 q 669 860 538 860 q 743 870 715 860 q 785 909 770 881 q 810 985 801 936 q 841 1050 818 1024 q 906 1076 863 1076 q 976 1055 952 1076 q 1001 978 1001 1033 q 980 870 1001 922 q 917 784 959 817 q 813 751 876 751 l 802 751 l 802 339 q 752 128 802 206 q 617 18 701 51 q 428 -15 532 -15 m 410 910 q 375 921 388 910 q 363 950 363 932 q 390 1015 363 978 l 407 1038 q 468 1102 442 1085 q 548 1118 495 1118 l 586 1118 q 631 1103 615 1118 q 647 1067 647 1089 q 615 1009 647 1038 l 576 977 q 494 926 534 941 q 410 910 455 910 z "},"Ự":{"ha":937,"x_min":54,"x_max":1001,"o":"m 428 -15 q 241 18 326 -15 q 105 128 156 51 q 54 339 54 206 l 54 715 q 187 860 54 860 q 319 715 319 860 l 319 353 q 346 217 319 263 q 428 171 374 171 q 511 217 484 171 q 538 353 538 263 l 538 715 q 669 860 538 860 q 743 870 715 860 q 785 909 770 881 q 810 985 801 936 q 841 1050 818 1024 q 906 1076 863 1076 q 976 1055 952 1076 q 1001 978 1001 1033 q 980 870 1001 922 q 917 784 959 817 q 813 751 876 751 l 802 751 l 802 339 q 752 128 802 206 q 617 18 701 51 q 428 -15 532 -15 m 428 -298 q 339 -261 375 -298 q 302 -171 302 -224 q 339 -81 302 -117 q 428 -44 375 -44 q 517 -81 481 -44 q 553 -171 553 -117 q 517 -263 553 -228 q 428 -298 481 -298 z "},"Ừ":{"ha":937,"x_min":54,"x_max":1001,"o":"m 428 -15 q 241 18 326 -15 q 105 128 156 51 q 54 339 54 206 l 54 715 q 187 860 54 860 q 319 715 319 860 l 319 353 q 346 217 319 263 q 428 171 374 171 q 511 217 484 171 q 538 353 538 263 l 538 715 q 669 860 538 860 q 743 870 715 860 q 785 909 770 881 q 810 985 801 936 q 841 1050 818 1024 q 906 1076 863 1076 q 976 1055 952 1076 q 1001 978 1001 1033 q 980 870 1001 922 q 917 784 959 817 q 813 751 876 751 l 802 751 l 802 339 q 752 128 802 206 q 617 18 701 51 q 428 -15 532 -15 m 470 903 q 386 919 426 903 q 303 969 346 934 l 265 1002 q 233 1060 233 1030 q 249 1097 233 1082 q 294 1111 266 1111 l 332 1111 q 412 1095 385 1111 q 473 1031 439 1078 l 490 1007 q 517 942 517 970 q 505 914 517 925 q 470 903 492 903 z "},"Ử":{"ha":937,"x_min":54,"x_max":1001,"o":"m 428 -15 q 241 18 326 -15 q 105 128 156 51 q 54 339 54 206 l 54 715 q 187 860 54 860 q 319 715 319 860 l 319 353 q 346 217 319 263 q 428 171 374 171 q 511 217 484 171 q 538 353 538 263 l 538 715 q 669 860 538 860 q 743 870 715 860 q 785 909 770 881 q 810 985 801 936 q 841 1050 818 1024 q 906 1076 863 1076 q 976 1055 952 1076 q 1001 978 1001 1033 q 980 870 1001 922 q 917 784 959 817 q 813 751 876 751 l 802 751 l 802 339 q 752 128 802 206 q 617 18 701 51 q 428 -15 532 -15 m 390 910 q 346 926 361 910 q 331 966 331 942 q 345 1008 331 990 q 390 1026 359 1026 q 444 1035 419 1026 q 469 1064 469 1044 q 445 1089 469 1083 q 397 1094 422 1094 q 354 1093 370 1094 q 322 1085 338 1091 q 305 1082 313 1083 q 290 1081 298 1081 q 260 1091 273 1081 q 247 1122 247 1102 q 290 1185 247 1163 q 406 1208 333 1208 q 502 1195 456 1208 q 578 1151 549 1183 q 608 1063 608 1119 q 573 974 608 1008 q 487 925 538 940 q 390 910 436 910 z "},"Ữ":{"ha":937,"x_min":54,"x_max":1001,"o":"m 428 -15 q 241 18 326 -15 q 105 128 156 51 q 54 339 54 206 l 54 715 q 187 860 54 860 q 319 715 319 860 l 319 353 q 346 217 319 263 q 428 171 374 171 q 511 217 484 171 q 538 353 538 263 l 538 715 q 669 860 538 860 q 743 870 715 860 q 785 909 770 881 q 810 985 801 936 q 841 1050 818 1024 q 906 1076 863 1076 q 976 1055 952 1076 q 1001 978 1001 1033 q 980 870 1001 922 q 917 784 959 817 q 813 751 876 751 l 802 751 l 802 339 q 752 128 802 206 q 617 18 701 51 q 428 -15 532 -15 m 510 916 q 453 927 474 916 q 414 951 432 938 q 388 967 401 960 q 355 974 374 974 q 321 968 337 974 q 291 956 305 963 q 269 946 280 950 q 250 942 259 942 q 224 957 234 942 q 213 993 213 972 q 256 1076 213 1037 q 295 1100 273 1091 q 344 1109 317 1109 q 402 1100 381 1109 q 437 1078 423 1092 q 462 1058 448 1067 q 500 1050 476 1050 q 531 1055 518 1050 q 555 1068 543 1060 q 572 1077 563 1074 q 594 1081 581 1081 q 627 1068 612 1081 q 642 1029 642 1056 q 621 974 642 999 q 576 934 603 952 q 510 916 549 916 z "},"Ű":{"ha":856,"x_min":54,"x_max":801,"o":"m 428 -15 q 241 22 326 -15 q 105 139 156 58 q 54 353 54 219 l 54 715 q 186 860 54 860 q 319 715 319 860 l 319 367 q 346 224 319 277 q 428 171 373 171 q 510 224 484 171 q 537 367 537 277 l 537 715 q 669 860 537 860 q 801 715 801 860 l 801 353 q 751 139 801 219 q 616 22 701 58 q 428 -15 532 -15 m 449 1004 l 469 1041 q 513 1105 493 1088 q 569 1121 532 1121 l 617 1121 q 647 1110 637 1121 q 658 1083 658 1099 q 631 1025 658 1056 l 590 979 q 538 929 559 944 q 484 913 517 913 q 450 925 465 913 q 436 958 436 937 q 449 1004 436 978 m 225 1004 l 244 1041 q 288 1105 269 1088 q 346 1121 308 1121 l 393 1121 q 423 1110 413 1121 q 433 1083 433 1099 q 407 1025 433 1056 l 366 979 q 314 929 335 944 q 260 913 292 913 q 226 925 240 913 q 212 958 212 937 q 225 1004 212 978 z "},"Ȗ":{"ha":856,"x_min":54,"x_max":801,"o":"m 428 -15 q 241 22 326 -15 q 105 139 156 58 q 54 353 54 219 l 54 715 q 186 860 54 860 q 319 715 319 860 l 319 367 q 346 224 319 277 q 428 171 373 171 q 510 224 484 171 q 537 367 537 277 l 537 715 q 669 860 537 860 q 801 715 801 860 l 801 353 q 751 139 801 219 q 616 22 701 58 q 428 -15 532 -15 m 542 905 q 483 922 500 905 q 462 959 465 940 q 453 980 460 970 q 426 989 447 989 q 400 980 406 989 q 390 959 393 970 q 369 922 386 939 q 310 905 352 905 q 259 923 278 905 q 240 968 240 941 q 252 1014 240 989 q 291 1060 263 1038 q 348 1091 315 1079 q 425 1103 381 1103 q 512 1088 476 1103 q 572 1049 548 1072 q 603 1006 594 1028 q 613 965 613 984 q 594 922 613 939 q 542 905 576 905 z "},"Ū":{"ha":856,"x_min":54,"x_max":801,"o":"m 428 -15 q 241 22 326 -15 q 105 139 156 58 q 54 353 54 219 l 54 715 q 186 860 54 860 q 319 715 319 860 l 319 367 q 346 224 319 277 q 428 171 373 171 q 510 224 484 171 q 537 367 537 277 l 537 715 q 669 860 537 860 q 801 715 801 860 l 801 353 q 751 139 801 219 q 616 22 701 58 q 428 -15 532 -15 m 143 988 q 173 1040 143 1020 q 268 1059 202 1059 l 583 1059 q 679 1040 649 1059 q 708 988 708 1020 q 679 935 708 955 q 583 916 649 916 l 268 916 q 173 935 202 916 q 143 988 143 955 z "},"Ų":{"ha":871,"x_min":54,"x_max":801,"o":"m 624 -297 q 519 -285 569 -297 q 440 -241 470 -272 q 409 -155 409 -210 q 423 -82 409 -116 q 459 -23 437 -49 q 506 20 481 3 q 554 42 531 37 l 669 42 q 637 10 655 33 q 606 -41 619 -12 q 593 -97 593 -70 q 606 -138 593 -125 q 646 -151 619 -151 q 671 -149 655 -151 q 697 -144 688 -147 q 723 -140 710 -141 q 744 -138 735 -138 q 788 -156 775 -138 q 800 -201 800 -174 q 750 -274 800 -250 q 624 -297 700 -297 m 428 -15 q 241 22 326 -15 q 105 139 156 58 q 54 353 54 219 l 54 715 q 186 860 54 860 q 319 715 319 860 l 319 367 q 346 224 319 277 q 428 171 373 171 q 510 224 484 171 q 537 367 537 277 l 537 715 q 669 860 537 860 q 801 715 801 860 l 801 353 q 751 139 801 219 q 616 22 701 58 q 428 -15 532 -15 z "},"Ů":{"ha":856,"x_min":54,"x_max":801,"o":"m 428 -15 q 241 22 326 -15 q 105 139 156 58 q 54 353 54 219 l 54 715 q 186 860 54 860 q 319 715 319 860 l 319 367 q 346 224 319 277 q 428 171 373 171 q 510 224 484 171 q 537 367 537 277 l 537 715 q 669 860 537 860 q 801 715 801 860 l 801 353 q 751 139 801 219 q 616 22 701 58 q 428 -15 532 -15 m 428 903 q 317 947 363 903 q 271 1058 271 991 q 292 1135 271 1101 q 349 1191 313 1170 q 428 1213 385 1213 q 505 1191 469 1213 q 561 1135 540 1170 q 582 1058 582 1101 q 536 947 582 991 q 428 903 490 903 m 428 1019 q 453 1030 442 1019 q 464 1058 464 1041 q 453 1084 464 1073 q 428 1094 442 1094 q 400 1084 410 1094 q 390 1058 390 1073 q 400 1030 390 1041 q 428 1019 410 1019 z "},"Ũ":{"ha":856,"x_min":54,"x_max":801,"o":"m 428 -15 q 241 22 326 -15 q 105 139 156 58 q 54 353 54 219 l 54 715 q 186 860 54 860 q 319 715 319 860 l 319 367 q 346 224 319 277 q 428 171 373 171 q 510 224 484 171 q 537 367 537 277 l 537 715 q 669 860 537 860 q 801 715 801 860 l 801 353 q 751 139 801 219 q 616 22 701 58 q 428 -15 532 -15 m 510 916 q 452 927 473 916 q 413 951 431 938 q 387 967 401 960 q 354 974 374 974 q 320 968 336 974 q 290 956 304 963 q 269 946 279 950 q 249 942 258 942 q 223 957 233 942 q 213 993 213 972 q 256 1076 213 1037 q 294 1100 272 1091 q 343 1109 316 1109 q 401 1100 381 1109 q 436 1078 422 1092 q 461 1058 447 1067 q 499 1050 476 1050 q 530 1055 517 1050 q 554 1068 542 1060 q 571 1077 562 1074 q 593 1081 581 1081 q 626 1068 611 1081 q 642 1029 642 1056 q 620 974 642 999 q 576 934 603 952 q 510 916 549 916 z "},"V":{"ha":815,"x_min":19,"x_max":796,"o":"m 427 0 l 389 0 q 268 32 313 0 q 203 128 223 65 l 25 706 q 20 729 22 718 q 19 749 19 740 q 56 836 19 806 q 147 867 92 867 q 242 834 214 867 q 285 735 269 801 l 408 222 l 531 735 q 575 834 547 801 q 668 867 602 867 q 760 835 724 867 q 796 749 796 804 q 795 728 796 739 q 791 706 794 718 l 613 128 q 548 32 593 65 q 427 0 503 0 z "},"W":{"ha":1043,"x_min":19,"x_max":1024,"o":"m 308 -13 q 191 23 239 -13 q 131 134 142 60 q 120 188 128 151 q 103 275 113 225 q 82 382 93 325 q 59 494 70 438 q 39 599 48 550 q 25 683 31 648 q 19 733 19 719 q 55 831 19 794 q 149 867 91 867 q 241 830 213 867 q 278 722 269 793 l 329 287 l 392 638 q 428 743 403 706 q 522 781 453 781 q 615 743 590 781 q 651 638 640 706 l 712 288 l 763 722 q 804 830 772 793 q 901 867 836 867 q 991 831 958 867 q 1024 733 1024 794 q 1018 687 1024 721 q 1004 604 1013 653 q 984 499 995 556 q 961 385 973 442 q 940 277 950 328 q 923 189 930 226 q 913 134 915 151 q 852 23 901 60 q 735 -13 804 -13 l 728 -13 q 613 31 660 -13 q 554 158 566 74 l 522 392 l 490 158 q 432 31 479 74 q 317 -13 385 -13 l 308 -13 z "},"Ẃ":{"ha":1043,"x_min":19,"x_max":1024,"o":"m 308 -13 q 191 23 239 -13 q 131 134 142 60 q 120 188 128 151 q 103 275 113 225 q 82 382 93 325 q 59 494 70 438 q 39 599 48 550 q 25 683 31 648 q 19 733 19 719 q 55 831 19 794 q 149 867 91 867 q 241 830 213 867 q 278 722 269 793 l 329 287 l 392 638 q 428 743 403 706 q 522 781 453 781 q 615 743 590 781 q 651 638 640 706 l 712 288 l 763 722 q 804 830 772 793 q 901 867 836 867 q 991 831 958 867 q 1024 733 1024 794 q 1018 687 1024 721 q 1004 604 1013 653 q 984 499 995 556 q 961 385 973 442 q 940 277 950 328 q 923 189 930 226 q 913 134 915 151 q 852 23 901 60 q 735 -13 804 -13 l 728 -13 q 613 31 660 -13 q 554 158 566 74 l 522 392 l 490 158 q 432 31 479 74 q 317 -13 385 -13 l 308 -13 m 506 910 q 472 921 484 910 q 460 950 460 932 q 486 1015 460 978 l 503 1038 q 565 1102 538 1085 q 644 1118 592 1118 l 683 1118 q 727 1103 711 1118 q 744 1067 744 1089 q 711 1009 744 1038 l 673 977 q 591 926 631 941 q 506 910 551 910 z "},"Ŵ":{"ha":1043,"x_min":19,"x_max":1024,"o":"m 308 -13 q 191 23 239 -13 q 131 134 142 60 q 120 188 128 151 q 103 275 113 225 q 82 382 93 325 q 59 494 70 438 q 39 599 48 550 q 25 683 31 648 q 19 733 19 719 q 55 831 19 794 q 149 867 91 867 q 241 830 213 867 q 278 722 269 793 l 329 287 l 392 638 q 428 743 403 706 q 522 781 453 781 q 615 743 590 781 q 651 638 640 706 l 712 288 l 763 722 q 804 830 772 793 q 901 867 836 867 q 991 831 958 867 q 1024 733 1024 794 q 1018 687 1024 721 q 1004 604 1013 653 q 984 499 995 556 q 961 385 973 442 q 940 277 950 328 q 923 189 930 226 q 913 134 915 151 q 852 23 901 60 q 735 -13 804 -13 l 728 -13 q 613 31 660 -13 q 554 158 566 74 l 522 392 l 490 158 q 432 31 479 74 q 317 -13 385 -13 l 308 -13 m 693 1002 q 710 965 710 983 q 690 922 710 939 q 638 905 670 905 q 593 919 612 905 q 559 952 574 933 l 524 996 l 490 952 q 456 918 474 932 q 411 905 438 905 q 359 922 379 905 q 340 965 340 939 q 343 983 340 973 q 356 1002 347 992 l 371 1019 q 441 1083 408 1061 q 524 1106 474 1106 q 608 1084 576 1106 q 678 1019 641 1062 l 693 1002 z "},"Ẅ":{"ha":1043,"x_min":19,"x_max":1024,"o":"m 308 -13 q 191 23 239 -13 q 131 134 142 60 q 120 188 128 151 q 103 275 113 225 q 82 382 93 325 q 59 494 70 438 q 39 599 48 550 q 25 683 31 648 q 19 733 19 719 q 55 831 19 794 q 149 867 91 867 q 241 830 213 867 q 278 722 269 793 l 329 287 l 392 638 q 428 743 403 706 q 522 781 453 781 q 615 743 590 781 q 651 638 640 706 l 712 288 l 763 722 q 804 830 772 793 q 901 867 836 867 q 991 831 958 867 q 1024 733 1024 794 q 1018 687 1024 721 q 1004 604 1013 653 q 984 499 995 556 q 961 385 973 442 q 940 277 950 328 q 923 189 930 226 q 913 134 915 151 q 852 23 901 60 q 735 -13 804 -13 l 728 -13 q 613 31 660 -13 q 554 158 566 74 l 522 392 l 490 158 q 432 31 479 74 q 317 -13 385 -13 l 308 -13 m 371 914 q 282 950 318 914 q 245 1040 245 987 q 282 1131 245 1094 q 371 1168 318 1168 q 460 1131 424 1168 q 497 1040 497 1094 q 460 950 497 987 q 371 914 424 914 m 676 914 q 587 950 624 914 q 551 1040 551 987 q 587 1131 551 1094 q 676 1168 624 1168 q 767 1131 730 1168 q 803 1040 803 1094 q 767 950 803 987 q 676 914 730 914 z "},"Ẁ":{"ha":1043,"x_min":19,"x_max":1024,"o":"m 308 -13 q 191 23 239 -13 q 131 134 142 60 q 120 188 128 151 q 103 275 113 225 q 82 382 93 325 q 59 494 70 438 q 39 599 48 550 q 25 683 31 648 q 19 733 19 719 q 55 831 19 794 q 149 867 91 867 q 241 830 213 867 q 278 722 269 793 l 329 287 l 392 638 q 428 743 403 706 q 522 781 453 781 q 615 743 590 781 q 651 638 640 706 l 712 288 l 763 722 q 804 830 772 793 q 901 867 836 867 q 991 831 958 867 q 1024 733 1024 794 q 1018 687 1024 721 q 1004 604 1013 653 q 984 499 995 556 q 961 385 973 442 q 940 277 950 328 q 923 189 930 226 q 913 134 915 151 q 852 23 901 60 q 735 -13 804 -13 l 728 -13 q 613 31 660 -13 q 554 158 566 74 l 522 392 l 490 158 q 432 31 479 74 q 317 -13 385 -13 l 308 -13 m 567 903 q 482 919 522 903 q 400 969 442 934 l 362 1002 q 329 1060 329 1030 q 346 1097 329 1082 q 390 1111 363 1111 l 428 1111 q 508 1095 481 1111 q 569 1031 535 1078 l 587 1007 q 613 942 613 970 q 601 914 613 925 q 567 903 589 903 z "},"X":{"ha":749,"x_min":26,"x_max":719,"o":"m 153 -13 q 65 16 97 -13 q 34 85 34 44 q 41 124 34 106 q 65 169 47 143 l 240 417 l 49 694 q 31 732 35 715 q 26 768 26 750 q 63 843 26 817 q 147 869 99 869 q 206 858 183 869 q 249 822 229 847 q 293 753 268 797 l 374 615 l 451 753 q 520 844 488 819 q 603 868 553 868 q 686 844 652 868 q 719 768 719 819 q 694 693 719 728 l 506 427 l 678 169 q 703 121 697 141 q 710 81 710 101 q 676 14 710 40 q 588 -13 643 -13 q 505 15 533 -13 q 446 94 476 42 l 370 224 l 293 94 q 235 15 263 42 q 153 -13 206 -13 z "},"Y":{"ha":751,"x_min":19,"x_max":731,"o":"m 376 -13 q 244 132 244 -13 l 244 342 q 203 401 224 365 l 44 670 q 19 756 19 710 q 49 833 19 797 q 139 868 78 868 q 214 842 186 868 q 269 758 241 816 l 376 542 l 484 760 q 542 842 513 817 q 619 868 572 868 q 705 833 678 868 q 731 757 731 799 q 724 712 731 735 q 706 670 717 688 l 547 401 q 528 370 538 384 q 508 343 518 356 l 508 132 q 376 -13 508 -13 z "},"Ý":{"ha":751,"x_min":19,"x_max":731,"o":"m 376 -13 q 244 132 244 -13 l 244 342 q 203 401 224 365 l 44 670 q 19 756 19 710 q 49 833 19 797 q 139 868 78 868 q 214 842 186 868 q 269 758 241 816 l 376 542 l 484 760 q 542 842 513 817 q 619 868 572 868 q 705 833 678 868 q 731 757 731 799 q 724 712 731 735 q 706 670 717 688 l 547 401 q 528 370 538 384 q 508 343 518 356 l 508 132 q 376 -13 508 -13 m 356 910 q 321 921 333 910 q 309 950 309 932 q 335 1015 309 978 l 353 1038 q 414 1102 388 1085 q 494 1118 441 1118 l 532 1118 q 577 1103 560 1118 q 593 1067 593 1089 q 560 1009 593 1038 l 522 977 q 440 926 480 941 q 356 910 401 910 z "},"Ŷ":{"ha":751,"x_min":19,"x_max":731,"o":"m 376 -13 q 244 132 244 -13 l 244 342 q 203 401 224 365 l 44 670 q 19 756 19 710 q 49 833 19 797 q 139 868 78 868 q 214 842 186 868 q 269 758 241 816 l 376 542 l 484 760 q 542 842 513 817 q 619 868 572 868 q 705 833 678 868 q 731 757 731 799 q 724 712 731 735 q 706 670 717 688 l 547 401 q 528 370 538 384 q 508 343 518 356 l 508 132 q 376 -13 508 -13 m 542 1002 q 559 965 559 983 q 539 922 559 939 q 488 905 519 905 q 442 919 461 905 q 408 952 424 933 l 374 996 l 340 952 q 305 918 324 932 q 260 905 287 905 q 209 922 228 905 q 189 965 189 939 q 193 983 189 973 q 206 1002 197 992 l 220 1019 q 290 1083 257 1061 q 374 1106 323 1106 q 458 1084 425 1106 q 528 1019 490 1062 l 542 1002 z "},"Ÿ":{"ha":751,"x_min":19,"x_max":731,"o":"m 376 -13 q 244 132 244 -13 l 244 342 q 203 401 224 365 l 44 670 q 19 756 19 710 q 49 833 19 797 q 139 868 78 868 q 214 842 186 868 q 269 758 241 816 l 376 542 l 484 760 q 542 842 513 817 q 619 868 572 868 q 705 833 678 868 q 731 757 731 799 q 724 712 731 735 q 706 670 717 688 l 547 401 q 528 370 538 384 q 508 343 518 356 l 508 132 q 376 -13 508 -13 m 220 914 q 131 950 167 914 q 94 1040 94 987 q 131 1131 94 1094 q 220 1168 167 1168 q 309 1131 273 1168 q 346 1040 346 1094 q 309 950 346 987 q 220 914 273 914 m 526 914 q 436 950 473 914 q 400 1040 400 987 q 436 1131 400 1094 q 526 1168 473 1168 q 616 1131 579 1168 q 653 1040 653 1094 q 616 950 653 987 q 526 914 579 914 z "},"Ỵ":{"ha":751,"x_min":19,"x_max":731,"o":"m 376 -13 q 244 132 244 -13 l 244 342 q 203 401 224 365 l 44 670 q 19 756 19 710 q 49 833 19 797 q 139 868 78 868 q 214 842 186 868 q 269 758 241 816 l 376 542 l 484 760 q 542 842 513 817 q 619 868 572 868 q 705 833 678 868 q 731 757 731 799 q 724 712 731 735 q 706 670 717 688 l 547 401 q 528 370 538 384 q 508 343 518 356 l 508 132 q 376 -13 508 -13 m 362 -298 q 273 -261 309 -298 q 236 -171 236 -224 q 273 -81 236 -117 q 362 -44 309 -44 q 451 -81 415 -44 q 488 -171 488 -117 q 451 -263 488 -228 q 362 -298 415 -298 z "},"Ỳ":{"ha":751,"x_min":19,"x_max":731,"o":"m 376 -13 q 244 132 244 -13 l 244 342 q 203 401 224 365 l 44 670 q 19 756 19 710 q 49 833 19 797 q 139 868 78 868 q 214 842 186 868 q 269 758 241 816 l 376 542 l 484 760 q 542 842 513 817 q 619 868 572 868 q 705 833 678 868 q 731 757 731 799 q 724 712 731 735 q 706 670 717 688 l 547 401 q 528 370 538 384 q 508 343 518 356 l 508 132 q 376 -13 508 -13 m 416 903 q 332 919 372 903 q 249 969 292 934 l 211 1002 q 178 1060 178 1030 q 195 1097 178 1082 q 240 1111 212 1111 l 278 1111 q 358 1095 331 1111 q 419 1031 385 1078 l 436 1007 q 463 942 463 970 q 450 914 463 925 q 416 903 438 903 z "},"Ỷ":{"ha":751,"x_min":19,"x_max":731,"o":"m 376 -13 q 244 132 244 -13 l 244 342 q 203 401 224 365 l 44 670 q 19 756 19 710 q 49 833 19 797 q 139 868 78 868 q 214 842 186 868 q 269 758 241 816 l 376 542 l 484 760 q 542 842 513 817 q 619 868 572 868 q 705 833 678 868 q 731 757 731 799 q 724 712 731 735 q 706 670 717 688 l 547 401 q 528 370 538 384 q 508 343 518 356 l 508 132 q 376 -13 508 -13 m 336 910 q 292 926 307 910 q 276 966 276 942 q 291 1008 276 990 q 336 1026 305 1026 q 390 1035 365 1026 q 415 1064 415 1044 q 391 1089 415 1083 q 343 1094 367 1094 q 300 1093 316 1094 q 267 1085 284 1091 q 251 1082 258 1083 q 236 1081 244 1081 q 206 1091 219 1081 q 192 1122 192 1102 q 236 1185 192 1163 q 351 1208 279 1208 q 448 1195 402 1208 q 524 1151 494 1183 q 554 1063 554 1119 q 519 974 554 1008 q 433 925 483 940 q 336 910 382 910 z "},"Ȳ":{"ha":751,"x_min":19,"x_max":731,"o":"m 376 -13 q 244 132 244 -13 l 244 342 q 203 401 224 365 l 44 670 q 19 756 19 710 q 49 833 19 797 q 139 868 78 868 q 214 842 186 868 q 269 758 241 816 l 376 542 l 484 760 q 542 842 513 817 q 619 868 572 868 q 705 833 678 868 q 731 757 731 799 q 724 712 731 735 q 706 670 717 688 l 547 401 q 528 370 538 384 q 508 343 518 356 l 508 132 q 376 -13 508 -13 m 90 988 q 119 1040 90 1020 q 215 1059 149 1059 l 530 1059 q 625 1040 596 1059 q 655 988 655 1020 q 625 935 655 955 q 530 916 596 916 l 215 916 q 119 935 149 916 q 90 988 90 955 z "},"Ỹ":{"ha":751,"x_min":19,"x_max":731,"o":"m 376 -13 q 244 132 244 -13 l 244 342 q 203 401 224 365 l 44 670 q 19 756 19 710 q 49 833 19 797 q 139 868 78 868 q 214 842 186 868 q 269 758 241 816 l 376 542 l 484 760 q 542 842 513 817 q 619 868 572 868 q 705 833 678 868 q 731 757 731 799 q 724 712 731 735 q 706 670 717 688 l 547 401 q 528 370 538 384 q 508 343 518 356 l 508 132 q 376 -13 508 -13 m 456 916 q 399 927 419 916 q 360 951 378 938 q 334 967 347 960 q 301 974 320 974 q 267 968 283 974 q 237 956 251 963 q 215 946 226 950 q 196 942 205 942 q 169 957 180 942 q 159 993 159 972 q 202 1076 159 1037 q 241 1100 219 1091 q 290 1109 263 1109 q 348 1100 327 1109 q 383 1078 369 1092 q 408 1058 394 1067 q 446 1050 422 1050 q 476 1055 464 1050 q 501 1068 489 1060 q 518 1077 508 1074 q 540 1081 527 1081 q 573 1068 558 1081 q 588 1029 588 1056 q 567 974 588 999 q 522 934 549 952 q 456 916 495 916 z "},"Z":{"ha":646,"x_min":19,"x_max":626,"o":"m 288 185 l 494 185 q 591 161 555 185 q 626 92 626 138 q 591 24 626 48 q 494 0 555 0 l 165 0 q 57 35 94 0 q 19 128 19 69 q 33 196 19 170 q 76 267 46 222 l 356 674 l 176 674 q 80 698 115 674 q 44 767 44 722 q 80 836 44 813 q 176 860 115 860 l 481 860 q 589 824 552 860 q 626 727 626 789 q 614 665 626 693 q 571 593 601 638 l 288 185 z "},"Ź":{"ha":646,"x_min":19,"x_max":626,"o":"m 288 185 l 494 185 q 591 161 555 185 q 626 92 626 138 q 591 24 626 48 q 494 0 555 0 l 165 0 q 57 35 94 0 q 19 128 19 69 q 33 196 19 170 q 76 267 46 222 l 356 674 l 176 674 q 80 698 115 674 q 44 767 44 722 q 80 836 44 813 q 176 860 115 860 l 481 860 q 589 824 552 860 q 626 727 626 789 q 614 665 626 693 q 571 593 601 638 l 288 185 m 310 910 q 275 921 288 910 q 263 950 263 932 q 290 1015 263 978 l 307 1038 q 368 1102 342 1085 q 448 1118 395 1118 l 486 1118 q 531 1103 515 1118 q 547 1067 547 1089 q 515 1009 547 1038 l 476 977 q 394 926 434 941 q 310 910 355 910 z "},"Ž":{"ha":646,"x_min":19,"x_max":626,"o":"m 288 185 l 494 185 q 591 161 555 185 q 626 92 626 138 q 591 24 626 48 q 494 0 555 0 l 165 0 q 57 35 94 0 q 19 128 19 69 q 33 196 19 170 q 76 267 46 222 l 356 674 l 176 674 q 80 698 115 674 q 44 767 44 722 q 80 836 44 813 q 176 860 115 860 l 481 860 q 589 824 552 860 q 626 727 626 789 q 614 665 626 693 q 571 593 601 638 l 288 185 m 496 1016 l 481 999 q 411 934 444 957 q 328 912 378 912 q 244 934 277 912 q 174 999 210 957 l 159 1016 q 142 1053 142 1035 q 162 1097 142 1080 q 214 1113 182 1113 q 259 1099 240 1113 q 293 1065 277 1085 l 328 1022 l 362 1065 q 396 1099 377 1084 q 441 1113 415 1113 q 493 1097 473 1113 q 513 1053 513 1080 q 509 1035 513 1045 q 496 1016 506 1026 z "},"Ż":{"ha":646,"x_min":19,"x_max":626,"o":"m 288 185 l 494 185 q 591 161 555 185 q 626 92 626 138 q 591 24 626 48 q 494 0 555 0 l 165 0 q 57 35 94 0 q 19 128 19 69 q 33 196 19 170 q 76 267 46 222 l 356 674 l 176 674 q 80 698 115 674 q 44 767 44 722 q 80 836 44 813 q 176 860 115 860 l 481 860 q 589 824 552 860 q 626 727 626 789 q 614 665 626 693 q 571 593 601 638 l 288 185 m 328 913 q 239 949 275 913 q 202 1040 202 986 q 239 1130 202 1093 q 328 1167 275 1167 q 417 1130 381 1167 q 453 1040 453 1093 q 417 949 453 986 q 328 913 381 913 z "},"a":{"ha":815,"x_min":30,"x_max":803,"o":"m 613 1 q 517 26 550 1 q 483 94 483 51 l 483 97 q 449 48 474 72 q 383 6 424 23 q 281 -10 341 -10 q 153 16 210 -10 q 63 91 96 42 q 30 213 30 141 q 71 336 30 289 q 176 405 112 383 q 311 427 241 427 q 389 419 356 427 q 443 399 422 410 q 469 380 463 388 l 469 418 q 461 445 469 432 q 438 468 453 458 q 401 485 422 478 q 354 491 380 491 q 284 485 316 491 q 225 472 251 480 q 192 464 208 467 q 156 461 176 461 q 85 482 111 461 q 60 549 60 503 q 87 614 60 592 q 151 648 115 636 q 247 668 185 660 q 379 677 308 677 q 506 661 447 677 q 611 616 566 646 q 683 544 657 587 q 708 446 708 501 l 708 178 l 710 178 q 779 155 756 178 q 803 90 803 131 q 773 24 803 48 q 675 1 744 1 l 613 1 m 469 242 q 448 262 465 252 q 409 279 431 272 q 362 285 386 285 q 297 271 324 285 q 271 220 271 256 q 282 182 271 197 q 313 162 294 168 q 354 156 332 156 q 410 169 386 156 q 449 199 433 182 q 469 228 464 215 l 469 242 z "},"á":{"ha":815,"x_min":30,"x_max":803,"o":"m 613 1 q 517 26 550 1 q 483 94 483 51 l 483 97 q 449 48 474 72 q 383 6 424 23 q 281 -10 341 -10 q 153 16 210 -10 q 63 91 96 42 q 30 213 30 141 q 71 336 30 289 q 176 405 112 383 q 311 427 241 427 q 389 419 356 427 q 443 399 422 410 q 469 380 463 388 l 469 418 q 461 445 469 432 q 438 468 453 458 q 401 485 422 478 q 354 491 380 491 q 284 485 316 491 q 225 472 251 480 q 192 464 208 467 q 156 461 176 461 q 85 482 111 461 q 60 549 60 503 q 87 614 60 592 q 151 648 115 636 q 247 668 185 660 q 379 677 308 677 q 506 661 447 677 q 611 616 566 646 q 683 544 657 587 q 708 446 708 501 l 708 178 l 710 178 q 779 155 756 178 q 803 90 803 131 q 773 24 803 48 q 675 1 744 1 l 613 1 m 469 242 q 448 262 465 252 q 409 279 431 272 q 362 285 386 285 q 297 271 324 285 q 271 220 271 256 q 282 182 271 197 q 313 162 294 168 q 354 156 332 156 q 410 169 386 156 q 449 199 433 182 q 469 228 464 215 l 469 242 m 289 746 q 258 754 272 746 q 244 785 244 762 q 265 848 244 810 l 278 874 q 335 940 307 926 q 416 953 363 953 l 440 953 q 483 939 469 953 q 498 903 498 924 q 464 844 498 874 l 400 790 q 341 754 368 762 q 289 746 313 746 z "},"ă":{"ha":815,"x_min":30,"x_max":803,"o":"m 613 1 q 517 26 550 1 q 483 94 483 51 l 483 97 q 449 48 474 72 q 383 6 424 23 q 281 -10 341 -10 q 153 16 210 -10 q 63 91 96 42 q 30 213 30 141 q 71 336 30 289 q 176 405 112 383 q 311 427 241 427 q 389 419 356 427 q 443 399 422 410 q 469 380 463 388 l 469 418 q 461 445 469 432 q 438 468 453 458 q 401 485 422 478 q 354 491 380 491 q 284 485 316 491 q 225 472 251 480 q 192 464 208 467 q 156 461 176 461 q 85 482 111 461 q 60 549 60 503 q 87 614 60 592 q 151 648 115 636 q 247 668 185 660 q 379 677 308 677 q 506 661 447 677 q 611 616 566 646 q 683 544 657 587 q 708 446 708 501 l 708 178 l 710 178 q 779 155 756 178 q 803 90 803 131 q 773 24 803 48 q 675 1 744 1 l 613 1 m 469 242 q 448 262 465 252 q 409 279 431 272 q 362 285 386 285 q 297 271 324 285 q 271 220 271 256 q 282 182 271 197 q 313 162 294 168 q 354 156 332 156 q 410 169 386 156 q 449 199 433 182 q 469 228 464 215 l 469 242 m 488 944 q 541 927 522 944 q 559 883 559 910 q 550 843 559 865 q 518 799 540 821 q 458 761 494 776 q 372 745 422 745 q 294 757 327 745 q 238 788 261 769 q 198 835 210 810 q 187 881 187 860 q 206 926 187 908 q 257 944 225 944 q 316 927 299 944 q 337 890 333 910 q 346 869 340 878 q 373 860 353 860 q 400 869 393 860 q 408 890 406 878 q 429 927 412 910 q 488 944 447 944 z "},"ắ":{"ha":815,"x_min":30,"x_max":803,"o":"m 613 1 q 517 26 550 1 q 483 94 483 51 l 483 97 q 449 48 474 72 q 383 6 424 23 q 281 -10 341 -10 q 153 16 210 -10 q 63 91 96 42 q 30 213 30 141 q 71 336 30 289 q 176 405 112 383 q 311 427 241 427 q 389 419 356 427 q 443 399 422 410 q 469 380 463 388 l 469 418 q 461 445 469 432 q 438 468 453 458 q 401 485 422 478 q 354 491 380 491 q 284 485 316 491 q 225 472 251 480 q 192 464 208 467 q 156 461 176 461 q 85 482 111 461 q 60 549 60 503 q 87 614 60 592 q 151 648 115 636 q 247 668 185 660 q 379 677 308 677 q 506 661 447 677 q 611 616 566 646 q 683 544 657 587 q 708 446 708 501 l 708 178 l 710 178 q 779 155 756 178 q 803 90 803 131 q 773 24 803 48 q 675 1 744 1 l 613 1 m 469 242 q 448 262 465 252 q 409 279 431 272 q 362 285 386 285 q 297 271 324 285 q 271 220 271 256 q 282 182 271 197 q 313 162 294 168 q 354 156 332 156 q 410 169 386 156 q 449 199 433 182 q 469 228 464 215 l 469 242 m 488 944 q 541 927 522 944 q 559 883 559 910 q 550 843 559 865 q 518 799 540 821 q 458 761 494 776 q 372 745 422 745 q 294 757 327 745 q 238 788 261 769 q 198 835 210 810 q 187 881 187 860 q 206 926 187 908 q 257 944 225 944 q 316 927 299 944 q 337 890 333 910 q 346 869 340 878 q 373 860 353 860 q 400 869 393 860 q 408 890 406 878 q 429 927 412 910 q 488 944 447 944 m 289 1028 q 258 1036 272 1028 q 244 1067 244 1044 q 265 1131 244 1093 l 278 1156 q 335 1222 307 1208 q 416 1236 363 1236 l 440 1236 q 483 1222 469 1236 q 498 1185 498 1207 q 464 1127 498 1156 l 400 1072 q 341 1036 368 1044 q 289 1028 313 1028 z "},"ặ":{"ha":815,"x_min":30,"x_max":803,"o":"m 613 1 q 517 26 550 1 q 483 94 483 51 l 483 97 q 449 48 474 72 q 383 6 424 23 q 281 -10 341 -10 q 153 16 210 -10 q 63 91 96 42 q 30 213 30 141 q 71 336 30 289 q 176 405 112 383 q 311 427 241 427 q 389 419 356 427 q 443 399 422 410 q 469 380 463 388 l 469 418 q 461 445 469 432 q 438 468 453 458 q 401 485 422 478 q 354 491 380 491 q 284 485 316 491 q 225 472 251 480 q 192 464 208 467 q 156 461 176 461 q 85 482 111 461 q 60 549 60 503 q 87 614 60 592 q 151 648 115 636 q 247 668 185 660 q 379 677 308 677 q 506 661 447 677 q 611 616 566 646 q 683 544 657 587 q 708 446 708 501 l 708 178 l 710 178 q 779 155 756 178 q 803 90 803 131 q 773 24 803 48 q 675 1 744 1 l 613 1 m 469 242 q 448 262 465 252 q 409 279 431 272 q 362 285 386 285 q 297 271 324 285 q 271 220 271 256 q 282 182 271 197 q 313 162 294 168 q 354 156 332 156 q 410 169 386 156 q 449 199 433 182 q 469 228 464 215 l 469 242 m 374 -298 q 284 -261 321 -298 q 248 -171 248 -224 q 284 -81 248 -117 q 374 -44 321 -44 q 463 -81 426 -44 q 499 -171 499 -117 q 463 -263 499 -228 q 374 -298 426 -298 m 488 944 q 541 927 522 944 q 559 883 559 910 q 550 843 559 865 q 518 799 540 821 q 458 761 494 776 q 372 745 422 745 q 294 757 327 745 q 238 788 261 769 q 198 835 210 810 q 187 881 187 860 q 206 926 187 908 q 257 944 225 944 q 316 927 299 944 q 337 890 333 910 q 346 869 340 878 q 373 860 353 860 q 400 869 393 860 q 408 890 406 878 q 429 927 412 910 q 488 944 447 944 z "},"ằ":{"ha":815,"x_min":30,"x_max":803,"o":"m 613 1 q 517 26 550 1 q 483 94 483 51 l 483 97 q 449 48 474 72 q 383 6 424 23 q 281 -10 341 -10 q 153 16 210 -10 q 63 91 96 42 q 30 213 30 141 q 71 336 30 289 q 176 405 112 383 q 311 427 241 427 q 389 419 356 427 q 443 399 422 410 q 469 380 463 388 l 469 418 q 461 445 469 432 q 438 468 453 458 q 401 485 422 478 q 354 491 380 491 q 284 485 316 491 q 225 472 251 480 q 192 464 208 467 q 156 461 176 461 q 85 482 111 461 q 60 549 60 503 q 87 614 60 592 q 151 648 115 636 q 247 668 185 660 q 379 677 308 677 q 506 661 447 677 q 611 616 566 646 q 683 544 657 587 q 708 446 708 501 l 708 178 l 710 178 q 779 155 756 178 q 803 90 803 131 q 773 24 803 48 q 675 1 744 1 l 613 1 m 469 242 q 448 262 465 252 q 409 279 431 272 q 362 285 386 285 q 297 271 324 285 q 271 220 271 256 q 282 182 271 197 q 313 162 294 168 q 354 156 332 156 q 410 169 386 156 q 449 199 433 182 q 469 228 464 215 l 469 242 m 488 944 q 541 927 522 944 q 559 883 559 910 q 550 843 559 865 q 518 799 540 821 q 458 761 494 776 q 372 745 422 745 q 294 757 327 745 q 238 788 261 769 q 198 835 210 810 q 187 881 187 860 q 206 926 187 908 q 257 944 225 944 q 316 927 299 944 q 337 890 333 910 q 346 869 340 878 q 373 860 353 860 q 400 869 393 860 q 408 890 406 878 q 429 927 412 910 q 488 944 447 944 m 399 1028 q 347 1036 374 1028 q 288 1072 319 1044 l 224 1127 q 190 1185 190 1156 q 205 1222 190 1207 q 247 1236 219 1236 l 272 1236 q 353 1222 324 1236 q 409 1156 381 1208 l 423 1131 q 443 1067 443 1093 q 430 1036 443 1044 q 399 1028 417 1028 z "},"ẳ":{"ha":815,"x_min":30,"x_max":803,"o":"m 613 1 q 517 26 550 1 q 483 94 483 51 l 483 97 q 449 48 474 72 q 383 6 424 23 q 281 -10 341 -10 q 153 16 210 -10 q 63 91 96 42 q 30 213 30 141 q 71 336 30 289 q 176 405 112 383 q 311 427 241 427 q 389 419 356 427 q 443 399 422 410 q 469 380 463 388 l 469 418 q 461 445 469 432 q 438 468 453 458 q 401 485 422 478 q 354 491 380 491 q 284 485 316 491 q 225 472 251 480 q 192 464 208 467 q 156 461 176 461 q 85 482 111 461 q 60 549 60 503 q 87 614 60 592 q 151 648 115 636 q 247 668 185 660 q 379 677 308 677 q 506 661 447 677 q 611 616 566 646 q 683 544 657 587 q 708 446 708 501 l 708 178 l 710 178 q 779 155 756 178 q 803 90 803 131 q 773 24 803 48 q 675 1 744 1 l 613 1 m 469 242 q 448 262 465 252 q 409 279 431 272 q 362 285 386 285 q 297 271 324 285 q 271 220 271 256 q 282 182 271 197 q 313 162 294 168 q 354 156 332 156 q 410 169 386 156 q 449 199 433 182 q 469 228 464 215 l 469 242 m 488 944 q 541 927 522 944 q 559 883 559 910 q 550 843 559 865 q 518 799 540 821 q 458 761 494 776 q 372 745 422 745 q 294 757 327 745 q 238 788 261 769 q 198 835 210 810 q 187 881 187 860 q 206 926 187 908 q 257 944 225 944 q 316 927 299 944 q 337 890 333 910 q 346 869 340 878 q 373 860 353 860 q 400 869 393 860 q 408 890 406 878 q 429 927 412 910 q 488 944 447 944 m 336 1001 q 276 1050 276 1001 q 291 1089 276 1074 q 336 1103 305 1103 q 393 1115 365 1103 q 422 1148 422 1128 q 398 1176 422 1167 q 350 1185 374 1185 q 306 1181 323 1185 q 277 1171 290 1176 q 256 1166 268 1167 q 236 1165 244 1165 q 206 1175 219 1165 q 192 1206 192 1185 q 236 1263 192 1241 q 351 1285 279 1285 q 447 1272 402 1285 q 519 1230 491 1260 q 547 1146 547 1199 q 514 1059 547 1091 q 431 1015 480 1028 q 336 1001 382 1001 z "},"ẵ":{"ha":815,"x_min":30,"x_max":803,"o":"m 613 1 q 517 26 550 1 q 483 94 483 51 l 483 97 q 449 48 474 72 q 383 6 424 23 q 281 -10 341 -10 q 153 16 210 -10 q 63 91 96 42 q 30 213 30 141 q 71 336 30 289 q 176 405 112 383 q 311 427 241 427 q 389 419 356 427 q 443 399 422 410 q 469 380 463 388 l 469 418 q 461 445 469 432 q 438 468 453 458 q 401 485 422 478 q 354 491 380 491 q 284 485 316 491 q 225 472 251 480 q 192 464 208 467 q 156 461 176 461 q 85 482 111 461 q 60 549 60 503 q 87 614 60 592 q 151 648 115 636 q 247 668 185 660 q 379 677 308 677 q 506 661 447 677 q 611 616 566 646 q 683 544 657 587 q 708 446 708 501 l 708 178 l 710 178 q 779 155 756 178 q 803 90 803 131 q 773 24 803 48 q 675 1 744 1 l 613 1 m 469 242 q 448 262 465 252 q 409 279 431 272 q 362 285 386 285 q 297 271 324 285 q 271 220 271 256 q 282 182 271 197 q 313 162 294 168 q 354 156 332 156 q 410 169 386 156 q 449 199 433 182 q 469 228 464 215 l 469 242 m 488 944 q 541 927 522 944 q 559 883 559 910 q 550 843 559 865 q 518 799 540 821 q 458 761 494 776 q 372 745 422 745 q 294 757 327 745 q 238 788 261 769 q 198 835 210 810 q 187 881 187 860 q 206 926 187 908 q 257 944 225 944 q 316 927 299 944 q 337 890 333 910 q 346 869 340 878 q 373 860 353 860 q 400 869 393 860 q 408 890 406 878 q 429 927 412 910 q 488 944 447 944 m 456 1011 q 399 1022 419 1011 q 360 1045 378 1032 q 334 1061 347 1055 q 301 1068 320 1068 q 267 1063 283 1068 q 237 1051 251 1058 q 196 1038 213 1038 q 169 1052 180 1038 q 159 1088 159 1067 q 202 1171 159 1132 q 241 1195 219 1186 q 290 1204 263 1204 q 348 1195 327 1204 q 383 1173 369 1187 q 408 1153 394 1162 q 446 1145 422 1145 q 476 1150 464 1145 q 501 1163 489 1154 q 518 1172 508 1168 q 540 1176 527 1176 q 573 1163 558 1176 q 588 1124 588 1150 q 567 1068 588 1094 q 522 1029 549 1047 q 456 1011 495 1011 z "},"ǎ":{"ha":815,"x_min":30,"x_max":803,"o":"m 613 1 q 517 26 550 1 q 483 94 483 51 l 483 97 q 449 48 474 72 q 383 6 424 23 q 281 -10 341 -10 q 153 16 210 -10 q 63 91 96 42 q 30 213 30 141 q 71 336 30 289 q 176 405 112 383 q 311 427 241 427 q 389 419 356 427 q 443 399 422 410 q 469 380 463 388 l 469 418 q 461 445 469 432 q 438 468 453 458 q 401 485 422 478 q 354 491 380 491 q 284 485 316 491 q 225 472 251 480 q 192 464 208 467 q 156 461 176 461 q 85 482 111 461 q 60 549 60 503 q 87 614 60 592 q 151 648 115 636 q 247 668 185 660 q 379 677 308 677 q 506 661 447 677 q 611 616 566 646 q 683 544 657 587 q 708 446 708 501 l 708 178 l 710 178 q 779 155 756 178 q 803 90 803 131 q 773 24 803 48 q 675 1 744 1 l 613 1 m 469 242 q 448 262 465 252 q 409 279 431 272 q 362 285 386 285 q 297 271 324 285 q 271 220 271 256 q 282 182 271 197 q 313 162 294 168 q 354 156 332 156 q 410 169 386 156 q 449 199 433 182 q 469 228 464 215 l 469 242 m 542 843 l 528 826 q 458 762 490 784 q 374 740 425 740 q 290 762 323 740 q 220 826 257 785 l 206 843 q 189 881 189 860 q 209 924 189 907 q 260 940 228 940 q 305 927 287 940 q 340 893 324 913 l 374 849 l 408 893 q 442 926 424 912 q 488 940 461 940 q 539 924 519 940 q 559 881 559 907 q 542 843 559 862 z "},"â":{"ha":815,"x_min":30,"x_max":803,"o":"m 613 1 q 517 26 550 1 q 483 94 483 51 l 483 97 q 449 48 474 72 q 383 6 424 23 q 281 -10 341 -10 q 153 16 210 -10 q 63 91 96 42 q 30 213 30 141 q 71 336 30 289 q 176 405 112 383 q 311 427 241 427 q 389 419 356 427 q 443 399 422 410 q 469 380 463 388 l 469 418 q 461 445 469 432 q 438 468 453 458 q 401 485 422 478 q 354 491 380 491 q 284 485 316 491 q 225 472 251 480 q 192 464 208 467 q 156 461 176 461 q 85 482 111 461 q 60 549 60 503 q 87 614 60 592 q 151 648 115 636 q 247 668 185 660 q 379 677 308 677 q 506 661 447 677 q 611 616 566 646 q 683 544 657 587 q 708 446 708 501 l 708 178 l 710 178 q 779 155 756 178 q 803 90 803 131 q 773 24 803 48 q 675 1 744 1 l 613 1 m 469 242 q 448 262 465 252 q 409 279 431 272 q 362 285 386 285 q 297 271 324 285 q 271 220 271 256 q 282 182 271 197 q 313 162 294 168 q 354 156 332 156 q 410 169 386 156 q 449 199 433 182 q 469 228 464 215 l 469 242 m 542 837 q 559 799 559 818 q 539 756 559 773 q 488 740 519 740 q 442 754 461 740 q 408 787 424 768 l 374 831 l 340 787 q 305 753 324 767 q 260 740 287 740 q 209 756 228 740 q 189 799 189 773 q 206 837 189 819 l 220 853 q 290 918 257 896 q 374 940 323 940 q 458 918 425 940 q 528 853 490 896 l 542 837 z "},"ấ":{"ha":815,"x_min":30,"x_max":803,"o":"m 613 1 q 517 26 550 1 q 483 94 483 51 l 483 97 q 449 48 474 72 q 383 6 424 23 q 281 -10 341 -10 q 153 16 210 -10 q 63 91 96 42 q 30 213 30 141 q 71 336 30 289 q 176 405 112 383 q 311 427 241 427 q 389 419 356 427 q 443 399 422 410 q 469 380 463 388 l 469 418 q 461 445 469 432 q 438 468 453 458 q 401 485 422 478 q 354 491 380 491 q 284 485 316 491 q 225 472 251 480 q 192 464 208 467 q 156 461 176 461 q 85 482 111 461 q 60 549 60 503 q 87 614 60 592 q 151 648 115 636 q 247 668 185 660 q 379 677 308 677 q 506 661 447 677 q 611 616 566 646 q 683 544 657 587 q 708 446 708 501 l 708 178 l 710 178 q 779 155 756 178 q 803 90 803 131 q 773 24 803 48 q 675 1 744 1 l 613 1 m 469 242 q 448 262 465 252 q 409 279 431 272 q 362 285 386 285 q 297 271 324 285 q 271 220 271 256 q 282 182 271 197 q 313 162 294 168 q 354 156 332 156 q 410 169 386 156 q 449 199 433 182 q 469 228 464 215 l 469 242 m 542 837 q 559 799 559 818 q 539 756 559 773 q 488 740 519 740 q 442 754 461 740 q 408 787 424 768 l 374 831 l 340 787 q 305 753 324 767 q 260 740 287 740 q 209 756 228 740 q 189 799 189 773 q 206 837 189 819 l 220 853 q 290 918 257 896 q 374 940 323 940 q 458 918 425 940 q 528 853 490 896 l 542 837 m 551 881 q 520 889 533 881 q 506 919 506 897 q 526 983 506 945 l 540 1008 q 597 1074 569 1060 q 678 1088 625 1088 l 702 1088 q 745 1074 731 1088 q 760 1038 760 1059 q 726 979 760 1008 l 662 924 q 602 889 630 897 q 551 881 575 881 z "},"ậ":{"ha":815,"x_min":30,"x_max":803,"o":"m 613 1 q 517 26 550 1 q 483 94 483 51 l 483 97 q 449 48 474 72 q 383 6 424 23 q 281 -10 341 -10 q 153 16 210 -10 q 63 91 96 42 q 30 213 30 141 q 71 336 30 289 q 176 405 112 383 q 311 427 241 427 q 389 419 356 427 q 443 399 422 410 q 469 380 463 388 l 469 418 q 461 445 469 432 q 438 468 453 458 q 401 485 422 478 q 354 491 380 491 q 284 485 316 491 q 225 472 251 480 q 192 464 208 467 q 156 461 176 461 q 85 482 111 461 q 60 549 60 503 q 87 614 60 592 q 151 648 115 636 q 247 668 185 660 q 379 677 308 677 q 506 661 447 677 q 611 616 566 646 q 683 544 657 587 q 708 446 708 501 l 708 178 l 710 178 q 779 155 756 178 q 803 90 803 131 q 773 24 803 48 q 675 1 744 1 l 613 1 m 469 242 q 448 262 465 252 q 409 279 431 272 q 362 285 386 285 q 297 271 324 285 q 271 220 271 256 q 282 182 271 197 q 313 162 294 168 q 354 156 332 156 q 410 169 386 156 q 449 199 433 182 q 469 228 464 215 l 469 242 m 374 -298 q 284 -261 321 -298 q 248 -171 248 -224 q 284 -81 248 -117 q 374 -44 321 -44 q 463 -81 426 -44 q 499 -171 499 -117 q 463 -263 499 -228 q 374 -298 426 -298 m 542 837 q 559 799 559 818 q 539 756 559 773 q 488 740 519 740 q 442 754 461 740 q 408 787 424 768 l 374 831 l 340 787 q 305 753 324 767 q 260 740 287 740 q 209 756 228 740 q 189 799 189 773 q 206 837 189 819 l 220 853 q 290 918 257 896 q 374 940 323 940 q 458 918 425 940 q 528 853 490 896 l 542 837 z "},"ầ":{"ha":815,"x_min":30,"x_max":803,"o":"m 613 1 q 517 26 550 1 q 483 94 483 51 l 483 97 q 449 48 474 72 q 383 6 424 23 q 281 -10 341 -10 q 153 16 210 -10 q 63 91 96 42 q 30 213 30 141 q 71 336 30 289 q 176 405 112 383 q 311 427 241 427 q 389 419 356 427 q 443 399 422 410 q 469 380 463 388 l 469 418 q 461 445 469 432 q 438 468 453 458 q 401 485 422 478 q 354 491 380 491 q 284 485 316 491 q 225 472 251 480 q 192 464 208 467 q 156 461 176 461 q 85 482 111 461 q 60 549 60 503 q 87 614 60 592 q 151 648 115 636 q 247 668 185 660 q 379 677 308 677 q 506 661 447 677 q 611 616 566 646 q 683 544 657 587 q 708 446 708 501 l 708 178 l 710 178 q 779 155 756 178 q 803 90 803 131 q 773 24 803 48 q 675 1 744 1 l 613 1 m 469 242 q 448 262 465 252 q 409 279 431 272 q 362 285 386 285 q 297 271 324 285 q 271 220 271 256 q 282 182 271 197 q 313 162 294 168 q 354 156 332 156 q 410 169 386 156 q 449 199 433 182 q 469 228 464 215 l 469 242 m 542 837 q 559 799 559 818 q 539 756 559 773 q 488 740 519 740 q 442 754 461 740 q 408 787 424 768 l 374 831 l 340 787 q 305 753 324 767 q 260 740 287 740 q 209 756 228 740 q 189 799 189 773 q 206 837 189 819 l 220 853 q 290 918 257 896 q 374 940 323 940 q 458 918 425 940 q 528 853 490 896 l 542 837 m 619 881 q 567 889 594 881 q 508 924 540 897 l 444 979 q 410 1038 410 1008 q 425 1074 410 1059 q 467 1088 440 1088 l 492 1088 q 573 1074 544 1088 q 629 1008 601 1060 l 643 983 q 663 919 663 945 q 650 889 663 897 q 619 881 637 881 z "},"ẩ":{"ha":815,"x_min":30,"x_max":803,"o":"m 613 1 q 517 26 550 1 q 483 94 483 51 l 483 97 q 449 48 474 72 q 383 6 424 23 q 281 -10 341 -10 q 153 16 210 -10 q 63 91 96 42 q 30 213 30 141 q 71 336 30 289 q 176 405 112 383 q 311 427 241 427 q 389 419 356 427 q 443 399 422 410 q 469 380 463 388 l 469 418 q 461 445 469 432 q 438 468 453 458 q 401 485 422 478 q 354 491 380 491 q 284 485 316 491 q 225 472 251 480 q 192 464 208 467 q 156 461 176 461 q 85 482 111 461 q 60 549 60 503 q 87 614 60 592 q 151 648 115 636 q 247 668 185 660 q 379 677 308 677 q 506 661 447 677 q 611 616 566 646 q 683 544 657 587 q 708 446 708 501 l 708 178 l 710 178 q 779 155 756 178 q 803 90 803 131 q 773 24 803 48 q 675 1 744 1 l 613 1 m 469 242 q 448 262 465 252 q 409 279 431 272 q 362 285 386 285 q 297 271 324 285 q 271 220 271 256 q 282 182 271 197 q 313 162 294 168 q 354 156 332 156 q 410 169 386 156 q 449 199 433 182 q 469 228 464 215 l 469 242 m 542 837 q 559 799 559 818 q 539 756 559 773 q 488 740 519 740 q 442 754 461 740 q 408 787 424 768 l 374 831 l 340 787 q 305 753 324 767 q 260 740 287 740 q 209 756 228 740 q 189 799 189 773 q 206 837 189 819 l 220 853 q 290 918 257 896 q 374 940 323 940 q 458 918 425 940 q 528 853 490 896 l 542 837 m 537 892 q 477 941 477 892 q 491 980 477 965 q 537 994 506 994 q 594 1006 566 994 q 622 1039 622 1019 q 599 1067 622 1058 q 551 1076 575 1076 q 507 1072 524 1076 q 478 1062 490 1067 q 457 1057 469 1058 q 437 1056 444 1056 q 406 1066 419 1056 q 393 1097 393 1076 q 436 1154 393 1132 q 552 1176 480 1176 q 647 1163 603 1176 q 720 1120 692 1151 q 748 1037 748 1090 q 714 950 748 982 q 632 906 681 919 q 537 892 583 892 z "},"ẫ":{"ha":815,"x_min":30,"x_max":803,"o":"m 613 1 q 517 26 550 1 q 483 94 483 51 l 483 97 q 449 48 474 72 q 383 6 424 23 q 281 -10 341 -10 q 153 16 210 -10 q 63 91 96 42 q 30 213 30 141 q 71 336 30 289 q 176 405 112 383 q 311 427 241 427 q 389 419 356 427 q 443 399 422 410 q 469 380 463 388 l 469 418 q 461 445 469 432 q 438 468 453 458 q 401 485 422 478 q 354 491 380 491 q 284 485 316 491 q 225 472 251 480 q 192 464 208 467 q 156 461 176 461 q 85 482 111 461 q 60 549 60 503 q 87 614 60 592 q 151 648 115 636 q 247 668 185 660 q 379 677 308 677 q 506 661 447 677 q 611 616 566 646 q 683 544 657 587 q 708 446 708 501 l 708 178 l 710 178 q 779 155 756 178 q 803 90 803 131 q 773 24 803 48 q 675 1 744 1 l 613 1 m 469 242 q 448 262 465 252 q 409 279 431 272 q 362 285 386 285 q 297 271 324 285 q 271 220 271 256 q 282 182 271 197 q 313 162 294 168 q 354 156 332 156 q 410 169 386 156 q 449 199 433 182 q 469 228 464 215 l 469 242 m 542 837 q 559 799 559 818 q 539 756 559 773 q 488 740 519 740 q 442 754 461 740 q 408 787 424 768 l 374 831 l 340 787 q 305 753 324 767 q 260 740 287 740 q 209 756 228 740 q 189 799 189 773 q 206 837 189 819 l 220 853 q 290 918 257 896 q 374 940 323 940 q 458 918 425 940 q 528 853 490 896 l 542 837 m 456 1008 q 399 1018 419 1008 q 360 1042 378 1028 q 334 1058 347 1051 q 301 1065 320 1065 q 267 1059 283 1065 q 237 1047 251 1054 q 196 1034 213 1034 q 169 1049 180 1034 q 159 1084 159 1063 q 202 1167 159 1128 q 241 1192 219 1183 q 290 1201 263 1201 q 348 1192 327 1201 q 383 1169 369 1183 q 408 1150 394 1158 q 446 1142 422 1142 q 476 1146 464 1142 q 501 1160 489 1151 q 518 1169 508 1165 q 540 1173 527 1173 q 573 1160 558 1173 q 588 1120 588 1147 q 567 1065 588 1090 q 522 1025 549 1043 q 456 1008 495 1008 z "},"ȁ":{"ha":815,"x_min":30,"x_max":803,"o":"m 613 1 q 517 26 550 1 q 483 94 483 51 l 483 97 q 449 48 474 72 q 383 6 424 23 q 281 -10 341 -10 q 153 16 210 -10 q 63 91 96 42 q 30 213 30 141 q 71 336 30 289 q 176 405 112 383 q 311 427 241 427 q 389 419 356 427 q 443 399 422 410 q 469 380 463 388 l 469 418 q 461 445 469 432 q 438 468 453 458 q 401 485 422 478 q 354 491 380 491 q 284 485 316 491 q 225 472 251 480 q 192 464 208 467 q 156 461 176 461 q 85 482 111 461 q 60 549 60 503 q 87 614 60 592 q 151 648 115 636 q 247 668 185 660 q 379 677 308 677 q 506 661 447 677 q 611 616 566 646 q 683 544 657 587 q 708 446 708 501 l 708 178 l 710 178 q 779 155 756 178 q 803 90 803 131 q 773 24 803 48 q 675 1 744 1 l 613 1 m 469 242 q 448 262 465 252 q 409 279 431 272 q 362 285 386 285 q 297 271 324 285 q 271 220 271 256 q 282 182 271 197 q 313 162 294 168 q 354 156 332 156 q 410 169 386 156 q 449 199 433 182 q 469 228 464 215 l 469 242 m 281 746 q 210 761 243 746 q 142 813 178 776 l 110 844 q 89 874 95 859 q 83 903 83 889 q 96 939 83 924 q 133 953 110 953 l 165 953 q 233 938 210 953 q 283 874 256 922 l 297 850 q 320 785 320 810 q 310 757 320 767 q 281 746 300 746 m 526 746 q 455 761 488 746 q 386 813 422 776 l 354 844 q 327 903 327 872 q 341 939 327 924 q 378 953 355 953 l 410 953 q 477 937 454 953 q 528 874 500 921 l 542 850 q 564 785 564 815 q 554 757 564 767 q 526 746 544 746 z "},"ä":{"ha":815,"x_min":30,"x_max":803,"o":"m 613 1 q 517 26 550 1 q 483 94 483 51 l 483 97 q 449 48 474 72 q 383 6 424 23 q 281 -10 341 -10 q 153 16 210 -10 q 63 91 96 42 q 30 213 30 141 q 71 336 30 289 q 176 405 112 383 q 311 427 241 427 q 389 419 356 427 q 443 399 422 410 q 469 380 463 388 l 469 418 q 461 445 469 432 q 438 468 453 458 q 401 485 422 478 q 354 491 380 491 q 284 485 316 491 q 225 472 251 480 q 192 464 208 467 q 156 461 176 461 q 85 482 111 461 q 60 549 60 503 q 87 614 60 592 q 151 648 115 636 q 247 668 185 660 q 379 677 308 677 q 506 661 447 677 q 611 616 566 646 q 683 544 657 587 q 708 446 708 501 l 708 178 l 710 178 q 779 155 756 178 q 803 90 803 131 q 773 24 803 48 q 675 1 744 1 l 613 1 m 469 242 q 448 262 465 252 q 409 279 431 272 q 362 285 386 285 q 297 271 324 285 q 271 220 271 256 q 282 182 271 197 q 313 162 294 168 q 354 156 332 156 q 410 169 386 156 q 449 199 433 182 q 469 228 464 215 l 469 242 m 220 729 q 131 766 167 729 q 94 855 94 802 q 131 947 94 910 q 220 983 167 983 q 309 947 273 983 q 346 855 346 910 q 309 766 346 802 q 220 729 273 729 m 526 729 q 436 766 473 729 q 400 855 400 802 q 436 947 400 910 q 526 983 473 983 q 616 947 579 983 q 653 855 653 910 q 616 766 653 802 q 526 729 579 729 z "},"ạ":{"ha":815,"x_min":30,"x_max":803,"o":"m 613 1 q 517 26 550 1 q 483 94 483 51 l 483 97 q 449 48 474 72 q 383 6 424 23 q 281 -10 341 -10 q 153 16 210 -10 q 63 91 96 42 q 30 213 30 141 q 71 336 30 289 q 176 405 112 383 q 311 427 241 427 q 389 419 356 427 q 443 399 422 410 q 469 380 463 388 l 469 418 q 461 445 469 432 q 438 468 453 458 q 401 485 422 478 q 354 491 380 491 q 284 485 316 491 q 225 472 251 480 q 192 464 208 467 q 156 461 176 461 q 85 482 111 461 q 60 549 60 503 q 87 614 60 592 q 151 648 115 636 q 247 668 185 660 q 379 677 308 677 q 506 661 447 677 q 611 616 566 646 q 683 544 657 587 q 708 446 708 501 l 708 178 l 710 178 q 779 155 756 178 q 803 90 803 131 q 773 24 803 48 q 675 1 744 1 l 613 1 m 469 242 q 448 262 465 252 q 409 279 431 272 q 362 285 386 285 q 297 271 324 285 q 271 220 271 256 q 282 182 271 197 q 313 162 294 168 q 354 156 332 156 q 410 169 386 156 q 449 199 433 182 q 469 228 464 215 l 469 242 m 374 -298 q 284 -261 321 -298 q 248 -171 248 -224 q 284 -81 248 -117 q 374 -44 321 -44 q 463 -81 426 -44 q 499 -171 499 -117 q 463 -263 499 -228 q 374 -298 426 -298 z "},"à":{"ha":815,"x_min":30,"x_max":803,"o":"m 613 1 q 517 26 550 1 q 483 94 483 51 l 483 97 q 449 48 474 72 q 383 6 424 23 q 281 -10 341 -10 q 153 16 210 -10 q 63 91 96 42 q 30 213 30 141 q 71 336 30 289 q 176 405 112 383 q 311 427 241 427 q 389 419 356 427 q 443 399 422 410 q 469 380 463 388 l 469 418 q 461 445 469 432 q 438 468 453 458 q 401 485 422 478 q 354 491 380 491 q 284 485 316 491 q 225 472 251 480 q 192 464 208 467 q 156 461 176 461 q 85 482 111 461 q 60 549 60 503 q 87 614 60 592 q 151 648 115 636 q 247 668 185 660 q 379 677 308 677 q 506 661 447 677 q 611 616 566 646 q 683 544 657 587 q 708 446 708 501 l 708 178 l 710 178 q 779 155 756 178 q 803 90 803 131 q 773 24 803 48 q 675 1 744 1 l 613 1 m 469 242 q 448 262 465 252 q 409 279 431 272 q 362 285 386 285 q 297 271 324 285 q 271 220 271 256 q 282 182 271 197 q 313 162 294 168 q 354 156 332 156 q 410 169 386 156 q 449 199 433 182 q 469 228 464 215 l 469 242 m 399 746 q 347 754 374 746 q 288 790 319 762 l 224 844 q 190 903 190 874 q 205 939 190 924 q 247 953 219 953 l 272 953 q 353 940 324 953 q 409 874 381 926 l 423 848 q 443 785 443 810 q 430 754 443 762 q 399 746 417 746 z "},"ả":{"ha":815,"x_min":30,"x_max":803,"o":"m 613 1 q 517 26 550 1 q 483 94 483 51 l 483 97 q 449 48 474 72 q 383 6 424 23 q 281 -10 341 -10 q 153 16 210 -10 q 63 91 96 42 q 30 213 30 141 q 71 336 30 289 q 176 405 112 383 q 311 427 241 427 q 389 419 356 427 q 443 399 422 410 q 469 380 463 388 l 469 418 q 461 445 469 432 q 438 468 453 458 q 401 485 422 478 q 354 491 380 491 q 284 485 316 491 q 225 472 251 480 q 192 464 208 467 q 156 461 176 461 q 85 482 111 461 q 60 549 60 503 q 87 614 60 592 q 151 648 115 636 q 247 668 185 660 q 379 677 308 677 q 506 661 447 677 q 611 616 566 646 q 683 544 657 587 q 708 446 708 501 l 708 178 l 710 178 q 779 155 756 178 q 803 90 803 131 q 773 24 803 48 q 675 1 744 1 l 613 1 m 469 242 q 448 262 465 252 q 409 279 431 272 q 362 285 386 285 q 297 271 324 285 q 271 220 271 256 q 282 182 271 197 q 313 162 294 168 q 354 156 332 156 q 410 169 386 156 q 449 199 433 182 q 469 228 464 215 l 469 242 m 336 719 q 276 767 276 719 q 291 806 276 792 q 336 820 305 820 q 393 833 365 820 q 422 865 422 845 q 398 893 422 884 q 350 903 374 903 q 306 898 323 903 q 277 888 290 894 q 256 883 268 884 q 236 882 244 882 q 206 892 219 882 q 192 924 192 903 q 236 980 192 958 q 351 1002 279 1002 q 447 990 402 1002 q 519 947 491 977 q 547 863 547 917 q 514 777 547 808 q 431 732 480 745 q 336 719 382 719 z "},"ȃ":{"ha":815,"x_min":30,"x_max":803,"o":"m 613 1 q 517 26 550 1 q 483 94 483 51 l 483 97 q 449 48 474 72 q 383 6 424 23 q 281 -10 341 -10 q 153 16 210 -10 q 63 91 96 42 q 30 213 30 141 q 71 336 30 289 q 176 405 112 383 q 311 427 241 427 q 389 419 356 427 q 443 399 422 410 q 469 380 463 388 l 469 418 q 461 445 469 432 q 438 468 453 458 q 401 485 422 478 q 354 491 380 491 q 284 485 316 491 q 225 472 251 480 q 192 464 208 467 q 156 461 176 461 q 85 482 111 461 q 60 549 60 503 q 87 614 60 592 q 151 648 115 636 q 247 668 185 660 q 379 677 308 677 q 506 661 447 677 q 611 616 566 646 q 683 544 657 587 q 708 446 708 501 l 708 178 l 710 178 q 779 155 756 178 q 803 90 803 131 q 773 24 803 48 q 675 1 744 1 l 613 1 m 469 242 q 448 262 465 252 q 409 279 431 272 q 362 285 386 285 q 297 271 324 285 q 271 220 271 256 q 282 182 271 197 q 313 162 294 168 q 354 156 332 156 q 410 169 386 156 q 449 199 433 182 q 469 228 464 215 l 469 242 m 488 750 q 429 767 447 750 q 408 804 412 785 q 400 825 406 815 q 373 834 393 834 q 346 825 353 834 q 337 804 340 815 q 316 767 333 784 q 257 750 299 750 q 206 768 225 750 q 187 813 187 786 q 198 859 187 834 q 238 906 210 883 q 294 936 261 924 q 372 949 327 949 q 458 933 422 949 q 518 894 494 917 q 550 851 540 873 q 559 811 559 829 q 541 767 559 784 q 488 750 522 750 z "},"ā":{"ha":815,"x_min":30,"x_max":803,"o":"m 613 1 q 517 26 550 1 q 483 94 483 51 l 483 97 q 449 48 474 72 q 383 6 424 23 q 281 -10 341 -10 q 153 16 210 -10 q 63 91 96 42 q 30 213 30 141 q 71 336 30 289 q 176 405 112 383 q 311 427 241 427 q 389 419 356 427 q 443 399 422 410 q 469 380 463 388 l 469 418 q 461 445 469 432 q 438 468 453 458 q 401 485 422 478 q 354 491 380 491 q 284 485 316 491 q 225 472 251 480 q 192 464 208 467 q 156 461 176 461 q 85 482 111 461 q 60 549 60 503 q 87 614 60 592 q 151 648 115 636 q 247 668 185 660 q 379 677 308 677 q 506 661 447 677 q 611 616 566 646 q 683 544 657 587 q 708 446 708 501 l 708 178 l 710 178 q 779 155 756 178 q 803 90 803 131 q 773 24 803 48 q 675 1 744 1 l 613 1 m 469 242 q 448 262 465 252 q 409 279 431 272 q 362 285 386 285 q 297 271 324 285 q 271 220 271 256 q 282 182 271 197 q 313 162 294 168 q 354 156 332 156 q 410 169 386 156 q 449 199 433 182 q 469 228 464 215 l 469 242 m 91 847 q 120 899 91 880 q 216 919 150 919 l 531 919 q 627 899 597 919 q 656 847 656 880 q 627 795 656 815 q 531 776 597 776 l 216 776 q 120 795 150 776 q 91 847 91 815 z "},"ą":{"ha":815,"x_min":30,"x_max":806,"o":"m 613 1 q 517 26 550 1 q 483 94 483 51 l 483 97 q 449 48 474 72 q 383 6 424 23 q 281 -10 341 -10 q 153 16 210 -10 q 63 91 96 42 q 30 213 30 141 q 71 336 30 289 q 176 405 112 383 q 311 427 241 427 q 389 419 356 427 q 443 399 422 410 q 469 380 463 388 l 469 418 q 461 445 469 432 q 438 468 453 458 q 401 485 422 478 q 354 491 380 491 q 284 485 316 491 q 225 472 251 480 q 192 464 208 467 q 156 461 176 461 q 85 482 111 461 q 60 549 60 503 q 87 614 60 592 q 151 648 115 636 q 247 668 185 660 q 379 677 308 677 q 506 661 447 677 q 611 616 566 646 q 683 544 657 587 q 708 446 708 501 l 708 178 l 710 178 q 779 155 756 178 q 803 90 803 131 q 773 24 803 48 q 675 1 744 1 l 613 1 m 469 242 q 448 262 465 252 q 409 279 431 272 q 362 285 386 285 q 297 271 324 285 q 271 220 271 256 q 282 182 271 197 q 313 162 294 168 q 354 156 332 156 q 410 169 386 156 q 449 199 433 182 q 469 228 464 215 l 469 242 m 630 -339 q 526 -326 575 -339 q 446 -283 476 -314 q 415 -197 415 -251 q 429 -124 415 -158 q 465 -64 443 -90 q 513 -22 488 -38 q 560 0 538 -5 l 675 0 q 643 -31 661 -8 q 613 -83 626 -54 q 599 -138 599 -112 q 613 -180 599 -167 q 652 -193 626 -193 q 677 -191 661 -193 q 703 -186 694 -189 q 729 -181 717 -183 q 751 -180 741 -180 q 794 -198 781 -180 q 806 -243 806 -215 q 756 -315 806 -292 q 630 -339 706 -339 z "},"å":{"ha":815,"x_min":30,"x_max":803,"o":"m 613 1 q 517 26 550 1 q 483 94 483 51 l 483 97 q 449 48 474 72 q 383 6 424 23 q 281 -10 341 -10 q 153 16 210 -10 q 63 91 96 42 q 30 213 30 141 q 71 336 30 289 q 176 405 112 383 q 311 427 241 427 q 389 419 356 427 q 443 399 422 410 q 469 380 463 388 l 469 418 q 461 445 469 432 q 438 468 453 458 q 401 485 422 478 q 354 491 380 491 q 284 485 316 491 q 225 472 251 480 q 192 464 208 467 q 156 461 176 461 q 85 482 111 461 q 60 549 60 503 q 87 614 60 592 q 151 648 115 636 q 247 668 185 660 q 379 677 308 677 q 506 661 447 677 q 611 616 566 646 q 683 544 657 587 q 708 446 708 501 l 708 178 l 710 178 q 779 155 756 178 q 803 90 803 131 q 773 24 803 48 q 675 1 744 1 l 613 1 m 469 242 q 448 262 465 252 q 409 279 431 272 q 362 285 386 285 q 297 271 324 285 q 271 220 271 256 q 282 182 271 197 q 313 162 294 168 q 354 156 332 156 q 410 169 386 156 q 449 199 433 182 q 469 228 464 215 l 469 242 m 375 705 q 264 749 310 705 q 218 860 218 793 q 239 938 218 903 q 296 993 260 972 q 375 1015 332 1015 q 452 993 417 1015 q 508 938 487 972 q 529 860 529 903 q 483 749 529 793 q 375 705 437 705 m 375 821 q 400 832 390 821 q 411 860 411 843 q 400 886 411 875 q 375 897 390 897 q 347 886 358 897 q 337 860 337 875 q 347 832 337 843 q 375 821 358 821 z "}}}
